  0
SECTION
  2
HEADER
  9
$ACADVER
  1
AC1015
  9
$ACADMAINTVER
 70
    20
  9
$DWGCODEPAGE
  3
ANSI_936
  9
$INSBASE
 10
0.0
 20
0.0
 30
0.0
  9
$EXTMIN
 10
2.071276520781408
 20
1.554482393697503
 30
0.0
  9
$EXTMAX
 10
45.37226426925996
 20
26.14851191437072
 30
0.0
  9
$LIMMIN
 10
0.0
 20
0.0
  9
$LIMMAX
 10
12.0
 20
9.0
  9
$ORTHOMODE
 70
     0
  9
$REGENMODE
 70
     1
  9
$FILLMODE
 70
     1
  9
$QTEXTMODE
 70
     0
  9
$MIRRTEXT
 70
     0
  9
$LTSCALE
 40
1.0
  9
$ATTMODE
 70
     1
  9
$TEXTSIZE
 40
0.2
  9
$TRACEWID
 40
0.05
  9
$TEXTSTYLE
  7
Standard
  9
$CLAYER
  8
0
  9
$CELTYPE
  6
ByLayer
  9
$CECOLOR
 62
   256
  9
$CELTSCALE
 40
1.0
  9
$DISPSILH
 70
     0
  9
$DIMSCALE
 40
1.0
  9
$DIMASZ
 40
0.18
  9
$DIMEXO
 40
0.0625
  9
$DIMDLI
 40
0.38
  9
$DIMRND
 40
0.0
  9
$DIMDLE
 40
0.0
  9
$DIMEXE
 40
0.18
  9
$DIMTP
 40
0.0
  9
$DIMTM
 40
0.0
  9
$DIMTXT
 40
0.18
  9
$DIMCEN
 40
0.09
  9
$DIMTSZ
 40
0.0
  9
$DIMTOL
 70
     0
  9
$DIMLIM
 70
     0
  9
$DIMTIH
 70
     1
  9
$DIMTOH
 70
     1
  9
$DIMSE1
 70
     0
  9
$DIMSE2
 70
     0
  9
$DIMTAD
 70
     0
  9
$DIMZIN
 70
     0
  9
$DIMBLK
  1

  9
$DIMASO
 70
     1
  9
$DIMSHO
 70
     1
  9
$DIMPOST
  1

  9
$DIMAPOST
  1

  9
$DIMALT
 70
     0
  9
$DIMALTD
 70
     2
  9
$DIMALTF
 40
25.4
  9
$DIMLFAC
 40
1.0
  9
$DIMTOFL
 70
     0
  9
$DIMTVP
 40
0.0
  9
$DIMTIX
 70
     0
  9
$DIMSOXD
 70
     0
  9
$DIMSAH
 70
     0
  9
$DIMBLK1
  1

  9
$DIMBLK2
  1

  9
$DIMSTYLE
  2
Standard
  9
$DIMCLRD
 70
     0
  9
$DIMCLRE
 70
     0
  9
$DIMCLRT
 70
     0
  9
$DIMTFAC
 40
1.0
  9
$DIMGAP
 40
0.09
  9
$DIMJUST
 70
     0
  9
$DIMSD1
 70
     0
  9
$DIMSD2
 70
     0
  9
$DIMTOLJ
 70
     1
  9
$DIMTZIN
 70
     0
  9
$DIMALTZ
 70
     0
  9
$DIMALTTZ
 70
     0
  9
$DIMUPT
 70
     0
  9
$DIMDEC
 70
     4
  9
$DIMTDEC
 70
     4
  9
$DIMALTU
 70
     2
  9
$DIMALTTD
 70
     2
  9
$DIMTXSTY
  7
Standard
  9
$DIMAUNIT
 70
     0
  9
$DIMADEC
 70
     0
  9
$DIMALTRND
 40
0.0
  9
$DIMAZIN
 70
     0
  9
$DIMDSEP
 70
    46
  9
$DIMATFIT
 70
     3
  9
$DIMFRAC
 70
     1
  9
$DIMLDRBLK
  1

  9
$DIMLUNIT
 70
     5
  9
$DIMLWD
 70
    -2
  9
$DIMLWE
 70
    -2
  9
$DIMTMOVE
 70
     0
  9
$LUNITS
 70
     2
  9
$LUPREC
 70
     4
  9
$SKETCHINC
 40
0.1
  9
$FILLETRAD
 40
1.0
  9
$AUNITS
 70
     0
  9
$AUPREC
 70
     0
  9
$MENU
  1
.
  9
$ELEVATION
 40
0.0
  9
$PELEVATION
 40
0.0
  9
$THICKNESS
 40
0.0
  9
$LIMCHECK
 70
     0
  9
$CHAMFERA
 40
0.0
  9
$CHAMFERB
 40
0.0
  9
$CHAMFERC
 40
0.0
  9
$CHAMFERD
 40
0.0
  9
$SKPOLY
 70
     0
  9
$TDCREATE
 40
2455042.635934607
  9
$TDUCREATE
 40
2455042.844267940
  9
$TDUPDATE
 40
2455043.458514537
  9
$TDUUPDATE
 40
2455043.666847871
  9
$TDINDWG
 40
0.0193518519
  9
$TDUSRTIMER
 40
0.0193495023
  9
$USRTIMER
 70
     1
  9
$ANGBASE
 50
0.0
  9
$ANGDIR
 70
     0
  9
$PDMODE
 70
     0
  9
$PDSIZE
 40
0.0
  9
$PLINEWID
 40
0.0
  9
$SPLFRAME
 70
     0
  9
$SPLINETYPE
 70
     6
  9
$SPLINESEGS
 70
     8
  9
$HANDSEED
  5
2E1
  9
$SURFTAB1
 70
     6
  9
$SURFTAB2
 70
     6
  9
$SURFTYPE
 70
     6
  9
$SURFU
 70
     6
  9
$SURFV
 70
     6
  9
$UCSBASE
  2

  9
$UCSNAME
  2

  9
$UCSORG
 10
0.0
 20
0.0
 30
0.0
  9
$UCSXDIR
 10
1.0
 20
0.0
 30
0.0
  9
$UCSYDIR
 10
0.0
 20
1.0
 30
0.0
  9
$UCSORTHOREF
  2

  9
$UCSORTHOVIEW
 70
     0
  9
$UCSORGTOP
 10
0.0
 20
0.0
 30
0.0
  9
$UCSORGBOTTOM
 10
0.0
 20
0.0
 30
0.0
  9
$UCSORGLEFT
 10
0.0
 20
0.0
 30
0.0
  9
$UCSORGRIGHT
 10
0.0
 20
0.0
 30
0.0
  9
$UCSORGFRONT
 10
0.0
 20
0.0
 30
0.0
  9
$UCSORGBACK
 10
0.0
 20
0.0
 30
0.0
  9
$PUCSBASE
  2

  9
$PUCSNAME
  2

  9
$PUCSORG
 10
0.0
 20
0.0
 30
0.0
  9
$PUCSXDIR
 10
1.0
 20
0.0
 30
0.0
  9
$PUCSYDIR
 10
0.0
 20
1.0
 30
0.0
  9
$PUCSORTHOREF
  2

  9
$PUCSORTHOVIEW
 70
     0
  9
$PUCSORGTOP
 10
0.0
 20
0.0
 30
0.0
  9
$PUCSORGBOTTOM
 10
0.0
 20
0.0
 30
0.0
  9
$PUCSORGLEFT
 10
0.0
 20
0.0
 30
0.0
  9
$PUCSORGRIGHT
 10
0.0
 20
0.0
 30
0.0
  9
$PUCSORGFRONT
 10
0.0
 20
0.0
 30
0.0
  9
$PUCSORGBACK
 10
0.0
 20
0.0
 30
0.0
  9
$USERI1
 70
     0
  9
$USERI2
 70
     0
  9
$USERI3
 70
     0
  9
$USERI4
 70
     0
  9
$USERI5
 70
     0
  9
$USERR1
 40
0.0
  9
$USERR2
 40
0.0
  9
$USERR3
 40
0.0
  9
$USERR4
 40
0.0
  9
$USERR5
 40
0.0
  9
$WORLDVIEW
 70
     1
  9
$SHADEDGE
 70
     3
  9
$SHADEDIF
 70
    70
  9
$TILEMODE
 70
     1
  9
$MAXACTVP
 70
    64
  9
$PINSBASE
 10
0.0
 20
0.0
 30
0.0
  9
$PLIMCHECK
 70
     0
  9
$PEXTMIN
 10
0.0
 20
0.0
 30
0.0
  9
$PEXTMAX
 10
0.0
 20
0.0
 30
0.0
  9
$PLIMMIN
 10
0.0
 20
0.0
  9
$PLIMMAX
 10
12.0
 20
9.0
  9
$UNITMODE
 70
     0
  9
$VISRETAIN
 70
     1
  9
$PLINEGEN
 70
     0
  9
$PSLTSCALE
 70
     1
  9
$TREEDEPTH
 70
  3020
  9
$CMLSTYLE
  2
Standard
  9
$CMLJUST
 70
     0
  9
$CMLSCALE
 40
1.0
  9
$PROXYGRAPHICS
 70
     1
  9
$MEASUREMENT
 70
     0
  9
$CELWEIGHT
370
    -1
  9
$ENDCAPS
280
     0
  9
$JOINSTYLE
280
     0
  9
$LWDISPLAY
290
     0
  9
$INSUNITS
 70
     1
  9
$HYPERLINKBASE
  1

  9
$STYLESHEET
  1

  9
$XEDIT
290
     1
  9
$CEPSNTYPE
380
     0
  9
$PSTYLEMODE
290
     1
  9
$FINGERPRINTGUID
  2
{BEA8299A-76FF-4D9E-95D0-4E378B23AD94}
  9
$VERSIONGUID
  2
{808F1CB4-468C-450E-943A-B060AB6199A1}
  9
$EXTNAMES
290
     1
  9
$PSVPSCALE
 40
0.0
  9
$OLESTARTUP
290
     0
  0
ENDSEC
  0
SECTION
  2
CLASSES
  0
CLASS
  1
ACDBDICTIONARYWDFLT
  2
AcDbDictionaryWithDefault
  3
ObjectDBX Classes
 90
        0
280
     0
281
     0
  0
CLASS
  1
ACDBPLACEHOLDER
  2
AcDbPlaceHolder
  3
ObjectDBX Classes
 90
        0
280
     0
281
     0
  0
CLASS
  1
LAYOUT
  2
AcDbLayout
  3
ObjectDBX Classes
 90
        0
280
     0
281
     0
  0
CLASS
  1
DICTIONARYVAR
  2
AcDbDictionaryVar
  3
ObjectDBX Classes
 90
        0
280
     0
281
     0
  0
CLASS
  1
TABLESTYLE
  2
AcDbTableStyle
  3
ObjectDBX Classes
 90
     2047
280
     0
281
     0
  0
CLASS
  1
SORTENTSTABLE
  2
AcDbSortentsTable
  3
ObjectDBX Classes
 90
        0
280
     0
281
     0
  0
CLASS
  1
DIMASSOC
  2
AcDbDimAssoc
  3
"AcDbDimAssoc|Product Desc:     AcDim ARX App For Dimension|Company:          Autodesk, Inc.|WEB Address:      www.autodesk.com"
 90
        0
280
     0
281
     0
  0
ENDSEC
  0
SECTION
  2
TABLES
  0
TABLE
  2
VPORT
  5
8
330
0
100
AcDbSymbolTable
 70
     2
  0
VPORT
  5
2D5
330
8
100
AcDbSymbolTableRecord
100
AcDbViewportTableRecord
  2
*Active
 70
     0
 10
0.0
 20
0.0
 11
1.0
 21
1.0
 12
23.02224111034655
 22
13.76135892206156
 13
0.0
 23
0.0
 14
0.5
 24
0.5
 15
0.5
 25
0.5
 16
0.0
 26
0.0
 36
1.0
 17
0.0
 27
0.0
 37
0.0
 40
26.79647945957596
 41
1.888667992047713
 42
50.0
 43
0.0
 44
0.0
 50
0.0
 51
0.0
 71
     0
 72
  1000
 73
     1
 74
     3
 75
     0
 76
     0
 77
     0
 78
     0
281
     0
 65
     1
110
0.0
120
0.0
130
0.0
111
1.0
121
0.0
131
0.0
112
0.0
122
1.0
132
0.0
 79
     0
146
0.0
  0
ENDTAB
  0
TABLE
  2
LTYPE
  5
5
330
0
100
AcDbSymbolTable
 70
     1
  0
LTYPE
  5
14
330
5
100
AcDbSymbolTableRecord
100
AcDbLinetypeTableRecord
  2
ByBlock
 70
     0
  3

 72
    65
 73
     0
 40
0.0
  0
LTYPE
  5
15
330
5
100
AcDbSymbolTableRecord
100
AcDbLinetypeTableRecord
  2
ByLayer
 70
     0
  3

 72
    65
 73
     0
 40
0.0
  0
LTYPE
  5
16
330
5
100
AcDbSymbolTableRecord
100
AcDbLinetypeTableRecord
  2
Continuous
 70
     0
  3
Solid line
 72
    65
 73
     0
 40
0.0
  0
ENDTAB
  0
TABLE
  2
LAYER
  5
2
102
{ACAD_XDICTIONARY
360
AC
102
}
330
0
100
AcDbSymbolTable
 70
     2
  0
LAYER
  5
10
330
2
100
AcDbSymbolTableRecord
100
AcDbLayerTableRecord
  2
0
 70
     0
 62
     7
  6
Continuous
370
    -3
390
F
  0
LAYER
  5
C2
330
2
100
AcDbSymbolTableRecord
100
AcDbLayerTableRecord
  2
Defpoints
 70
     0
 62
     7
  6
Continuous
290
     0
370
    -3
390
F
  0
ENDTAB
  0
TABLE
  2
STYLE
  5
3
330
0
100
AcDbSymbolTable
 70
     1
  0
STYLE
  5
11
330
3
100
AcDbSymbolTableRecord
100
AcDbTextStyleTableRecord
  2
Standard
 70
     0
 40
0.0
 41
1.0
 50
0.0
 71
     0
 42
0.2
  3
txt
  4

  0
ENDTAB
  0
TABLE
  2
VIEW
  5
6
330
0
100
AcDbSymbolTable
 70
     0
  0
ENDTAB
  0
TABLE
  2
UCS
  5
7
330
0
100
AcDbSymbolTable
 70
     0
  0
ENDTAB
  0
TABLE
  2
APPID
  5
9
330
0
100
AcDbSymbolTable
 70
     3
  0
APPID
  5
12
330
9
100
AcDbSymbolTableRecord
100
AcDbRegAppTableRecord
  2
ACAD
 70
     0
  0
APPID
  5
AB
330
9
100
AcDbSymbolTableRecord
100
AcDbRegAppTableRecord
  2
ACAD_PSEXT
 70
     0
  0
APPID
  5
1F7
330
9
100
AcDbSymbolTableRecord
100
AcDbRegAppTableRecord
  2
ACAD_DSTYLE_DIMTEXT_FILL
 70
     0
  0
ENDTAB
  0
TABLE
  2
DIMSTYLE
  5
A
330
0
100
AcDbSymbolTable
 70
     2
100
AcDbDimStyleTable
 71
     1
340
27
  0
DIMSTYLE
105
27
102
{ACAD_REACTORS
330
107
330
13D
330
12B
330
C1
330
DC
330
119
102
}
330
A
100
AcDbSymbolTableRecord
100
AcDbDimStyleTableRecord
  2
Standard
 70
     0
276
     1
277
     5
340
11
  0
DIMSTYLE
105
AA
330
A
100
AcDbSymbolTableRecord
100
AcDbDimStyleTableRecord
  2
ISO-25
 70
     0
 41
2.5
 42
0.625
 43
3.75
 44
1.25
 73
     0
 74
     0
 77
     1
 78
     8
140
2.5
141
2.5
143
0.03937007874016
147
0.625
171
     3
172
     1
271
     2
272
     2
274
     3
278
    44
283
     0
284
     8
340
11
  0
ENDTAB
  0
TABLE
  2
BLOCK_RECORD
  5
1
330
0
100
AcDbSymbolTable
 70
    10
  0
BLOCK_RECORD
  5
1F
102
{ACAD_XDICTIONARY
360
9C
102
}
330
1
100
AcDbSymbolTableRecord
100
AcDbBlockTableRecord
  2
*Model_Space
340
22
  0
BLOCK_RECORD
  5
58
330
1
100
AcDbSymbolTableRecord
100
AcDbBlockTableRecord
  2
*Paper_Space
340
59
  0
BLOCK_RECORD
  5
5D
330
1
100
AcDbSymbolTableRecord
100
AcDbBlockTableRecord
  2
*Paper_Space0
340
5E
  0
BLOCK_RECORD
  5
AE
102
{ACAD_XDICTIONARY
360
B0
102
}
330
1
100
AcDbSymbolTableRecord
100
AcDbBlockTableRecord
  2
A$C684D5D77
340
0
  0
BLOCK_RECORD
  5
C3
330
1
100
AcDbSymbolTableRecord
100
AcDbBlockTableRecord
  2
*D2
340
0
  0
BLOCK_RECORD
  5
DD
330
1
100
AcDbSymbolTableRecord
100
AcDbBlockTableRecord
  2
*D3
340
0
  0
BLOCK_RECORD
  5
F6
102
{ACAD_XDICTIONARY
360
F8
102
}
330
1
100
AcDbSymbolTableRecord
100
AcDbBlockTableRecord
  2
A$C1F187F3C
340
0
  0
BLOCK_RECORD
  5
108
330
1
100
AcDbSymbolTableRecord
100
AcDbBlockTableRecord
  2
*D5
340
0
  0
BLOCK_RECORD
  5
11A
330
1
100
AcDbSymbolTableRecord
100
AcDbBlockTableRecord
  2
*D6
340
0
  0
BLOCK_RECORD
  5
12C
330
1
100
AcDbSymbolTableRecord
100
AcDbBlockTableRecord
  2
*D7
340
0
  0
BLOCK_RECORD
  5
13E
330
1
100
AcDbSymbolTableRecord
100
AcDbBlockTableRecord
  2
*D8
340
0
  0
BLOCK_RECORD
  5
165
330
1
100
AcDbSymbolTableRecord
100
AcDbBlockTableRecord
  2
_Open30
340
0
102
{BLKREFS
331
27F
331
289
331
29F
331
2A5
331
2AB
331
2B1
102
}
  0
ENDTAB
  0
ENDSEC
  0
SECTION
  2
BLOCKS
  0
BLOCK
  5
20
330
1F
100
AcDbEntity
  8
0
100
AcDbBlockBegin
  2
*Model_Space
 70
     0
 10
0.0
 20
0.0
 30
0.0
  3
*Model_Space
  1

  0
ENDBLK
  5
21
330
1F
100
AcDbEntity
  8
0
100
AcDbBlockEnd
  0
BLOCK
  5
5A
330
58
100
AcDbEntity
 67
     1
  8
0
100
AcDbBlockBegin
  2
*Paper_Space
 70
     0
 10
0.0
 20
0.0
 30
0.0
  3
*Paper_Space
  1

  0
ENDBLK
  5
5B
330
58
100
AcDbEntity
 67
     1
  8
0
100
AcDbBlockEnd
  0
BLOCK
  5
5F
330
5D
100
AcDbEntity
  8
0
100
AcDbBlockBegin
  2
*Paper_Space0
 70
     0
 10
0.0
 20
0.0
 30
0.0
  3
*Paper_Space0
  1

  0
ENDBLK
  5
60
330
5D
100
AcDbEntity
  8
0
100
AcDbBlockEnd
  0
BLOCK
  5
B2
330
AE
100
AcDbEntity
  8
0
100
AcDbBlockBegin
  2
A$C684D5D77
 70
     0
 10
0.0
 20
0.0
 30
0.0
  3
A$C684D5D77
  1

  0
MTEXT
  5
AF
102
{ACAD_XDICTIONARY
360
2DD
102
}
330
AE
100
AcDbEntity
  8
0
 62
   102
100
AcDbMText
 10
0.0000077773629528
 20
86.66666695226831
 30
0.0
 40
20.0
 41
465.8935509140357
 71
     1
 72
     5
  1
{\C3;WELLS SINKWARE\PCMU4721-979 (U107) \PREVEAL CUTOUT TEMPLATE}
 73
     1
 44
1.0
1001
ACAD
1000
MTEXTBEGIN
1070
    73
1070
     1
1070
    44
1040
1.0
1070
    74
1070
     0
1000
MTEXTEND
  0
ENDBLK
  5
B3
330
AE
100
AcDbEntity
  8
0
100
AcDbBlockEnd
  0
BLOCK
  5
CE
330
C3
100
AcDbEntity
  8
0
100
AcDbBlockBegin
  2
*D2
 70
     1
 10
0.0
 20
0.0
 30
0.0
  3
*D2
  1

  0
LINE
  5
27A
330
C3
100
AcDbEntity
  8
0
 62
     0
370
    -2
100
AcDbLine
 10
5.9375
 20
19.1875
 30
0.0
 11
2.691276520781411
 21
19.1875
 31
0.0
  0
LINE
  5
27B
330
C3
100
AcDbEntity
  8
0
 62
     0
370
    -2
100
AcDbLine
 10
5.9375
 20
5.0
 30
0.0
 11
2.691276520781409
 21
5.0
 31
0.0
  0
LINE
  5
27C
330
C3
100
AcDbEntity
  8
0
 62
     0
370
    -2
100
AcDbLine
 10
2.871276520781412
 20
18.6875
 30
0.0
 11
2.87127652078141
 21
12.58375
 31
0.0
  0
LINE
  5
27D
330
C3
100
AcDbEntity
  8
0
 62
     0
370
    -2
100
AcDbLine
 10
2.871276520781408
 20
5.5
 30
0.0
 11
2.87127652078141
 21
11.60375
 31
0.0
  0
SOLID
  5
27E
330
C3
100
AcDbEntity
  8
0
 62
     0
100
AcDbTrace
 10
2.787943187448078
 20
18.6875
 30
0.0
 11
2.954609854114745
 21
18.6875
 31
0.0
 12
2.871276520781412
 22
19.1875
 32
0.0
 13
2.871276520781412
 23
19.1875
 33
0.0
  0
INSERT
  5
27F
330
C3
100
AcDbEntity
  8
0
 62
     0
370
    -2
100
AcDbBlockReference
  2
_Open30
 10
2.871276520781408
 20
5.0
 30
0.0
 41
0.5
 42
0.5
 43
0.5
 50
270.0
  0
MTEXT
  5
280
330
C3
100
AcDbEntity
  8
0
 62
    40
100
AcDbMText
 10
2.871276520781408
 20
12.09375
 30
0.0
 40
0.4
 41
0.0
 71
     5
 72
     1
  1
\A1;14{\H1.000000x;\S3#16;}
 73
     1
 44
1.0
1001
ACAD
1000
MTEXTBEGIN
1070
    73
1070
     1
1070
    44
1040
1.0
1070
    74
1070
     1
1000
MTEXTEND
  0
POINT
  5
281
330
C3
100
AcDbEntity
  8
Defpoints
 62
     0
100
AcDbPoint
 10
6.0
 20
19.1875
 30
0.0
  0
POINT
  5
282
330
C3
100
AcDbEntity
  8
Defpoints
 62
     0
100
AcDbPoint
 10
6.0
 20
5.0
 30
0.0
  0
POINT
  5
283
330
C3
100
AcDbEntity
  8
Defpoints
 62
     0
100
AcDbPoint
 10
2.871276520781408
 20
5.0
 30
0.0
  0
ENDBLK
  5
CF
330
C3
100
AcDbEntity
  8
0
100
AcDbBlockEnd
  0
BLOCK
  5
E8
330
DD
100
AcDbEntity
  8
0
100
AcDbBlockBegin
  2
*D3
 70
     1
 10
0.0
 20
0.0
 30
0.0
  3
*D3
  1

  0
LINE
  5
284
330
DD
100
AcDbEntity
  8
0
 62
     0
370
    -2
100
AcDbLine
 10
5.0
 20
18.25
 30
0.0
 11
5.0
 21
21.36136170859714
 31
0.0
  0
LINE
  5
285
330
DD
100
AcDbEntity
  8
0
 62
     0
370
    -2
100
AcDbLine
 10
19.1875
 20
18.25
 30
0.0
 11
19.1875
 21
21.36136170859714
 31
0.0
  0
LINE
  5
286
330
DD
100
AcDbEntity
  8
0
 62
     0
370
    -2
100
AcDbLine
 10
5.5
 20
21.18136170859714
 30
0.0
 11
11.20375
 21
21.18136170859714
 31
0.0
  0
LINE
  5
287
330
DD
100
AcDbEntity
  8
0
 62
     0
370
    -2
100
AcDbLine
 10
18.6875
 20
21.18136170859714
 30
0.0
 11
12.98375
 21
21.18136170859714
 31
0.0
  0
SOLID
  5
288
330
DD
100
AcDbEntity
  8
0
 62
     0
100
AcDbTrace
 10
5.5
 20
21.26469504193047
 30
0.0
 11
5.5
 21
21.0980283752638
 31
0.0
 12
5.0
 22
21.18136170859714
 32
0.0
 13
5.0
 23
21.18136170859714
 33
0.0
  0
INSERT
  5
289
330
DD
100
AcDbEntity
  8
0
 62
     0
370
    -2
100
AcDbBlockReference
  2
_Open30
 10
19.1875
 20
21.18136170859714
 30
0.0
 41
0.5
 42
0.5
 43
0.5
  0
MTEXT
  5
28A
330
DD
100
AcDbEntity
  8
0
 62
    40
100
AcDbMText
 10
12.09375
 20
21.18136170859714
 30
0.0
 40
0.4
 41
0.0
 71
     5
 72
     1
  1
\A1;14{\H1.000000x;\S3#16;}
 73
     1
 44
1.0
1001
ACAD
1000
MTEXTBEGIN
1070
    73
1070
     1
1070
    44
1040
1.0
1070
    74
1070
     1
1000
MTEXTEND
  0
POINT
  5
28B
330
DD
100
AcDbEntity
  8
Defpoints
 62
     0
100
AcDbPoint
 10
5.0
 20
18.1875
 30
0.0
  0
POINT
  5
28C
330
DD
100
AcDbEntity
  8
Defpoints
 62
     0
100
AcDbPoint
 10
19.1875
 20
18.1875
 30
0.0
  0
POINT
  5
28D
330
DD
100
AcDbEntity
  8
Defpoints
 62
     0
100
AcDbPoint
 10
19.1875
 20
21.18136170859714
 30
0.0
  0
ENDBLK
  5
E9
330
DD
100
AcDbEntity
  8
0
100
AcDbBlockEnd
  0
BLOCK
  5
FA
330
F6
100
AcDbEntity
  8
0
100
AcDbBlockBegin
  2
A$C1F187F3C
 70
     0
 10
0.0
 20
0.0
 30
0.0
  3
A$C1F187F3C
  1

  0
MTEXT
  5
F7
330
F6
100
AcDbEntity
  8
0
 62
     0
100
AcDbMText
 10
-0.0000026668185455
 20
177.9999970450576
 30
0.0
 40
6.0
 41
449.2544965062116
 71
     1
 72
     5
  3
{\H2x;\C4;Notes: \P1. WELLS recommends that Wells Sinkware under-mount sinks be installed by professional countertop fabricators/installers. \P2. The template is only a guide. It's important that you check the template provided with your sink against
  1
 the sink (to assure that template agrees with sink) before cutting the counter top.}
 73
     1
 44
1.0
1001
ACAD
1000
MTEXTBEGIN
1070
    73
1070
     1
1070
    44
1040
1.0
1070
    74
1070
     0
1000
MTEXTEND
  0
ENDBLK
  5
FB
330
F6
100
AcDbEntity
  8
0
100
AcDbBlockEnd
  0
BLOCK
  5
10F
330
108
100
AcDbEntity
  8
0
100
AcDbBlockBegin
  2
*D5
 70
     1
 10
0.0
 20
0.0
 30
0.0
  3
*D5
  1

  0
LINE
  5
29C
330
108
100
AcDbEntity
  8
0
 62
     0
370
    -2
100
AcDbLine
 10
7.344181612025088
 20
17.56284375473877
 30
0.0
 11
6.844181612025085
 21
17.56284375473877
 31
0.0
  0
LINE
  5
29D
330
108
100
AcDbEntity
  8
0
 62
     0
370
    -2
100
AcDbLine
 10
6.844181612025085
 20
17.56284375473877
 30
0.0
 11
5.59807036587055
 21
18.48490976649829
 31
0.0
  0
MTEXT
  5
29E
330
108
100
AcDbEntity
  8
0
 62
    40
100
AcDbMText
 10
7.700848278691751
 20
17.56284375473877
 30
0.0
 40
0.4
 41
0.0
 71
     5
 72
     1
  1
\A1;R1
 73
     1
 44
1.0
1001
ACAD
1000
MTEXTBEGIN
1070
    73
1070
     1
1070
    44
1040
1.0
1070
    74
1070
     0
1000
MTEXTEND
  0
INSERT
  5
29F
330
108
100
AcDbEntity
  8
0
 62
     0
370
    -2
100
AcDbBlockReference
  2
_Open30
 10
5.196140731741099
 20
18.78231953299658
 30
0.0
 41
0.5
 42
0.5
 43
0.5
 50
143.5002319145929
  0
POINT
  5
2A0
330
108
100
AcDbEntity
  8
Defpoints
 62
     0
100
AcDbPoint
 10
5.196140731741099
 20
18.78231953299658
 30
0.0
  0
POINT
  5
2A1
330
108
100
AcDbEntity
  8
Defpoints
 62
     0
100
AcDbPoint
 10
6.000000000000006
 20
18.18750000000001
 30
0.0
  0
ENDBLK
  5
110
330
108
100
AcDbEntity
  8
0
100
AcDbBlockEnd
  0
BLOCK
  5
121
330
11A
100
AcDbEntity
  8
0
100
AcDbBlockBegin
  2
*D6
 70
     1
 10
0.0
 20
0.0
 30
0.0
  3
*D6
  1

  0
LINE
  5
2AE
330
11A
100
AcDbEntity
  8
0
 62
     0
370
    -2
100
AcDbLine
 10
16.6151209637296
 20
17.29700561124753
 30
0.0
 11
17.1151209637296
 21
17.29700561124753
 31
0.0
  0
LINE
  5
2AF
330
11A
100
AcDbEntity
  8
0
 62
     0
370
    -2
100
AcDbLine
 10
17.1151209637296
 20
17.29700561124753
 30
0.0
 11
18.57216660452531
 21
18.50692386160549
 31
0.0
  0
MTEXT
  5
2B0
330
11A
100
AcDbEntity
  8
0
 62
    40
100
AcDbMText
 10
16.25845429706293
 20
17.29700561124753
 30
0.0
 40
0.4
 41
0.0
 71
     5
 72
     1
  1
\A1;R1
 73
     1
 44
1.0
1001
ACAD
1000
MTEXTBEGIN
1070
    73
1070
     1
1070
    44
1040
1.0
1070
    74
1070
     0
1000
MTEXTEND
  0
INSERT
  5
2B1
330
11A
100
AcDbEntity
  8
0
 62
     0
370
    -2
100
AcDbBlockReference
  2
_Open30
 10
18.95683320905063
 20
18.82634772321098
 30
0.0
 41
0.5
 42
0.5
 43
0.5
 50
39.7059506877441
  0
POINT
  5
2B2
330
11A
100
AcDbEntity
  8
Defpoints
 62
     0
100
AcDbPoint
 10
18.95683320905063
 20
18.82634772321098
 30
0.0
  0
POINT
  5
2B3
330
11A
100
AcDbEntity
  8
Defpoints
 62
     0
100
AcDbPoint
 10
18.18750000000002
 20
18.18750000000003
 30
0.0
  0
ENDBLK
  5
122
330
11A
100
AcDbEntity
  8
0
100
AcDbBlockEnd
  0
BLOCK
  5
133
330
12C
100
AcDbEntity
  8
0
100
AcDbBlockBegin
  2
*D7
 70
     1
 10
0.0
 20
0.0
 30
0.0
  3
*D7
  1

  0
LINE
  5
2A8
330
12C
100
AcDbEntity
  8
0
 62
     0
370
    -2
100
AcDbLine
 10
7.55705063408233
 20
6.929319703946132
 30
0.0
 11
7.05705063408233
 21
6.929319703946132
 31
0.0
  0
LINE
  5
2A9
330
12C
100
AcDbEntity
  8
0
 62
     0
370
    -2
100
AcDbLine
 10
7.05705063408233
 20
6.929319703946132
 30
0.0
 11
5.624487388582132
 21
5.669863242479526
 31
0.0
  0
MTEXT
  5
2AA
330
12C
100
AcDbEntity
  8
0
 62
    40
100
AcDbMText
 10
7.913717300748996
 20
6.929319703946132
 30
0.0
 40
0.4
 41
0.0
 71
     5
 72
     1
  1
\A1;R1
 73
     1
 44
1.0
1001
ACAD
1000
MTEXTBEGIN
1070
    73
1070
     1
1070
    44
1040
1.0
1070
    74
1070
     0
1000
MTEXTEND
  0
INSERT
  5
2AB
330
12C
100
AcDbEntity
  8
0
 62
     0
370
    -2
100
AcDbBlockReference
  2
_Open30
 10
5.248974777164258
 20
5.339726484959056
 30
0.0
 41
0.5
 42
0.5
 43
0.5
 50
221.3207359389474
  0
POINT
  5
2AC
330
12C
100
AcDbEntity
  8
Defpoints
 62
     0
100
AcDbPoint
 10
5.248974777164258
 20
5.339726484959056
 30
0.0
  0
POINT
  5
2AD
330
12C
100
AcDbEntity
  8
Defpoints
 62
     0
100
AcDbPoint
 10
6.000000000000007
 20
6.000000000000002
 30
0.0
  0
ENDBLK
  5
134
330
12C
100
AcDbEntity
  8
0
100
AcDbBlockEnd
  0
BLOCK
  5
145
330
13E
100
AcDbEntity
  8
0
100
AcDbBlockBegin
  2
*D8
 70
     1
 10
0.0
 20
0.0
 30
0.0
  3
*D8
  1

  0
LINE
  5
2A2
330
13E
100
AcDbEntity
  8
0
 62
     0
370
    -2
100
AcDbLine
 10
16.77477219865812
 20
6.822984333959312
 30
0.0
 11
17.27477219865812
 21
6.82298433395931
 31
0.0
  0
LINE
  5
2A3
330
13E
100
AcDbEntity
  8
0
 62
     0
370
    -2
100
AcDbLine
 10
17.27477219865812
 20
6.82298433395931
 30
0.0
 11
18.55883753729477
 21
5.665174025207337
 31
0.0
  0
MTEXT
  5
2A4
330
13E
100
AcDbEntity
  8
0
 62
    40
100
AcDbMText
 10
16.41810553199144
 20
6.82298433395931
 30
0.0
 40
0.4
 41
0.0
 71
     5
 72
     1
  1
\A1;R1
 73
     1
 44
1.0
1001
ACAD
1000
MTEXTBEGIN
1070
    73
1070
     1
1070
    44
1040
1.0
1070
    74
1070
     0
1000
MTEXTEND
  0
INSERT
  5
2A5
330
13E
100
AcDbEntity
  8
0
 62
     0
370
    -2
100
AcDbBlockReference
  2
_Open30
 10
18.93017507458955
 20
5.330348050414688
 30
0.0
 41
0.5
 42
0.5
 43
0.5
 50
317.959792212602
  0
POINT
  5
2A6
330
13E
100
AcDbEntity
  8
Defpoints
 62
     0
100
AcDbPoint
 10
18.93017507458955
 20
5.330348050414688
 30
0.0
  0
POINT
  5
2A7
330
13E
100
AcDbEntity
  8
Defpoints
 62
     0
100
AcDbPoint
 10
18.18749999999998
 20
5.999999999999992
 30
0.0
  0
ENDBLK
  5
146
330
13E
100
AcDbEntity
  8
0
100
AcDbBlockEnd
  0
BLOCK
  5
169
330
165
100
AcDbEntity
  8
0
100
AcDbBlockBegin
  2
_Open30
 70
     0
 10
0.0
 20
0.0
 30
0.0
  3
_Open30
  1

  0
LINE
  5
166
330
165
100
AcDbEntity
  8
0
  6
ByBlock
 62
     0
370
    -2
100
AcDbLine
 10
-1.0
 20
0.26794919
 30
0.0
 11
0.0
 21
0.0
 31
0.0
  0
LINE
  5
167
330
165
100
AcDbEntity
  8
0
  6
ByBlock
 62
     0
370
    -2
100
AcDbLine
 10
0.0
 20
0.0
 30
0.0
 11
-1.0
 21
-0.26794919
 31
0.0
  0
LINE
  5
168
330
165
100
AcDbEntity
  8
0
  6
ByBlock
 62
     0
370
    -2
100
AcDbLine
 10
0.0
 20
0.0
 30
0.0
 11
-1.0
 21
0.0
 31
0.0
  0
ENDBLK
  5
16A
330
165
100
AcDbEntity
  8
0
100
AcDbBlockEnd
  0
ENDSEC
  0
SECTION
  2
ENTITIES
  0
LINE
  5
97
330
1F
100
AcDbEntity
  8
0
100
AcDbLine
 10
6.0
 20
5.0
 30
0.0
 11
18.1875
 21
5.0
 31
0.0
  0
LINE
  5
98
330
1F
100
AcDbEntity
  8
0
100
AcDbLine
 10
19.1875
 20
6.0
 30
0.0
 11
19.1875
 21
18.1875
 31
0.0
  0
LINE
  5
99
330
1F
100
AcDbEntity
  8
0
100
AcDbLine
 10
18.1875
 20
19.1875
 30
0.0
 11
6.0
 21
19.1875
 31
0.0
  0
LINE
  5
9A
102
{ACAD_REACTORS
330
F5
102
}
330
1F
100
AcDbEntity
  8
0
100
AcDbLine
 10
5.0
 20
18.1875
 30
0.0
 11
5.0
 21
6.0
 31
0.0
  0
ARC
  5
9B
102
{ACAD_REACTORS
330
F5
330
12A
102
}
330
1F
100
AcDbEntity
  8
0
100
AcDbCircle
 10
18.1875
 20
18.1875
 30
0.0
 40
1.0
100
AcDbArc
 50
0.0
 51
90.0
  0
ARC
  5
9E
102
{ACAD_REACTORS
330
14E
102
}
330
1F
100
AcDbEntity
  8
0
100
AcDbCircle
 10
18.1875
 20
6.0
 30
0.0
 40
1.0
100
AcDbArc
 50
270.0
 51
0.0
  0
ARC
  5
9F
102
{ACAD_REACTORS
330
DB
330
13C
102
}
330
1F
100
AcDbEntity
  8
0
100
AcDbCircle
 10
6.0
 20
6.0
 30
0.0
 40
1.0
100
AcDbArc
 50
180.0
 51
270.0
  0
ARC
  5
A0
102
{ACAD_REACTORS
330
DB
330
118
102
}
330
1F
100
AcDbEntity
  8
0
100
AcDbCircle
 10
6.0
 20
18.1875
 30
0.0
 40
1.0
100
AcDbArc
 50
90.0
 51
180.0
  0
MTEXT
  5
BB
102
{ACAD_XDICTIONARY
360
2DF
102
}
330
1F
100
AcDbEntity
  8
0
 62
   102
100
AcDbMText
 10
26.17645264448913
 20
12.74713204040404
 30
0.0
 40
0.6
 41
10.84193889324933
 71
     1
 72
     5
  1
{\C3;WELLS SINKWARE\PCMT1515-6 \PCUTOUT TEMPLATE}
 73
     1
 44
1.0
1001
ACAD
1000
MTEXTBEGIN
1070
    73
1070
     1
1070
    44
1040
1.0
1070
    74
1070
     0
1000
MTEXTEND
  0
LINE
  5
BC
330
1F
100
AcDbEntity
  8
0
 62
     1
100
AcDbLine
 10
12.09375
 20
20.21104927602994
 30
0.0
 11
12.09375
 21
19.1875
 31
0.0
  0
LINE
  5
BD
330
1F
100
AcDbEntity
  8
0
 62
     1
100
AcDbLine
 10
3.546906274216666
 20
12.09375
 30
0.0
 11
4.999999999999999
 21
12.09375
 31
0.0
  0
POINT
  5
BE
330
1F
100
AcDbEntity
  8
0
 62
     1
100
AcDbPoint
 10
12.09375
 20
12.09375
 30
0.0
  0
LINE
  5
BF
330
1F
100
AcDbEntity
  8
0
 62
     1
100
AcDbLine
 10
12.09375
 20
5.0
 30
0.0
 11
12.09375
 21
3.546989794304636
 31
0.0
  0
LINE
  5
C0
330
1F
100
AcDbEntity
  8
0
 62
     1
100
AcDbLine
 10
19.1875
 20
12.09375
 30
0.0
 11
20.90216835855108
 21
12.09375
 31
0.0
  0
DIMENSION
  5
C1
102
{ACAD_XDICTIONARY
360
D0
102
}
102
{ACAD_REACTORS
330
DB
102
}
330
1F
100
AcDbEntity
  8
0
 62
     3
100
AcDbDimension
  2
*D2
 10
2.871276520781408
 20
5.0
 30
0.0
 11
2.871276520781408
 21
12.09375
 31
0.0
 70
    32
 71
     5
 42
14.1875
  3
Standard
100
AcDbAlignedDimension
 13
6.0
 23
19.1875
 33
0.0
 14
6.0
 24
5.0
 34
0.0
 50
90.0
100
AcDbRotatedDimension
1001
ACAD
1000
DSTYLE
1002
{
1070
    41
1040
0.5
1070
   140
1040
0.4
1070
   173
1070
     1
1070
   178
1070
    40
1070
   279
1070
     1
1070
   288
1070
     1
1070
   344
1005
165
1002
}
  0
DIMENSION
  5
DC
102
{ACAD_XDICTIONARY
360
EA
102
}
102
{ACAD_REACTORS
330
F5
102
}
330
1F
100
AcDbEntity
  8
0
 62
     3
100
AcDbDimension
  2
*D3
 10
19.1875
 20
21.18136170859714
 30
0.0
 11
12.09375
 21
21.18136170859714
 31
0.0
 70
    32
 71
     5
 42
14.1875
  3
Standard
100
AcDbAlignedDimension
 13
5.0
 23
18.1875
 33
0.0
 14
19.1875
 24
18.1875
 34
0.0
100
AcDbRotatedDimension
1001
ACAD
1000
DSTYLE
1002
{
1070
    41
1040
0.5
1070
   140
1040
0.4
1070
   173
1070
     1
1070
   178
1070
    40
1070
   279
1070
     1
1070
   288
1070
     1
1070
   344
1005
165
1002
}
  0
MTEXT
  5
FD
330
1F
100
AcDbEntity
  8
0
 62
     0
100
AcDbMText
 10
25.67226426925993
 20
26.14851191437072
 30
0.0
 40
0.3
 41
19.72906054821556
 71
     1
 72
     5
  3
{\H2x;\C4;Notes: \P1. WELLS recommends that Wells Sinkware top-mount sinks be installed by professional countertop fabricators/installers. \P2. The template is only a guide. It's important that you check the template provided with your sink against t
  1
he sink (to assure that template agrees with sink) before cutting the counter top.}
 73
     1
 44
1.0
1001
ACAD
1000
MTEXTBEGIN
1070
    73
1070
     1
1070
    44
1040
1.0
1070
    74
1070
     0
1000
MTEXTEND
  0
MTEXT
  5
106
330
1F
100
AcDbEntity
  8
0
 62
   102
100
AcDbMText
 10
26.17645264448913
 20
1.954482393697503
 30
0.0
 40
0.4
 41
4.612221064239861
 71
     1
 72
     5
  1
{\C3;UNIT: INCH}
 73
     1
 44
1.0
1001
ACAD
1000
MTEXTBEGIN
1070
    73
1070
     1
1070
    44
1040
1.0
1070
    74
1070
     0
1000
MTEXTEND
  0
DIMENSION
  5
107
102
{ACAD_XDICTIONARY
360
111
102
}
102
{ACAD_REACTORS
330
118
102
}
330
1F
100
AcDbEntity
  8
0
 62
     3
100
AcDbDimension
  2
*D5
 10
6.000000000000006
 20
18.18750000000001
 30
0.0
 11
6.844181612025082
 21
17.56284375473877
 31
0.0
 70
   164
 71
     5
 42
1.000000000000002
  3
Standard
100
AcDbRadialDimension
 15
5.196140731741099
 25
18.78231953299658
 35
0.0
 40
0.0
1001
ACAD
1000
DSTYLE
1002
{
1070
   140
1040
0.4
1070
   178
1070
    40
1070
    41
1040
0.5
1070
   344
1005
165
1070
   173
1070
     1
1070
   279
1070
     1
1070
   288
1070
     1
1002
}
  0
DIMENSION
  5
119
102
{ACAD_XDICTIONARY
360
123
102
}
102
{ACAD_REACTORS
330
12A
102
}
330
1F
100
AcDbEntity
  8
0
 62
     3
100
AcDbDimension
  2
*D6
 10
18.18750000000002
 20
18.18750000000003
 30
0.0
 11
17.1151209637296
 21
17.29700561124753
 31
0.0
 70
   164
 71
     5
 42
0.9999999999999642
  3
Standard
100
AcDbRadialDimension
 15
18.95683320905063
 25
18.82634772321098
 35
0.0
 40
0.0
1001
ACAD
1000
DSTYLE
1002
{
1070
    41
1040
0.5
1070
   140
1040
0.4
1070
   173
1070
     1
1070
   178
1070
    40
1070
   279
1070
     1
1070
   288
1070
     1
1070
   344
1005
165
1002
}
  0
DIMENSION
  5
12B
102
{ACAD_XDICTIONARY
360
135
102
}
102
{ACAD_REACTORS
330
13C
102
}
330
1F
100
AcDbEntity
  8
0
 62
     3
100
AcDbDimension
  2
*D7
 10
6.000000000000007
 20
6.000000000000002
 30
0.0
 11
7.05705063408233
 21
6.929319703946132
 31
0.0
 70
   164
 71
     5
 42
1.000000000000007
  3
Standard
100
AcDbRadialDimension
 15
5.248974777164258
 25
5.339726484959056
 35
0.0
 40
0.0
1001
ACAD
1000
DSTYLE
1002
{
1070
    41
1040
0.5
1070
   140
1040
0.4
1070
   173
1070
     1
1070
   178
1070
    40
1070
   279
1070
     1
1070
   288
1070
     1
1070
   344
1005
165
1002
}
  0
DIMENSION
  5
13D
102
{ACAD_XDICTIONARY
360
147
102
}
102
{ACAD_REACTORS
330
14E
102
}
330
1F
100
AcDbEntity
  8
0
 62
     3
100
AcDbDimension
  2
*D8
 10
18.18749999999998
 20
5.999999999999992
 30
0.0
 11
17.27477219865812
 21
6.82298433395931
 31
0.0
 70
   164
 71
     5
 42
1.000000000000009
  3
Standard
100
AcDbRadialDimension
 15
18.93017507458955
 25
5.330348050414688
 35
0.0
 40
0.0
1001
ACAD
1000
DSTYLE
1002
{
1070
    41
1040
0.5
1070
   140
1040
0.4
1070
   173
1070
     1
1070
   178
1070
    40
1070
   279
1070
     1
1070
   288
1070
     1
1070
   344
1005
165
1002
}
  0
MTEXT
  5
158
330
1F
100
AcDbEntity
  8
0
 62
   102
100
AcDbMText
 10
12.16591141637025
 20
11.21055613580608
 30
0.0
 40
0.4
 41
5.709999999999999
 71
     1
 72
     5
  1
{\C1;(0. 0)}
 73
     1
 44
1.0
1001
ACAD
1000
MTEXTBEGIN
1070
    73
1070
     1
1070
    44
1040
1.0
1070
    74
1070
     0
1000
MTEXTEND
  0
ENDSEC
  0
SECTION
  2
OBJECTS
  0
DICTIONARY
  5
C
330
0
100
AcDbDictionary
281
     1
  3
ACAD_COLOR
350
73
  3
ACAD_GROUP
350
D
  3
ACAD_LAYOUT
350
1A
  3
ACAD_MATERIAL
350
72
  3
ACAD_MLINESTYLE
350
17
  3
ACAD_PLOTSETTINGS
350
19
  3
ACAD_PLOTSTYLENAME
350
E
  3
ACAD_TABLESTYLE
350
8C
  3
ACDBHEADERROUNDTRIPXREC
350
2D6
  3
AcDbVariableDictionary
350
66
  0
DICTIONARY
  5
AC
330
2
100
AcDbDictionary
280
     1
281
     1
  3
ACAD_LAYERSTATES
360
AD
  0
DICTIONARY
  5
9C
330
1F
100
AcDbDictionary
280
     1
281
     1
  3
ACAD_SORTENTS
360
9D
  0
DICTIONARY
  5
B0
330
AE
100
AcDbDictionary
280
     1
281
     1
  3
ACAD_SORTENTS
360
B1
  0
DICTIONARY
  5
F8
330
F6
100
AcDbDictionary
280
     1
281
     1
  3
ACAD_SORTENTS
360
F9
  0
DICTIONARY
  5
2DD
330
AF
100
AcDbDictionary
280
     1
281
     1
  3
ACAD_MTEXT_RT
360
2DE
  0
DICTIONARY
  5
2DF
330
BB
100
AcDbDictionary
280
     1
281
     1
  3
ACAD_MTEXT_RT
360
2E0
  0
DICTIONARY
  5
D0
330
C1
100
AcDbDictionary
280
     1
281
     1
  3
ACAD_DIMASSOC
360
DB
  0
DICTIONARY
  5
EA
330
DC
100
AcDbDictionary
280
     1
281
     1
  3
ACAD_DIMASSOC
360
F5
  0
DICTIONARY
  5
111
330
107
100
AcDbDictionary
280
     1
281
     1
  3
ACAD_DIMASSOC
360
118
  0
DICTIONARY
  5
123
330
119
100
AcDbDictionary
280
     1
281
     1
  3
ACAD_DIMASSOC
360
12A
  0
DICTIONARY
  5
135
330
12B
100
AcDbDictionary
280
     1
281
     1
  3
ACAD_DIMASSOC
360
13C
  0
DICTIONARY
  5
147
330
13D
100
AcDbDictionary
280
     1
281
     1
  3
ACAD_DIMASSOC
360
14E
  0
DICTIONARY
  5
73
102
{ACAD_REACTORS
330
C
102
}
330
C
100
AcDbDictionary
281
     1
  0
DICTIONARY
  5
D
102
{ACAD_REACTORS
330
C
102
}
330
C
100
AcDbDictionary
281
     1
  0
DICTIONARY
  5
1A
102
{ACAD_REACTORS
330
C
102
}
330
C
100
AcDbDictionary
281
     1
  3
Model
350
22
  3
布局1
350
59
  3
布局2
350
5E
  0
DICTIONARY
  5
72
102
{ACAD_REACTORS
330
C
102
}
330
C
100
AcDbDictionary
281
     1
  0
DICTIONARY
  5
17
102
{ACAD_REACTORS
330
C
102
}
330
C
100
AcDbDictionary
281
     1
  3
Standard
350
18
  0
DICTIONARY
  5
19
102
{ACAD_REACTORS
330
C
102
}
330
C
100
AcDbDictionary
281
     1
  0
ACDBDICTIONARYWDFLT
  5
E
102
{ACAD_REACTORS
330
C
102
}
330
C
100
AcDbDictionary
281
     1
  3
Normal
350
F
100
AcDbDictionaryWithDefault
340
F
  0
DICTIONARY
  5
8C
102
{ACAD_REACTORS
330
C
102
}
330
C
100
AcDbDictionary
281
     1
  3
Standard
350
8D
  0
DICTIONARY
  5
2D6
102
{ACAD_REACTORS
330
C
102
}
330
C
100
AcDbDictionary
281
     1
  0
DICTIONARY
  5
66
102
{ACAD_REACTORS
330
C
102
}
330
C
100
AcDbDictionary
281
     1
  3
CTABLESTYLE
350
92
  3
DIMASSOC
350
67
  3
HIDETEXT
350
6B
  3
PROJECTNAME
350
A1
  0
DICTIONARY
  5
AD
102
{ACAD_REACTORS
330
AC
102
}
330
AC
100
AcDbDictionary
281
     1
  0
SORTENTSTABLE
  5
9D
102
{ACAD_REACTORS
330
9C
102
}
330
9C
100
AcDbSortentsTable
330
1F
331
C0
  5
BF
331
A0
  5
9E
331
9E
  5
98
331
BF
  5
BD
331
9A
  5
9F
331
BD
  5
BE
331
98
  5
99
331
BB
  5
BB
331
9F
  5
A0
331
BE
  5
C0
331
9B
  5
9A
331
BC
  5
BC
331
99
  5
9B
331
97
  5
97
  0
SORTENTSTABLE
  5
B1
102
{ACAD_REACTORS
330
B0
102
}
330
B0
100
AcDbSortentsTable
330
AE
  0
SORTENTSTABLE
  5
F9
102
{ACAD_REACTORS
330
F8
102
}
330
F8
100
AcDbSortentsTable
330
F6
  0
XRECORD
  5
2DE
102
{ACAD_REACTORS
330
2DD
102
}
330
2DD
100
AcDbXrecord
280
     1
 40
149516.0
  1
{\C3;WELLS SINKWARE^JCMU4721-979 (U107) \PREVEAL CUTOUT TEMPLATE}
  0
XRECORD
  5
2E0
102
{ACAD_REACTORS
330
2DF
102
}
330
2DF
100
AcDbXrecord
280
     1
 40
89578.0
  1
{\C3;WELLS SINKWARE^JCMT1515-6 \PCUTOUT TEMPLATE}
  0
DIMASSOC
  5
DB
102
{ACAD_REACTORS
330
D0
102
}
330
D0
100
AcDbDimAssoc
330
C1
 90
        3
 70
     0
 71
     0
  1
AcDbOsnapPointRef
 72
    13
331
A0
 73
     2
 91
        0
 40
1.570796326794896
 10
0.0
 20
0.0
 30
2.000000000000000E+50
 75
     0
  1
AcDbOsnapPointRef
 72
     1
331
9F
 73
     2
 91
        0
 40
4.712388980384688
 10
0.0
 20
0.0
 30
2.000000000000000E+50
 75
     0
  0
DIMASSOC
  5
F5
102
{ACAD_REACTORS
330
EA
102
}
330
EA
100
AcDbDimAssoc
330
DC
 90
        3
 70
     0
 71
     0
  1
AcDbOsnapPointRef
 72
    13
331
9A
 73
     2
 91
        0
 40
0.0
 10
0.0
 20
0.0
 30
2.000000000000000E+50
 75
     0
  1
AcDbOsnapPointRef
 72
    13
331
9B
 73
     2
 91
        0
 40
0.0
 10
0.0
 20
0.0
 30
2.000000000000000E+50
 75
     0
  0
DIMASSOC
  5
118
102
{ACAD_REACTORS
330
111
102
}
330
111
100
AcDbDimAssoc
330
107
 90
        2
 70
     0
 71
     0
  1
AcDbOsnapPointRef
 72
     3
331
A0
 73
     2
 91
        0
 40
0.0
 10
0.0
 20
0.0
 30
0.0
 75
     0
  0
DIMASSOC
  5
12A
102
{ACAD_REACTORS
330
123
102
}
330
123
100
AcDbDimAssoc
330
119
 90
        2
 70
     0
 71
     0
  1
AcDbOsnapPointRef
 72
     3
331
9B
 73
     2
 91
        0
 40
0.0
 10
0.0
 20
0.0
 30
0.0
 75
     0
  0
DIMASSOC
  5
13C
102
{ACAD_REACTORS
330
135
102
}
330
135
100
AcDbDimAssoc
330
12B
 90
        2
 70
     0
 71
     0
  1
AcDbOsnapPointRef
 72
     3
331
9F
 73
     2
 91
        0
 40
0.0
 10
0.0
 20
0.0
 30
0.0
 75
     0
  0
DIMASSOC
  5
14E
102
{ACAD_REACTORS
330
147
102
}
330
147
100
AcDbDimAssoc
330
13D
 90
        2
 70
     0
 71
     0
  1
AcDbOsnapPointRef
 72
     3
331
9E
 73
     2
 91
        0
 40
0.0
 10
0.0
 20
0.0
 30
0.0
 75
     0
  0
LAYOUT
  5
22
102
{ACAD_XDICTIONARY
360
2D7
102
}
102
{ACAD_REACTORS
330
1A
102
}
330
1A
100
AcDbPlotSettings
  1

  2
none_device
  4
ANSI_A_(8.50_x_11.00_Inches)
  6

 40
6.349999904632567
 41
19.04999923706055
 42
6.350006103515625
 43
19.04998779296875
 44
215.8999938964844
 45
279.3999938964844
 46
0.0
 47
0.0
 48
0.0
 49
0.0
140
0.0
141
0.0
142
1.0
143
2.584895464708373
 70
 11952
 72
     0
 73
     1
 74
     0
  7

 75
     0
147
0.3868628397755418
148
0.0
149
0.0
100
AcDbLayout
  1
Model
 70
     1
 71
     0
 10
0.0
 20
0.0
 11
12.0
 21
9.0
 12
0.0
 22
0.0
 32
0.0
 14
0.0
 24
0.0
 34
0.0
 15
0.0
 25
0.0
 35
0.0
146
0.0
 13
0.0
 23
0.0
 33
0.0
 16
1.0
 26
0.0
 36
0.0
 17
0.0
 27
1.0
 37
0.0
 76
     0
330
1F
  0
LAYOUT
  5
59
102
{ACAD_XDICTIONARY
360
2D9
102
}
102
{ACAD_REACTORS
330
1A
102
}
330
1A
100
AcDbPlotSettings
  1

  2
None
  4

  6

 40
0.0
 41
0.0
 42
0.0
 43
0.0
 44
0.0
 45
0.0
 46
0.0
 47
0.0
 48
0.0
 49
0.0
140
0.0
141
0.0
142
1.0
143
1.0
 70
   688
 72
     0
 73
     0
 74
     5
  7

 75
    16
147
1.0
148
0.0
149
0.0
100
AcDbLayout
  1
布局1
 70
     1
 71
     1
 10
0.0
 20
0.0
 11
12.0
 21
9.0
 12
0.0
 22
0.0
 32
0.0
 14
0.0
 24
0.0
 34
0.0
 15
0.0
 25
0.0
 35
0.0
146
0.0
 13
0.0
 23
0.0
 33
0.0
 16
1.0
 26
0.0
 36
0.0
 17
0.0
 27
1.0
 37
0.0
 76
     0
330
58
  0
LAYOUT
  5
5E
102
{ACAD_XDICTIONARY
360
2DB
102
}
102
{ACAD_REACTORS
330
1A
102
}
330
1A
100
AcDbPlotSettings
  1

  2
None
  4

  6

 40
0.0
 41
0.0
 42
0.0
 43
0.0
 44
0.0
 45
0.0
 46
0.0
 47
0.0
 48
0.0
 49
0.0
140
0.0
141
0.0
142
1.0
143
1.0
 70
   688
 72
     0
 73
     0
 74
     5
  7

 75
    16
147
1.0
148
0.0
149
0.0
100
AcDbLayout
  1
布局2
 70
     1
 71
     2
 10
0.0
 20
0.0
 11
12.0
 21
9.0
 12
0.0
 22
0.0
 32
0.0
 14
0.0
 24
0.0
 34
0.0
 15
0.0
 25
0.0
 35
0.0
146
0.0
 13
0.0
 23
0.0
 33
0.0
 16
1.0
 26
0.0
 36
0.0
 17
0.0
 27
1.0
 37
0.0
 76
     0
330
5D
  0
MLINESTYLE
  5
18
102
{ACAD_REACTORS
330
17
102
}
330
17
100
AcDbMlineStyle
  2
STANDARD
 70
     0
  3

 62
   256
 51
90.0
 52
90.0
 71
     2
 49
0.5
 62
   256
  6
BYLAYER
 49
-0.5
 62
   256
  6
BYLAYER
  0
ACDBPLACEHOLDER
  5
F
102
{ACAD_REACTORS
330
E
102
}
330
E
  0
TABLESTYLE
  5
8D
102
{ACAD_REACTORS
330
8C
102
}
330
8C
100
AcDbTableStyle
  3
Standard
 70
     0
 71
     0
 40
0.06
 41
0.06
280
     0
281
     0
  7
Standard
140
0.18
170
     2
 62
     0
 63
     7
283
     0
274
    -2
284
     1
 64
     0
275
    -2
285
     1
 65
     0
276
    -2
286
     1
 66
     0
277
    -2
287
     1
 67
     0
278
    -2
288
     1
 68
     0
279
    -2
289
     1
 69
     0
  7
Standard
140
0.25
170
     5
 62
     0
 63
     7
283
     0
274
    -2
284
     1
 64
     0
275
    -2
285
     1
 65
     0
276
    -2
286
     1
 66
     0
277
    -2
287
     1
 67
     0
278
    -2
288
     1
 68
     0
279
    -2
289
     1
 69
     0
  7
Standard
140
0.18
170
     5
 62
     0
 63
     7
283
     0
274
    -2
284
     1
 64
     0
275
    -2
285
     1
 65
     0
276
    -2
286
     1
 66
     0
277
    -2
287
     1
 67
     0
278
    -2
288
     1
 68
     0
279
    -2
289
     1
 69
     0
  0
DICTIONARYVAR
  5
92
102
{ACAD_REACTORS
330
66
102
}
330
66
100
DictionaryVariables
280
     0
  1
STANDARD
  0
DICTIONARYVAR
  5
67
102
{ACAD_REACTORS
330
66
102
}
330
66
100
DictionaryVariables
280
     0
  1
2
  0
DICTIONARYVAR
  5
6B
102
{ACAD_REACTORS
330
66
102
}
330
66
100
DictionaryVariables
280
     0
  1
1
  0
DICTIONARYVAR
  5
A1
102
{ACAD_REACTORS
330
66
102
}
330
66
100
DictionaryVariables
280
     0
  1

  0
DICTIONARY
  5
2D7
330
22
100
AcDbDictionary
280
     1
281
     1
  3
ACAD_XREC_ROUNDTRIP
360
2D8
  0
DICTIONARY
  5
2D9
330
59
100
AcDbDictionary
280
     1
281
     1
  3
ACAD_XREC_ROUNDTRIP
360
2DA
  0
DICTIONARY
  5
2DB
330
5E
100
AcDbDictionary
280
     1
281
     1
  3
ACAD_XREC_ROUNDTRIP
360
2DC
  0
XRECORD
  5
2D8
102
{ACAD_REACTORS
330
2D7
102
}
330
2D7
100
AcDbXrecord
280
     1
102
SHADEPLOT
 70
     0
102
SHADEPLOTRESLEVEL
 70
     2
102
SHADEPLOTCUSTOMDPI
 70
   300
  0
XRECORD
  5
2DA
102
{ACAD_REACTORS
330
2D9
102
}
330
2D9
100
AcDbXrecord
280
     1
102
SHADEPLOT
 70
     0
102
SHADEPLOTRESLEVEL
 70
     2
102
SHADEPLOTCUSTOMDPI
 70
   300
  0
XRECORD
  5
2DC
102
{ACAD_REACTORS
330
2DB
102
}
330
2DB
100
AcDbXrecord
280
     1
102
SHADEPLOT
 70
     0
102
SHADEPLOTRESLEVEL
 70
     2
102
SHADEPLOTCUSTOMDPI
 70
   300
  0
ENDSEC
  0
EOF
