  0
SECTION
  2
HEADER
  9
$ACADVER
  1
AC1015
  9
$ACADMAINTVER
 70
    20
  9
$DWGCODEPAGE
  3
ANSI_936
  9
$INSBASE
 10
0.0
 20
0.0
 30
0.0
  9
$EXTMIN
 10
-4040.79181012715
 20
-29.66666666666667
 30
0.0
  9
$EXTMAX
 10
87.56249999999999
 20
5889.457678142384
 30
0.0
  9
$LIMMIN
 10
0.0
 20
0.0
  9
$LIMMAX
 10
12.0
 20
9.0
  9
$ORTHOMODE
 70
     1
  9
$REGENMODE
 70
     1
  9
$FILLMODE
 70
     1
  9
$QTEXTMODE
 70
     0
  9
$MIRRTEXT
 70
     0
  9
$LTSCALE
 40
1.0
  9
$ATTMODE
 70
     1
  9
$TEXTSIZE
 40
0.2
  9
$TRACEWID
 40
0.05
  9
$TEXTSTYLE
  7
Standard
  9
$CLAYER
  8
0
  9
$CELTYPE
  6
ByLayer
  9
$CECOLOR
 62
   256
  9
$CELTSCALE
 40
1.0
  9
$DISPSILH
 70
     0
  9
$DIMSCALE
 40
1.0
  9
$DIMASZ
 40
0.18
  9
$DIMEXO
 40
0.0625
  9
$DIMDLI
 40
0.38
  9
$DIMRND
 40
0.0
  9
$DIMDLE
 40
0.0
  9
$DIMEXE
 40
0.18
  9
$DIMTP
 40
0.0
  9
$DIMTM
 40
0.0
  9
$DIMTXT
 40
0.18
  9
$DIMCEN
 40
0.09
  9
$DIMTSZ
 40
0.0
  9
$DIMTOL
 70
     0
  9
$DIMLIM
 70
     0
  9
$DIMTIH
 70
     1
  9
$DIMTOH
 70
     1
  9
$DIMSE1
 70
     0
  9
$DIMSE2
 70
     0
  9
$DIMTAD
 70
     0
  9
$DIMZIN
 70
     0
  9
$DIMBLK
  1

  9
$DIMASO
 70
     1
  9
$DIMSHO
 70
     1
  9
$DIMPOST
  1

  9
$DIMAPOST
  1

  9
$DIMALT
 70
     0
  9
$DIMALTD
 70
     2
  9
$DIMALTF
 40
25.4
  9
$DIMLFAC
 40
1.0
  9
$DIMTOFL
 70
     0
  9
$DIMTVP
 40
0.0
  9
$DIMTIX
 70
     0
  9
$DIMSOXD
 70
     0
  9
$DIMSAH
 70
     0
  9
$DIMBLK1
  1

  9
$DIMBLK2
  1

  9
$DIMSTYLE
  2
Standard
  9
$DIMCLRD
 70
     0
  9
$DIMCLRE
 70
     0
  9
$DIMCLRT
 70
     0
  9
$DIMTFAC
 40
1.0
  9
$DIMGAP
 40
0.09
  9
$DIMJUST
 70
     0
  9
$DIMSD1
 70
     0
  9
$DIMSD2
 70
     0
  9
$DIMTOLJ
 70
     1
  9
$DIMTZIN
 70
     0
  9
$DIMALTZ
 70
     0
  9
$DIMALTTZ
 70
     0
  9
$DIMUPT
 70
     0
  9
$DIMDEC
 70
     4
  9
$DIMTDEC
 70
     4
  9
$DIMALTU
 70
     2
  9
$DIMALTTD
 70
     2
  9
$DIMTXSTY
  7
Standard
  9
$DIMAUNIT
 70
     0
  9
$DIMADEC
 70
     0
  9
$DIMALTRND
 40
0.0
  9
$DIMAZIN
 70
     0
  9
$DIMDSEP
 70
    46
  9
$DIMATFIT
 70
     3
  9
$DIMFRAC
 70
     0
  9
$DIMLDRBLK
  1

  9
$DIMLUNIT
 70
     2
  9
$DIMLWD
 70
    -2
  9
$DIMLWE
 70
    -2
  9
$DIMTMOVE
 70
     0
  9
$LUNITS
 70
     2
  9
$LUPREC
 70
     4
  9
$SKETCHINC
 40
0.1
  9
$FILLETRAD
 40
1.25
  9
$AUNITS
 70
     0
  9
$AUPREC
 70
     0
  9
$MENU
  1
.
  9
$ELEVATION
 40
0.0
  9
$PELEVATION
 40
0.0
  9
$THICKNESS
 40
0.0
  9
$LIMCHECK
 70
     0
  9
$CHAMFERA
 40
0.0
  9
$CHAMFERB
 40
0.0
  9
$CHAMFERC
 40
0.0
  9
$CHAMFERD
 40
0.0
  9
$SKPOLY
 70
     0
  9
$TDCREATE
 40
2454733.488475475
  9
$TDUCREATE
 40
2454733.696808808
  9
$TDUPDATE
 40
2454741.570898554
  9
$TDUUPDATE
 40
2454741.779231886
  9
$TDINDWG
 40
0.0389586921
  9
$TDUSRTIMER
 40
0.0389552546
  9
$USRTIMER
 70
     1
  9
$ANGBASE
 50
0.0
  9
$ANGDIR
 70
     0
  9
$PDMODE
 70
     0
  9
$PDSIZE
 40
0.0
  9
$PLINEWID
 40
0.0
  9
$SPLFRAME
 70
     0
  9
$SPLINETYPE
 70
     6
  9
$SPLINESEGS
 70
     8
  9
$HANDSEED
  5
5DF
  9
$SURFTAB1
 70
     6
  9
$SURFTAB2
 70
     6
  9
$SURFTYPE
 70
     6
  9
$SURFU
 70
     6
  9
$SURFV
 70
     6
  9
$UCSBASE
  2

  9
$UCSNAME
  2

  9
$UCSORG
 10
0.0
 20
0.0
 30
0.0
  9
$UCSXDIR
 10
1.0
 20
0.0
 30
0.0
  9
$UCSYDIR
 10
0.0
 20
1.0
 30
0.0
  9
$UCSORTHOREF
  2

  9
$UCSORTHOVIEW
 70
     0
  9
$UCSORGTOP
 10
0.0
 20
0.0
 30
0.0
  9
$UCSORGBOTTOM
 10
0.0
 20
0.0
 30
0.0
  9
$UCSORGLEFT
 10
0.0
 20
0.0
 30
0.0
  9
$UCSORGRIGHT
 10
0.0
 20
0.0
 30
0.0
  9
$UCSORGFRONT
 10
0.0
 20
0.0
 30
0.0
  9
$UCSORGBACK
 10
0.0
 20
0.0
 30
0.0
  9
$PUCSBASE
  2

  9
$PUCSNAME
  2

  9
$PUCSORG
 10
0.0
 20
0.0
 30
0.0
  9
$PUCSXDIR
 10
1.0
 20
0.0
 30
0.0
  9
$PUCSYDIR
 10
0.0
 20
1.0
 30
0.0
  9
$PUCSORTHOREF
  2

  9
$PUCSORTHOVIEW
 70
     0
  9
$PUCSORGTOP
 10
0.0
 20
0.0
 30
0.0
  9
$PUCSORGBOTTOM
 10
0.0
 20
0.0
 30
0.0
  9
$PUCSORGLEFT
 10
0.0
 20
0.0
 30
0.0
  9
$PUCSORGRIGHT
 10
0.0
 20
0.0
 30
0.0
  9
$PUCSORGFRONT
 10
0.0
 20
0.0
 30
0.0
  9
$PUCSORGBACK
 10
0.0
 20
0.0
 30
0.0
  9
$USERI1
 70
     0
  9
$USERI2
 70
     0
  9
$USERI3
 70
     0
  9
$USERI4
 70
     0
  9
$USERI5
 70
     0
  9
$USERR1
 40
0.0
  9
$USERR2
 40
0.0
  9
$USERR3
 40
0.0
  9
$USERR4
 40
0.0
  9
$USERR5
 40
0.0
  9
$WORLDVIEW
 70
     1
  9
$SHADEDGE
 70
     3
  9
$SHADEDIF
 70
    70
  9
$TILEMODE
 70
     1
  9
$MAXACTVP
 70
    64
  9
$PINSBASE
 10
0.0
 20
0.0
 30
0.0
  9
$PLIMCHECK
 70
     0
  9
$PEXTMIN
 10
0.0
 20
0.0
 30
0.0
  9
$PEXTMAX
 10
0.0
 20
0.0
 30
0.0
  9
$PLIMMIN
 10
0.0
 20
0.0
  9
$PLIMMAX
 10
12.0
 20
9.0
  9
$UNITMODE
 70
     0
  9
$VISRETAIN
 70
     1
  9
$PLINEGEN
 70
     0
  9
$PSLTSCALE
 70
     1
  9
$TREEDEPTH
 70
  3020
  9
$CMLSTYLE
  2
Standard
  9
$CMLJUST
 70
     0
  9
$CMLSCALE
 40
1.0
  9
$PROXYGRAPHICS
 70
     1
  9
$MEASUREMENT
 70
     0
  9
$CELWEIGHT
370
    -1
  9
$ENDCAPS
280
     0
  9
$JOINSTYLE
280
     0
  9
$LWDISPLAY
290
     0
  9
$INSUNITS
 70
     1
  9
$HYPERLINKBASE
  1

  9
$STYLESHEET
  1

  9
$XEDIT
290
     1
  9
$CEPSNTYPE
380
     0
  9
$PSTYLEMODE
290
     1
  9
$FINGERPRINTGUID
  2
{59F4097A-3369-4E63-B457-810B26A0C64B}
  9
$VERSIONGUID
  2
{26A763C4-543F-416B-9900-2A06758213FC}
  9
$EXTNAMES
290
     1
  9
$PSVPSCALE
 40
0.0
  9
$OLESTARTUP
290
     0
  0
ENDSEC
  0
SECTION
  2
CLASSES
  0
CLASS
  1
ACDBDICTIONARYWDFLT
  2
AcDbDictionaryWithDefault
  3
ObjectDBX Classes
 90
        0
280
     0
281
     0
  0
CLASS
  1
ACDBPLACEHOLDER
  2
AcDbPlaceHolder
  3
ObjectDBX Classes
 90
        0
280
     0
281
     0
  0
CLASS
  1
LAYOUT
  2
AcDbLayout
  3
ObjectDBX Classes
 90
        0
280
     0
281
     0
  0
CLASS
  1
DICTIONARYVAR
  2
AcDbDictionaryVar
  3
ObjectDBX Classes
 90
        0
280
     0
281
     0
  0
CLASS
  1
TABLESTYLE
  2
AcDbTableStyle
  3
ObjectDBX Classes
 90
     2047
280
     0
281
     0
  0
CLASS
  1
SORTENTSTABLE
  2
AcDbSortentsTable
  3
ObjectDBX Classes
 90
        0
280
     0
281
     0
  0
CLASS
  1
DIMASSOC
  2
AcDbDimAssoc
  3
"AcDbDimAssoc|Product Desc:     AcDim ARX App For Dimension|Company:          Autodesk, Inc.|WEB Address:      www.autodesk.com"
 90
        0
280
     0
281
     0
  0
ENDSEC
  0
SECTION
  2
TABLES
  0
TABLE
  2
VPORT
  5
8
330
0
100
AcDbSymbolTable
 70
     7
  0
VPORT
  5
5D7
330
8
100
AcDbSymbolTableRecord
100
AcDbViewportTableRecord
  2
*Active
 70
     0
 10
0.0
 20
0.0
 11
1.0
 21
1.0
 12
31.85963661493339
 22
22.40891180901018
 13
0.0
 23
0.0
 14
0.5
 24
0.5
 15
0.5
 25
0.5
 16
0.0
 26
0.0
 36
1.0
 17
0.0
 27
0.0
 37
0.0
 40
28.84522004926788
 41
1.888667992047713
 42
50.0
 43
0.0
 44
0.0
 50
0.0
 51
0.0
 71
     0
 72
  1000
 73
     1
 74
     3
 75
     0
 76
     0
 77
     0
 78
     0
281
     0
 65
     1
110
0.0
120
0.0
130
0.0
111
1.0
121
0.0
131
0.0
112
0.0
122
1.0
132
0.0
 79
     0
146
0.0
  0
ENDTAB
  0
TABLE
  2
LTYPE
  5
5
330
0
100
AcDbSymbolTable
 70
     1
  0
LTYPE
  5
14
330
5
100
AcDbSymbolTableRecord
100
AcDbLinetypeTableRecord
  2
ByBlock
 70
     0
  3

 72
    65
 73
     0
 40
0.0
  0
LTYPE
  5
15
330
5
100
AcDbSymbolTableRecord
100
AcDbLinetypeTableRecord
  2
ByLayer
 70
     0
  3

 72
    65
 73
     0
 40
0.0
  0
LTYPE
  5
16
330
5
100
AcDbSymbolTableRecord
100
AcDbLinetypeTableRecord
  2
Continuous
 70
     0
  3
Solid line
 72
    65
 73
     0
 40
0.0
  0
ENDTAB
  0
TABLE
  2
LAYER
  5
2
330
0
100
AcDbSymbolTable
 70
     2
  0
LAYER
  5
10
330
2
100
AcDbSymbolTableRecord
100
AcDbLayerTableRecord
  2
0
 70
     0
 62
     7
  6
Continuous
370
    -3
390
F
  0
LAYER
  5
AE
330
2
100
AcDbSymbolTableRecord
100
AcDbLayerTableRecord
  2
Defpoints
 70
     0
 62
     7
  6
Continuous
290
     0
370
    -3
390
F
  0
ENDTAB
  0
TABLE
  2
STYLE
  5
3
330
0
100
AcDbSymbolTable
 70
     1
  0
STYLE
  5
11
330
3
100
AcDbSymbolTableRecord
100
AcDbTextStyleTableRecord
  2
Standard
 70
     0
 40
0.0
 41
1.0
 50
0.0
 71
     0
 42
0.2
  3
txt
  4

  0
ENDTAB
  0
TABLE
  2
VIEW
  5
6
330
0
100
AcDbSymbolTable
 70
     0
  0
ENDTAB
  0
TABLE
  2
UCS
  5
7
330
0
100
AcDbSymbolTable
 70
     0
  0
ENDTAB
  0
TABLE
  2
APPID
  5
9
330
0
100
AcDbSymbolTable
 70
     2
  0
APPID
  5
12
330
9
100
AcDbSymbolTableRecord
100
AcDbRegAppTableRecord
  2
ACAD
 70
     0
  0
APPID
  5
1DA
330
9
100
AcDbSymbolTableRecord
100
AcDbRegAppTableRecord
  2
ACAD_DSTYLE_DIMTEXT_FILL
 70
     0
  0
ENDTAB
  0
TABLE
  2
DIMSTYLE
  5
A
330
0
100
AcDbSymbolTable
 70
     2
100
AcDbDimStyleTable
 71
     2
340
27
340
371
  0
DIMSTYLE
105
27
102
{ACAD_REACTORS
330
124
330
136
330
148
330
15A
330
392
330
3B6
102
}
330
A
100
AcDbSymbolTableRecord
100
AcDbDimStyleTableRecord
  2
Standard
 70
     0
340
11
  0
DIMSTYLE
105
371
330
A
100
AcDbSymbolTableRecord
100
AcDbDimStyleTableRecord
  2
ISO-25
 70
     0
 41
2.5
 42
0.625
 43
3.75
 44
1.25
 73
     0
 74
     0
 77
     1
 78
     8
140
2.5
141
2.5
143
0.03937007874016
147
0.625
171
     3
172
     1
271
     2
272
     2
274
     3
278
    44
283
     0
284
     8
340
11
  0
ENDTAB
  0
TABLE
  2
BLOCK_RECORD
  5
1
330
0
100
AcDbSymbolTable
 70
    16
  0
BLOCK_RECORD
  5
1F
102
{ACAD_XDICTIONARY
360
94
102
}
330
1
100
AcDbSymbolTableRecord
100
AcDbBlockTableRecord
  2
*Model_Space
340
22
  0
BLOCK_RECORD
  5
58
330
1
100
AcDbSymbolTableRecord
100
AcDbBlockTableRecord
  2
*Paper_Space
340
59
  0
BLOCK_RECORD
  5
5D
330
1
100
AcDbSymbolTableRecord
100
AcDbBlockTableRecord
  2
*Paper_Space0
340
5E
  0
BLOCK_RECORD
  5
AF
330
1
100
AcDbSymbolTableRecord
100
AcDbBlockTableRecord
  2
*D1
340
0
  0
BLOCK_RECORD
  5
CB
330
1
100
AcDbSymbolTableRecord
100
AcDbBlockTableRecord
  2
*D2
340
0
  0
BLOCK_RECORD
  5
DD
330
1
100
AcDbSymbolTableRecord
100
AcDbBlockTableRecord
  2
*D3
340
0
  0
BLOCK_RECORD
  5
F7
330
1
100
AcDbSymbolTableRecord
100
AcDbBlockTableRecord
  2
*D4
340
0
  0
BLOCK_RECORD
  5
125
330
1
100
AcDbSymbolTableRecord
100
AcDbBlockTableRecord
  2
*D5
340
0
  0
BLOCK_RECORD
  5
137
330
1
100
AcDbSymbolTableRecord
100
AcDbBlockTableRecord
  2
*D6
340
0
  0
BLOCK_RECORD
  5
149
330
1
100
AcDbSymbolTableRecord
100
AcDbBlockTableRecord
  2
*D7
340
0
  0
BLOCK_RECORD
  5
15B
330
1
100
AcDbSymbolTableRecord
100
AcDbBlockTableRecord
  2
*D8
340
0
  0
BLOCK_RECORD
  5
1A4
330
1
100
AcDbSymbolTableRecord
100
AcDbBlockTableRecord
  2
_Open30
340
0
102
{BLKREFS
331
30D
331
313
331
319
331
31F
102
}
  0
BLOCK_RECORD
  5
323
330
1
100
AcDbSymbolTableRecord
100
AcDbBlockTableRecord
  2
*D10
340
0
  0
BLOCK_RECORD
  5
347
330
1
100
AcDbSymbolTableRecord
100
AcDbBlockTableRecord
  2
*D11
340
0
  0
BLOCK_RECORD
  5
36C
330
1
100
AcDbSymbolTableRecord
100
AcDbBlockTableRecord
  2
_DOT
340
0
102
{BLKREFS
331
377
331
378
331
382
331
383
331
38C
331
38D
331
5A0
331
5A1
331
5AA
331
5AB
102
}
  0
BLOCK_RECORD
  5
393
330
1
100
AcDbSymbolTableRecord
100
AcDbBlockTableRecord
  2
*D14
340
0
  0
BLOCK_RECORD
  5
3B7
330
1
100
AcDbSymbolTableRecord
100
AcDbBlockTableRecord
  2
*D15
340
0
  0
ENDTAB
  0
ENDSEC
  0
SECTION
  2
BLOCKS
  0
BLOCK
  5
20
330
1F
100
AcDbEntity
  8
0
100
AcDbBlockBegin
  2
*Model_Space
 70
     0
 10
0.0
 20
0.0
 30
0.0
  3
*Model_Space
  1

  0
ENDBLK
  5
21
330
1F
100
AcDbEntity
  8
0
100
AcDbBlockEnd
  0
BLOCK
  5
5A
330
58
100
AcDbEntity
 67
     1
  8
0
100
AcDbBlockBegin
  2
*Paper_Space
 70
     0
 10
0.0
 20
0.0
 30
0.0
  3
*Paper_Space
  1

  0
ENDBLK
  5
5B
330
58
100
AcDbEntity
 67
     1
  8
0
100
AcDbBlockEnd
  0
BLOCK
  5
5F
330
5D
100
AcDbEntity
  8
0
100
AcDbBlockBegin
  2
*Paper_Space0
 70
     0
 10
0.0
 20
0.0
 30
0.0
  3
*Paper_Space0
  1

  0
ENDBLK
  5
60
330
5D
100
AcDbEntity
  8
0
100
AcDbBlockEnd
  0
BLOCK
  5
BA
330
AF
100
AcDbEntity
  8
0
100
AcDbBlockBegin
  2
*D1
 70
     1
 10
0.0
 20
0.0
 30
0.0
  3
*D1
  1

  0
LINE
  5
BD
330
AF
100
AcDbEntity
  8
0
 62
     0
370
    -2
100
AcDbLine
 10
19.25
 20
31.5
 30
0.0
 11
19.25
 21
26.58632485332602
 31
0.0
  0
LINE
  5
BE
330
AF
100
AcDbEntity
  8
0
 62
     0
370
    -2
100
AcDbLine
 10
11.25
 20
31.5
 30
0.0
 11
11.25
 21
26.58632485332602
 31
0.0
  0
LINE
  5
BF
330
AF
100
AcDbEntity
  8
0
 62
     0
370
    -2
100
AcDbLine
 10
19.07
 20
26.76632485332602
 30
0.0
 11
15.73
 21
26.76632485332602
 31
0.0
  0
LINE
  5
C0
330
AF
100
AcDbEntity
  8
0
 62
     0
370
    -2
100
AcDbLine
 10
11.43
 20
26.76632485332602
 30
0.0
 11
14.77
 21
26.76632485332602
 31
0.0
  0
SOLID
  5
C1
330
AF
100
AcDbEntity
  8
0
 62
     0
100
AcDbTrace
 10
19.07
 20
26.79632485332602
 30
0.0
 11
19.07
 21
26.73632485332602
 31
0.0
 12
19.25
 22
26.76632485332602
 32
0.0
 13
19.25
 23
26.76632485332602
 33
0.0
  0
SOLID
  5
C2
330
AF
100
AcDbEntity
  8
0
 62
     0
100
AcDbTrace
 10
11.43
 20
26.79632485332602
 30
0.0
 11
11.43
 21
26.73632485332602
 31
0.0
 12
11.25
 22
26.76632485332602
 32
0.0
 13
11.25
 23
26.76632485332602
 33
0.0
  0
MTEXT
  5
C3
330
AF
100
AcDbEntity
  8
0
 62
     0
100
AcDbMText
 10
15.25
 20
26.76632485332602
 30
0.0
 40
0.18
 41
0.0
 71
     5
 72
     1
  1
\A1;8.0000
 73
     1
 44
1.0
1001
ACAD
1000
MTEXTBEGIN
1070
    73
1070
     1
1070
    44
1040
1.0
1070
    74
1070
     0
1000
MTEXTEND
  0
POINT
  5
C4
330
AF
100
AcDbEntity
  8
Defpoints
 62
     0
100
AcDbPoint
 10
19.25
 20
31.5625
 30
0.0
  0
POINT
  5
C5
330
AF
100
AcDbEntity
  8
Defpoints
 62
     0
100
AcDbPoint
 10
11.25
 20
31.5625
 30
0.0
  0
POINT
  5
C6
330
AF
100
AcDbEntity
  8
Defpoints
 62
     0
100
AcDbPoint
 10
11.25
 20
26.76632485332602
 30
0.0
  0
ENDBLK
  5
BB
330
AF
100
AcDbEntity
  8
0
100
AcDbBlockEnd
  0
BLOCK
  5
D2
330
CB
100
AcDbEntity
  8
0
100
AcDbBlockBegin
  2
*D2
 70
     1
 10
0.0
 20
0.0
 30
0.0
  3
*D2
  1

  0
LINE
  5
D5
330
CB
100
AcDbEntity
  8
0
 62
     0
370
    -2
100
AcDbLine
 10
31.75258166827021
 20
28.32300709548075
 30
0.0
 11
31.9325816682702
 21
28.32300709548075
 31
0.0
  0
LINE
  5
D6
330
CB
100
AcDbEntity
  8
0
 62
     0
370
    -2
100
AcDbLine
 10
31.9325816682702
 20
28.32300709548075
 30
0.0
 11
33.92232433233949
 21
31.19171230865287
 31
0.0
  0
MTEXT
  5
D7
330
CB
100
AcDbEntity
  8
0
 62
     0
100
AcDbMText
 10
31.18258166827021
 20
28.32300709548075
 30
0.0
 40
0.18
 41
0.0
 71
     5
 72
     1
  1
\A1;R1.2500
 73
     1
 44
1.0
1001
ACAD
1000
MTEXTBEGIN
1070
    73
1070
     1
1070
    44
1040
1.0
1070
    74
1070
     0
1000
MTEXTEND
  0
SOLID
  5
D8
330
CB
100
AcDbEntity
  8
0
 62
     0
100
AcDbTrace
 10
33.89767351994735
 20
31.20881018712968
 30
0.0
 11
33.94697514473163
 21
31.17461443017606
 31
0.0
 12
34.02491160320034
 22
31.33961718300569
 32
0.0
 13
34.02491160320034
 23
31.33961718300569
 33
0.0
  0
POINT
  5
D9
330
CB
100
AcDbEntity
  8
Defpoints
 62
     0
100
AcDbPoint
 10
34.02491160320034
 20
31.33961718300569
 30
0.0
  0
POINT
  5
DA
330
CB
100
AcDbEntity
  8
Defpoints
 62
     0
100
AcDbPoint
 10
33.31250000000002
 20
30.31250000000002
 30
0.0
  0
ENDBLK
  5
D3
330
CB
100
AcDbEntity
  8
0
100
AcDbBlockEnd
  0
BLOCK
  5
E8
330
DD
100
AcDbEntity
  8
0
100
AcDbBlockBegin
  2
*D3
 70
     1
 10
0.0
 20
0.0
 30
0.0
  3
*D3
  1

  0
LINE
  5
EB
330
DD
100
AcDbEntity
  8
0
 62
     0
370
    -2
100
AcDbLine
 10
10.0
 20
11.3125
 30
0.0
 11
10.0
 21
15.08846009904889
 31
0.0
  0
LINE
  5
EC
330
DD
100
AcDbEntity
  8
0
 62
     0
370
    -2
100
AcDbLine
 10
34.5625
 20
11.3125
 30
0.0
 11
34.5625
 21
15.08846009904889
 31
0.0
  0
LINE
  5
ED
330
DD
100
AcDbEntity
  8
0
 62
     0
370
    -2
100
AcDbLine
 10
10.18
 20
14.90846009904888
 30
0.0
 11
21.65125
 21
14.90846009904888
 31
0.0
  0
LINE
  5
EE
330
DD
100
AcDbEntity
  8
0
 62
     0
370
    -2
100
AcDbLine
 10
34.3825
 20
14.90846009904888
 30
0.0
 11
22.91125
 21
14.90846009904888
 31
0.0
  0
SOLID
  5
EF
330
DD
100
AcDbEntity
  8
0
 62
     0
100
AcDbTrace
 10
10.18
 20
14.93846009904889
 30
0.0
 11
10.18
 21
14.87846009904889
 31
0.0
 12
10.0
 22
14.90846009904888
 32
0.0
 13
10.0
 23
14.90846009904888
 33
0.0
  0
SOLID
  5
F0
330
DD
100
AcDbEntity
  8
0
 62
     0
100
AcDbTrace
 10
34.3825
 20
14.93846009904889
 30
0.0
 11
34.3825
 21
14.87846009904889
 31
0.0
 12
34.5625
 22
14.90846009904888
 32
0.0
 13
34.5625
 23
14.90846009904888
 33
0.0
  0
MTEXT
  5
F1
330
DD
100
AcDbEntity
  8
0
 62
     0
100
AcDbMText
 10
22.28125
 20
14.90846009904888
 30
0.0
 40
0.18
 41
0.0
 71
     5
 72
     1
  1
\A1;24.5625
 73
     1
 44
1.0
1001
ACAD
1000
MTEXTBEGIN
1070
    73
1070
     1
1070
    44
1040
1.0
1070
    74
1070
     0
1000
MTEXTEND
  0
POINT
  5
F2
330
DD
100
AcDbEntity
  8
Defpoints
 62
     0
100
AcDbPoint
 10
10.0
 20
11.25
 30
0.0
  0
POINT
  5
F3
330
DD
100
AcDbEntity
  8
Defpoints
 62
     0
100
AcDbPoint
 10
34.5625
 20
11.25
 30
0.0
  0
POINT
  5
F4
330
DD
100
AcDbEntity
  8
Defpoints
 62
     0
100
AcDbPoint
 10
34.5625
 20
14.90846009904888
 30
0.0
  0
ENDBLK
  5
E9
330
DD
100
AcDbEntity
  8
0
100
AcDbBlockEnd
  0
BLOCK
  5
102
330
F7
100
AcDbEntity
  8
0
100
AcDbBlockBegin
  2
*D4
 70
     1
 10
0.0
 20
0.0
 30
0.0
  3
*D4
  1

  0
LINE
  5
105
330
F7
100
AcDbEntity
  8
0
 62
     0
370
    -2
100
AcDbLine
 10
33.375
 20
31.5625
 30
0.0
 11
39.32856286582572
 21
31.5625
 31
0.0
  0
LINE
  5
106
330
F7
100
AcDbEntity
  8
0
 62
     0
370
    -2
100
AcDbLine
 10
33.375
 20
10.0
 30
0.0
 11
39.32856286582571
 21
9.999999999999998
 31
0.0
  0
LINE
  5
107
330
F7
100
AcDbEntity
  8
0
 62
     0
370
    -2
100
AcDbLine
 10
39.14856286582572
 20
31.3825
 30
0.0
 11
39.14856286582572
 21
20.96125
 31
0.0
  0
LINE
  5
108
330
F7
100
AcDbEntity
  8
0
 62
     0
370
    -2
100
AcDbLine
 10
39.14856286582571
 20
10.18
 30
0.0
 11
39.14856286582572
 21
20.60125
 31
0.0
  0
SOLID
  5
109
330
F7
100
AcDbEntity
  8
0
 62
     0
100
AcDbTrace
 10
39.11856286582573
 20
31.3825
 30
0.0
 11
39.17856286582572
 21
31.3825
 31
0.0
 12
39.14856286582572
 22
31.5625
 32
0.0
 13
39.14856286582572
 23
31.5625
 33
0.0
  0
SOLID
  5
10A
330
F7
100
AcDbEntity
  8
0
 62
     0
100
AcDbTrace
 10
39.11856286582571
 20
10.18
 30
0.0
 11
39.17856286582571
 21
10.18
 31
0.0
 12
39.14856286582571
 22
9.999999999999998
 32
0.0
 13
39.14856286582571
 23
9.999999999999998
 33
0.0
  0
MTEXT
  5
10B
330
F7
100
AcDbEntity
  8
0
 62
     0
100
AcDbMText
 10
39.14856286582571
 20
20.78125
 30
0.0
 40
0.18
 41
0.0
 71
     5
 72
     1
  1
\A1;21.5625
 73
     1
 44
1.0
1001
ACAD
1000
MTEXTBEGIN
1070
    73
1070
     1
1070
    44
1040
1.0
1070
    74
1070
     0
1000
MTEXTEND
  0
POINT
  5
10C
330
F7
100
AcDbEntity
  8
Defpoints
 62
     0
100
AcDbPoint
 10
33.3125
 20
31.5625
 30
0.0
  0
POINT
  5
10D
330
F7
100
AcDbEntity
  8
Defpoints
 62
     0
100
AcDbPoint
 10
33.3125
 20
10.0
 30
0.0
  0
POINT
  5
10E
330
F7
100
AcDbEntity
  8
Defpoints
 62
     0
100
AcDbPoint
 10
39.14856286582571
 20
9.999999999999998
 30
0.0
  0
ENDBLK
  5
103
330
F7
100
AcDbEntity
  8
0
100
AcDbBlockEnd
  0
BLOCK
  5
12C
330
125
100
AcDbEntity
  8
0
100
AcDbBlockBegin
  2
*D5
 70
     1
 10
0.0
 20
0.0
 30
0.0
  3
*D5
  1

  0
LINE
  5
30A
330
125
100
AcDbEntity
  8
0
 62
     3
370
    -2
100
AcDbLine
 10
12.613003743183
 20
29.39379744830089
 30
0.0
 11
12.113003743183
 21
29.39379744830089
 31
0.0
  0
LINE
  5
30B
330
125
100
AcDbEntity
  8
0
 62
     3
370
    -2
100
AcDbLine
 10
12.113003743183
 20
29.39379744830089
 30
0.0
 11
10.73649968310046
 21
30.8591419527845
 31
0.0
  0
MTEXT
  5
30C
330
125
100
AcDbEntity
  8
0
 62
     3
100
AcDbMText
 10
13.28633707651633
 20
29.39379744830089
 30
0.0
 40
0.5
 41
0.0
 71
     5
 72
     1
  1
\A1;R1{\H1.000000x;\S1/4;}
 73
     1
 44
1.0
1001
ACAD
1000
MTEXTBEGIN
1070
    73
1070
     1
1070
    44
1040
1.0
1070
    74
1070
     0
1000
MTEXTEND
  0
INSERT
  5
30D
330
125
100
AcDbEntity
  8
0
 62
     3
370
    -2
100
AcDbBlockReference
  2
_Open30
 10
10.39416613850077
 20
31.22356992130751
 30
0.0
 41
0.5
 42
0.5
 43
0.5
 50
133.2094312239968
  0
POINT
  5
30E
330
125
100
AcDbEntity
  8
Defpoints
 62
     0
100
AcDbPoint
 10
10.39416613850077
 20
31.22356992130751
 30
0.0
  0
POINT
  5
30F
330
125
100
AcDbEntity
  8
Defpoints
 62
     0
100
AcDbPoint
 10
11.24999999999999
 20
30.31249999999999
 30
0.0
  0
ENDBLK
  5
12D
330
125
100
AcDbEntity
  8
0
100
AcDbBlockEnd
  0
BLOCK
  5
13E
330
137
100
AcDbEntity
  8
0
100
AcDbBlockBegin
  2
*D6
 70
     1
 10
0.0
 20
0.0
 30
0.0
  3
*D6
  1

  0
LINE
  5
310
330
137
100
AcDbEntity
  8
0
 62
     3
370
    -2
100
AcDbLine
 10
32.06856074405169
 20
29.45727131776063
 30
0.0
 11
32.56856074405169
 21
29.45727131776063
 31
0.0
  0
LINE
  5
311
330
137
100
AcDbEntity
  8
0
 62
     3
370
    -2
100
AcDbLine
 10
32.56856074405169
 20
29.45727131776063
 30
0.0
 11
33.80473279480051
 21
30.87836824943876
 31
0.0
  0
MTEXT
  5
312
330
137
100
AcDbEntity
  8
0
 62
     3
100
AcDbMText
 10
31.39522741071836
 20
29.45727131776063
 30
0.0
 40
0.5
 41
0.0
 71
     5
 72
     1
  1
\A1;R1{\H1.000000x;\S1/4;}
 73
     1
 44
1.0
1001
ACAD
1000
MTEXTBEGIN
1070
    73
1070
     1
1070
    44
1040
1.0
1070
    74
1070
     0
1000
MTEXTEND
  0
INSERT
  5
313
330
137
100
AcDbEntity
  8
0
 62
     3
370
    -2
100
AcDbBlockReference
  2
_Open30
 10
34.13288799133418
 20
31.25561374906459
 30
0.0
 41
0.5
 42
0.5
 43
0.5
 50
48.98091426575533
  0
POINT
  5
314
330
137
100
AcDbEntity
  8
Defpoints
 62
     0
100
AcDbPoint
 10
34.13288799133418
 20
31.25561374906459
 30
0.0
  0
POINT
  5
315
330
137
100
AcDbEntity
  8
Defpoints
 62
     0
100
AcDbPoint
 10
33.31250000000004
 20
30.31250000000005
 30
0.0
  0
ENDBLK
  5
13F
330
137
100
AcDbEntity
  8
0
100
AcDbBlockEnd
  0
BLOCK
  5
150
330
149
100
AcDbEntity
  8
0
100
AcDbBlockBegin
  2
*D7
 70
     1
 10
0.0
 20
0.0
 30
0.0
  3
*D7
  1

  0
LINE
  5
31C
330
149
100
AcDbEntity
  8
0
 62
     3
370
    -2
100
AcDbLine
 10
12.48595059135777
 20
11.93847267038071
 30
0.0
 11
11.98595059135776
 21
11.93847267038071
 31
0.0
  0
LINE
  5
31D
330
149
100
AcDbEntity
  8
0
 62
     3
370
    -2
100
AcDbLine
 10
11.98595059135776
 20
11.93847267038071
 30
0.0
 11
10.70229746546084
 21
10.73763105708934
 31
0.0
  0
MTEXT
  5
31E
330
149
100
AcDbEntity
  8
0
 62
     3
100
AcDbMText
 10
13.1592839246911
 20
11.93847267038071
 30
0.0
 40
0.5
 41
0.0
 71
     5
 72
     1
  1
\A1;R1{\H1.000000x;\S1/4;}
 73
     1
 44
1.0
1001
ACAD
1000
MTEXTBEGIN
1070
    73
1070
     1
1070
    44
1040
1.0
1070
    74
1070
     0
1000
MTEXTEND
  0
INSERT
  5
31F
330
149
100
AcDbEntity
  8
0
 62
     3
370
    -2
100
AcDbBlockReference
  2
_Open30
 10
10.33716244243474
 20
10.39605176181557
 30
0.0
 41
0.5
 42
0.5
 43
0.5
 50
223.0909622550936
  0
POINT
  5
320
330
149
100
AcDbEntity
  8
Defpoints
 62
     0
100
AcDbPoint
 10
10.33716244243474
 20
10.39605176181557
 30
0.0
  0
POINT
  5
321
330
149
100
AcDbEntity
  8
Defpoints
 62
     0
100
AcDbPoint
 10
11.24999999999999
 20
11.25
 30
0.0
  0
ENDBLK
  5
151
330
149
100
AcDbEntity
  8
0
100
AcDbBlockEnd
  0
BLOCK
  5
162
330
15B
100
AcDbEntity
  8
0
100
AcDbBlockBegin
  2
*D8
 70
     1
 10
0.0
 20
0.0
 30
0.0
  3
*D8
  1

  0
LINE
  5
316
330
15B
100
AcDbEntity
  8
0
 62
     3
370
    -2
100
AcDbLine
 10
32.0050342788873
 20
11.93847267038071
 30
0.0
 11
32.50503427888729
 21
11.93847267038071
 31
0.0
  0
LINE
  5
317
330
15B
100
AcDbEntity
  8
0
 62
     3
370
    -2
100
AcDbLine
 10
32.50503427888729
 20
11.93847267038071
 30
0.0
 11
33.88321203225336
 21
10.76339155757299
 31
0.0
  0
MTEXT
  5
318
330
15B
100
AcDbEntity
  8
0
 62
     3
100
AcDbMText
 10
31.33170094555396
 20
11.93847267038071
 30
0.0
 40
0.5
 41
0.0
 71
     5
 72
     1
  1
\A1;R1{\H1.000000x;\S1/4;}
 73
     1
 44
1.0
1001
ACAD
1000
MTEXTBEGIN
1070
    73
1070
     1
1070
    44
1040
1.0
1070
    74
1070
     0
1000
MTEXTEND
  0
INSERT
  5
319
330
15B
100
AcDbEntity
  8
0
 62
     3
370
    -2
100
AcDbBlockReference
  2
_Open30
 10
34.26368672042226
 20
10.43898592928831
 30
0.0
 41
0.5
 42
0.5
 43
0.5
 50
319.5479644395856
  0
POINT
  5
31A
330
15B
100
AcDbEntity
  8
Defpoints
 62
     0
100
AcDbPoint
 10
34.26368672042226
 20
10.43898592928831
 30
0.0
  0
POINT
  5
31B
330
15B
100
AcDbEntity
  8
Defpoints
 62
     0
100
AcDbPoint
 10
33.31250000000003
 20
11.24999999999999
 30
0.0
  0
ENDBLK
  5
163
330
15B
100
AcDbEntity
  8
0
100
AcDbBlockEnd
  0
BLOCK
  5
1A8
330
1A4
100
AcDbEntity
  8
0
100
AcDbBlockBegin
  2
_Open30
 70
     0
 10
0.0
 20
0.0
 30
0.0
  3
_Open30
  1

  0
LINE
  5
1A5
330
1A4
100
AcDbEntity
  8
0
  6
ByBlock
 62
     0
370
    -2
100
AcDbLine
 10
-1.0
 20
0.26794919
 30
0.0
 11
0.0
 21
0.0
 31
0.0
  0
LINE
  5
1A6
330
1A4
100
AcDbEntity
  8
0
  6
ByBlock
 62
     0
370
    -2
100
AcDbLine
 10
0.0
 20
0.0
 30
0.0
 11
-1.0
 21
-0.26794919
 31
0.0
  0
LINE
  5
1A7
330
1A4
100
AcDbEntity
  8
0
  6
ByBlock
 62
     0
370
    -2
100
AcDbLine
 10
0.0
 20
0.0
 30
0.0
 11
-1.0
 21
0.0
 31
0.0
  0
ENDBLK
  5
1A9
330
1A4
100
AcDbEntity
  8
0
100
AcDbBlockEnd
  0
BLOCK
  5
32E
330
323
100
AcDbEntity
  8
0
100
AcDbBlockBegin
  2
*D10
 70
     1
 10
0.0
 20
0.0
 30
0.0
  3
*D10
  1

  0
LINE
  5
37E
330
323
100
AcDbEntity
  8
0
 62
     0
370
    -2
100
AcDbLine
 10
10.0
 20
30.9375
 30
0.0
 11
10.0
 21
39.0
 31
0.0
  0
LINE
  5
37F
330
323
100
AcDbEntity
  8
0
 62
     0
370
    -2
100
AcDbLine
 10
34.5625
 20
30.9375
 30
0.0
 11
34.5625
 21
39.0
 31
0.0
  0
LINE
  5
380
330
323
100
AcDbEntity
  8
0
 62
     0
370
    -2
100
AcDbLine
 10
17.0
 20
34.0
 30
0.0
 11
27.5625
 21
34.0
 31
0.0
  0
LINE
  5
381
330
323
100
AcDbEntity
  8
0
 62
     0
370
    -2
100
AcDbLine
 10
34.5625
 20
34.0
 30
0.0
 11
87.56249999999999
 21
34.0
 31
0.0
  0
INSERT
  5
382
330
323
100
AcDbEntity
  8
0
 62
     0
370
    -2
100
AcDbBlockReference
  2
_DOT
 10
10.0
 20
34.0
 30
0.0
 41
7.0
 42
7.0
 43
7.0
 50
180.0
  0
INSERT
  5
383
330
323
100
AcDbEntity
  8
0
 62
     0
370
    -2
100
AcDbBlockReference
  2
_DOT
 10
34.5625
 20
34.0
 30
0.0
 41
7.0
 42
7.0
 43
7.0
  0
MTEXT
  5
384
330
323
100
AcDbEntity
  8
0
 62
    40
100
AcDbMText
 10
64.5625
 20
47.0
 30
0.0
 40
10.0
 41
0.0
 71
     5
 72
     1
  1
{\H1.000000x;\S15#16;}''
 73
     1
 44
1.0
1001
ACAD
1000
MTEXTBEGIN
1070
    73
1070
     1
1070
    44
1040
1.0
1070
    74
1070
     1
1000
MTEXTEND
  0
POINT
  5
385
330
323
100
AcDbEntity
  8
Defpoints
 62
     0
100
AcDbPoint
 10
10.0
 20
30.3125
 30
0.0
  0
POINT
  5
386
330
323
100
AcDbEntity
  8
Defpoints
 62
     0
100
AcDbPoint
 10
34.5625
 20
30.3125
 30
0.0
  0
POINT
  5
387
330
323
100
AcDbEntity
  8
Defpoints
 62
     0
100
AcDbPoint
 10
34.5625
 20
34.0
 30
0.0
  0
ENDBLK
  5
32F
330
323
100
AcDbEntity
  8
0
100
AcDbBlockEnd
  0
BLOCK
  5
352
330
347
100
AcDbEntity
  8
0
100
AcDbBlockBegin
  2
*D11
 70
     1
 10
0.0
 20
0.0
 30
0.0
  3
*D11
  1

  0
LINE
  5
388
330
347
100
AcDbEntity
  8
0
 62
     0
370
    -2
100
AcDbLine
 10
33.9375
 20
31.5625
 30
0.0
 11
42.5
 21
31.5625
 31
0.0
  0
LINE
  5
389
330
347
100
AcDbEntity
  8
0
 62
     0
370
    -2
100
AcDbLine
 10
33.9375
 20
10.0
 30
0.0
 11
42.5
 21
9.999999999999998
 31
0.0
  0
LINE
  5
38A
330
347
100
AcDbEntity
  8
0
 62
     0
370
    -2
100
AcDbLine
 10
37.50000000000001
 20
24.5625
 30
0.0
 11
37.50000000000001
 21
17.0
 31
0.0
  0
LINE
  5
38B
330
347
100
AcDbEntity
  8
0
 62
     0
370
    -2
100
AcDbLine
 10
37.5
 20
9.999999999999998
 30
0.0
 11
37.5
 21
-29.66666666666667
 31
0.0
  0
INSERT
  5
38C
330
347
100
AcDbEntity
  8
0
 62
     0
370
    -2
100
AcDbBlockReference
  2
_DOT
 10
37.50000000000001
 20
31.5625
 30
0.0
 41
7.0
 42
7.0
 43
7.0
 50
90.0
  0
INSERT
  5
38D
330
347
100
AcDbEntity
  8
0
 62
     0
370
    -2
100
AcDbBlockReference
  2
_DOT
 10
37.5
 20
9.999999999999998
 30
0.0
 41
7.0
 42
7.0
 43
7.0
 50
270.0
  0
MTEXT
  5
38E
330
347
100
AcDbEntity
  8
0
 62
    40
100
AcDbMText
 10
24.5
 20
-13.33333333333333
 30
0.0
 40
10.0
 41
0.0
 71
     5
 72
     1
  1
{\H1.000000x;\S7#8;}''
 11
0.0000000000000001
 21
1.0
 31
0.0
 73
     1
 44
1.0
1001
ACAD
1000
MTEXTBEGIN
1070
    73
1070
     1
1070
    44
1040
1.0
1070
    74
1070
     1
1000
MTEXTEND
  0
POINT
  5
38F
330
347
100
AcDbEntity
  8
Defpoints
 62
     0
100
AcDbPoint
 10
33.3125
 20
31.5625
 30
0.0
  0
POINT
  5
390
330
347
100
AcDbEntity
  8
Defpoints
 62
     0
100
AcDbPoint
 10
33.3125
 20
10.0
 30
0.0
  0
POINT
  5
391
330
347
100
AcDbEntity
  8
Defpoints
 62
     0
100
AcDbPoint
 10
37.5
 20
9.999999999999998
 30
0.0
  0
ENDBLK
  5
353
330
347
100
AcDbEntity
  8
0
100
AcDbBlockEnd
  0
BLOCK
  5
36D
330
36C
100
AcDbEntity
  8
0
100
AcDbBlockBegin
  2
_DOT
 70
     0
 10
0.0
 20
0.0
 30
0.0
  3
_DOT
  1

  0
LWPOLYLINE
  5
36E
330
36C
100
AcDbEntity
  8
0
  6
ByBlock
 62
     0
100
AcDbPolyline
 90
        2
 70
     1
 43
0.5
 10
-0.25
 20
0.0
 42
1.0
 10
0.25
 20
0.0
 42
1.0
  0
LINE
  5
36F
330
36C
100
AcDbEntity
  8
0
  6
ByBlock
 62
     0
100
AcDbLine
 10
-0.5
 20
0.0
 30
0.0
 11
-1.0
 21
0.0
 31
0.0
  0
ENDBLK
  5
370
330
36C
100
AcDbEntity
  8
0
100
AcDbBlockEnd
  0
BLOCK
  5
39E
330
393
100
AcDbEntity
  8
0
100
AcDbBlockBegin
  2
*D14
 70
     1
 10
0.0
 20
0.0
 30
0.0
  3
*D14
  1

  0
LINE
  5
59C
330
393
100
AcDbEntity
  8
0
 62
     0
370
    -2
100
AcDbLine
 10
10.0
 20
31.3125
 30
0.0
 11
10.0
 21
34.5
 31
0.0
  0
LINE
  5
59D
330
393
100
AcDbEntity
  8
0
 62
     0
370
    -2
100
AcDbLine
 10
34.5625
 20
31.3125
 30
0.0
 11
34.5625
 21
34.5
 31
0.0
  0
LINE
  5
59E
330
393
100
AcDbEntity
  8
0
 62
     3
370
    -2
100
AcDbLine
 10
10.5
 20
33.5
 30
0.0
 11
20.44791666666667
 21
33.5
 31
0.0
  0
LINE
  5
59F
330
393
100
AcDbEntity
  8
0
 62
     3
370
    -2
100
AcDbLine
 10
34.0625
 20
33.5
 30
0.0
 11
24.11458333333333
 21
33.5
 31
0.0
  0
INSERT
  5
5A0
330
393
100
AcDbEntity
  8
0
 62
     3
370
    -2
100
AcDbBlockReference
  2
_DOT
 10
10.0
 20
33.5
 30
0.0
 41
0.5
 42
0.5
 43
0.5
 50
180.0
  0
INSERT
  5
5A1
330
393
100
AcDbEntity
  8
0
 62
     3
370
    -2
100
AcDbBlockReference
  2
_DOT
 10
34.5625
 20
33.5
 30
0.0
 41
0.5
 42
0.5
 43
0.5
  0
MTEXT
  5
5A2
330
393
100
AcDbEntity
  8
0
 62
     3
100
AcDbMText
 10
22.28125
 20
33.5
 30
0.0
 40
0.5
 41
0.0
 71
     5
 72
     1
  1
\A1;24{\H1.000000x;\S9/16;}
 73
     1
 44
1.0
1001
ACAD
1000
MTEXTBEGIN
1070
    73
1070
     1
1070
    44
1040
1.0
1070
    74
1070
     0
1000
MTEXTEND
  0
POINT
  5
5A3
330
393
100
AcDbEntity
  8
Defpoints
 62
     0
100
AcDbPoint
 10
10.0
 20
30.3125
 30
0.0
  0
POINT
  5
5A4
330
393
100
AcDbEntity
  8
Defpoints
 62
     0
100
AcDbPoint
 10
34.5625
 20
30.3125
 30
0.0
  0
POINT
  5
5A5
330
393
100
AcDbEntity
  8
Defpoints
 62
     0
100
AcDbPoint
 10
34.5625
 20
33.5
 30
0.0
  0
ENDBLK
  5
39F
330
393
100
AcDbEntity
  8
0
100
AcDbBlockEnd
  0
BLOCK
  5
3C2
330
3B7
100
AcDbEntity
  8
0
100
AcDbBlockBegin
  2
*D15
 70
     1
 10
0.0
 20
0.0
 30
0.0
  3
*D15
  1

  0
LINE
  5
5A6
330
3B7
100
AcDbEntity
  8
0
 62
     0
370
    -2
100
AcDbLine
 10
34.3125
 20
31.5625
 30
0.0
 11
37.50000000000001
 21
31.5625
 31
0.0
  0
LINE
  5
5A7
330
3B7
100
AcDbEntity
  8
0
 62
     0
370
    -2
100
AcDbLine
 10
34.3125
 20
10.0
 30
0.0
 11
37.5
 21
9.999999999999998
 31
0.0
  0
LINE
  5
5A8
330
3B7
100
AcDbEntity
  8
0
 62
     3
370
    -2
100
AcDbLine
 10
36.50000000000001
 20
31.0625
 30
0.0
 11
36.50000000000001
 21
22.53125
 31
0.0
  0
LINE
  5
5A9
330
3B7
100
AcDbEntity
  8
0
 62
     3
370
    -2
100
AcDbLine
 10
36.5
 20
10.5
 30
0.0
 11
36.50000000000001
 21
19.03125
 31
0.0
  0
INSERT
  5
5AA
330
3B7
100
AcDbEntity
  8
0
 62
     3
370
    -2
100
AcDbBlockReference
  2
_DOT
 10
36.50000000000001
 20
31.5625
 30
0.0
 41
0.5
 42
0.5
 43
0.5
 50
90.0
  0
INSERT
  5
5AB
330
3B7
100
AcDbEntity
  8
0
 62
     3
370
    -2
100
AcDbBlockReference
  2
_DOT
 10
36.5
 20
9.999999999999998
 30
0.0
 41
0.5
 42
0.5
 43
0.5
 50
270.0
  0
MTEXT
  5
5AC
330
3B7
100
AcDbEntity
  8
0
 62
     3
100
AcDbMText
 10
36.5
 20
20.78125
 30
0.0
 40
0.5
 41
0.0
 71
     5
 72
     1
  1
\A1;21{\H1.000000x;\S9/16;}
 11
0.0000000000000001
 21
1.0
 31
0.0
 73
     1
 44
1.0
1001
ACAD
1000
MTEXTBEGIN
1070
    73
1070
     1
1070
    44
1040
1.0
1070
    74
1070
     0
1000
MTEXTEND
  0
POINT
  5
5AD
330
3B7
100
AcDbEntity
  8
Defpoints
 62
     0
100
AcDbPoint
 10
33.3125
 20
31.5625
 30
0.0
  0
POINT
  5
5AE
330
3B7
100
AcDbEntity
  8
Defpoints
 62
     0
100
AcDbPoint
 10
33.3125
 20
10.0
 30
0.0
  0
POINT
  5
5AF
330
3B7
100
AcDbEntity
  8
Defpoints
 62
     0
100
AcDbPoint
 10
36.5
 20
9.999999999999998
 30
0.0
  0
ENDBLK
  5
3C3
330
3B7
100
AcDbEntity
  8
0
100
AcDbBlockEnd
  0
ENDSEC
  0
SECTION
  2
ENTITIES
  0
LINE
  5
8E
330
1F
100
AcDbEntity
  8
0
100
AcDbLine
 10
11.25
 20
10.0
 30
0.0
 11
33.3125
 21
10.0
 31
0.0
  0
LINE
  5
8F
330
1F
100
AcDbEntity
  8
0
100
AcDbLine
 10
34.5625
 20
11.25
 30
0.0
 11
34.5625
 21
30.3125
 31
0.0
  0
LINE
  5
90
102
{ACAD_REACTORS
330
3CF
102
}
330
1F
100
AcDbEntity
  8
0
100
AcDbLine
 10
33.3125
 20
31.5625
 30
0.0
 11
11.25
 21
31.56250000000001
 31
0.0
  0
LINE
  5
91
102
{ACAD_REACTORS
330
3AB
102
}
330
1F
100
AcDbEntity
  8
0
100
AcDbLine
 10
10.0
 20
30.3125
 30
0.0
 11
10.0
 21
11.25
 31
0.0
  0
ARC
  5
93
102
{ACAD_REACTORS
330
135
102
}
330
1F
100
AcDbEntity
  8
0
100
AcDbCircle
 10
11.25
 20
30.3125
 30
0.0
 40
1.25
100
AcDbArc
 50
90.0
 51
180.0
  0
ARC
  5
96
102
{ACAD_REACTORS
330
159
102
}
330
1F
100
AcDbEntity
  8
0
100
AcDbCircle
 10
11.25
 20
11.25
 30
0.0
 40
1.25
100
AcDbArc
 50
180.0
 51
270.0
  0
ARC
  5
97
102
{ACAD_REACTORS
330
147
330
3AB
102
}
330
1F
100
AcDbEntity
  8
0
100
AcDbCircle
 10
33.3125
 20
30.3125
 30
0.0
 40
1.25
100
AcDbArc
 50
0.0
 51
90.0
  0
ARC
  5
98
102
{ACAD_REACTORS
330
16B
330
3CF
102
}
330
1F
100
AcDbEntity
  8
0
100
AcDbCircle
 10
33.3125
 20
11.25
 30
0.0
 40
1.25
100
AcDbArc
 50
270.0
 51
0.0
  0
DIMENSION
  5
124
102
{ACAD_XDICTIONARY
360
12E
102
}
102
{ACAD_REACTORS
330
135
102
}
330
1F
100
AcDbEntity
  8
0
 62
     3
100
AcDbDimension
  2
*D5
 10
11.24999999999999
 20
30.31249999999999
 30
0.0
 11
12.113003743183
 21
29.39379744830089
 31
0.0
 70
   164
 71
     5
 42
1.249999999999982
  3
Standard
100
AcDbRadialDimension
 15
10.39416613850077
 25
31.22356992130751
 35
0.0
 40
0.0
1001
ACAD
1000
DSTYLE
1002
{
1070
   277
1070
     5
1070
   140
1040
0.5
1070
   178
1070
     3
1070
   176
1070
     3
1070
   141
1040
0.2
1070
   344
1005
1A4
1070
   173
1070
     1
1070
    41
1040
0.5
1070
   279
1070
     1
1070
   288
1070
     1
1002
}
  0
DIMENSION
  5
136
102
{ACAD_XDICTIONARY
360
140
102
}
102
{ACAD_REACTORS
330
147
102
}
330
1F
100
AcDbEntity
  8
0
 62
     3
100
AcDbDimension
  2
*D6
 10
33.31250000000004
 20
30.31250000000005
 30
0.0
 11
32.56856074405169
 21
29.45727131776063
 31
0.0
 70
   164
 71
     5
 42
1.249999999999936
  3
Standard
100
AcDbRadialDimension
 15
34.13288799133418
 25
31.25561374906459
 35
0.0
 40
0.0
1001
ACAD
1000
DSTYLE
1002
{
1070
   277
1070
     5
1070
   140
1040
0.5
1070
   178
1070
     3
1070
   176
1070
     3
1070
    41
1040
0.5
1070
   344
1005
1A4
1070
   173
1070
     1
1070
   279
1070
     1
1070
   288
1070
     1
1002
}
  0
DIMENSION
  5
148
102
{ACAD_XDICTIONARY
360
152
102
}
102
{ACAD_REACTORS
330
159
102
}
330
1F
100
AcDbEntity
  8
0
 62
     3
100
AcDbDimension
  2
*D7
 10
11.24999999999999
 20
11.25
 30
0.0
 11
11.98595059135776
 21
11.93847267038071
 31
0.0
 70
   164
 71
     5
 42
1.249999999999996
  3
Standard
100
AcDbRadialDimension
 15
10.33716244243474
 25
10.39605176181557
 35
0.0
 40
0.0
1001
ACAD
1000
DSTYLE
1002
{
1070
   277
1070
     5
1070
   140
1040
0.5
1070
   178
1070
     3
1070
   176
1070
     3
1070
    41
1040
0.5
1070
   344
1005
1A4
1070
   173
1070
     1
1070
   279
1070
     1
1070
   288
1070
     1
1002
}
  0
DIMENSION
  5
15A
102
{ACAD_XDICTIONARY
360
164
102
}
102
{ACAD_REACTORS
330
16B
102
}
330
1F
100
AcDbEntity
  8
0
 62
     3
100
AcDbDimension
  2
*D8
 10
33.31250000000003
 20
11.24999999999999
 30
0.0
 11
32.50503427888729
 21
11.93847267038071
 31
0.0
 70
   164
 71
     5
 42
1.249999999999964
  3
Standard
100
AcDbRadialDimension
 15
34.26368672042226
 25
10.43898592928831
 35
0.0
 40
0.0
1001
ACAD
1000
DSTYLE
1002
{
1070
   277
1070
     5
1070
   140
1040
0.5
1070
   178
1070
     3
1070
   176
1070
     3
1070
    41
1040
0.5
1070
   344
1005
1A4
1070
   173
1070
     1
1070
   279
1070
     1
1070
   288
1070
     1
1002
}
  0
DIMENSION
  5
392
102
{ACAD_XDICTIONARY
360
3A0
102
}
102
{ACAD_REACTORS
330
3AB
102
}
330
1F
100
AcDbEntity
  8
0
 62
     3
100
AcDbDimension
  2
*D14
 10
34.5625
 20
33.5
 30
0.0
 11
22.28125
 21
33.5
 31
0.0
 70
    32
 71
     5
 42
24.5625
  3
Standard
100
AcDbAlignedDimension
 13
10.0
 23
30.3125
 33
0.0
 14
34.5625
 24
30.3125
 34
0.0
100
AcDbRotatedDimension
1001
ACAD
1000
DSTYLE
1002
{
1070
   277
1070
     5
1070
    73
1070
     0
1070
    74
1070
     1
1070
   147
1040
1.0
1070
   140
1040
0.5
1070
   178
1070
     3
1070
    42
1040
1.0
1070
    44
1040
1.0
1070
    75
1070
     0
1070
    46
1040
1.0
1070
   176
1070
     3
1070
   281
1070
     0
1070
    41
1040
0.5
1070
   343
1005
36C
1070
   173
1070
     1
1070
   344
1005
36C
1002
}
  0
DIMENSION
  5
3B6
102
{ACAD_XDICTIONARY
360
3C4
102
}
102
{ACAD_REACTORS
330
3CF
102
}
330
1F
100
AcDbEntity
  8
0
 62
     3
100
AcDbDimension
  2
*D15
 10
36.5
 20
9.999999999999998
 30
0.0
 11
36.5
 21
20.78125
 31
0.0
 70
    32
 71
     5
 42
21.5625
  3
Standard
100
AcDbAlignedDimension
 13
33.3125
 23
31.5625
 33
0.0
 14
33.3125
 24
10.0
 34
0.0
 50
90.0
100
AcDbRotatedDimension
1001
ACAD
1000
DSTYLE
1002
{
1070
   277
1070
     5
1070
    73
1070
     0
1070
    74
1070
     1
1070
   147
1040
1.0
1070
   140
1040
0.5
1070
   178
1070
     3
1070
    42
1040
1.0
1070
    44
1040
1.0
1070
    75
1070
     0
1070
    46
1040
1.0
1070
   176
1070
     3
1070
   281
1070
     0
1070
    41
1040
0.5
1070
   343
1005
36C
1070
   173
1070
     1
1070
   344
1005
36C
1002
}
  0
LINE
  5
5B0
330
1F
100
AcDbEntity
  8
0
 62
     1
100
AcDbLine
 10
22.28125
 20
34.32786514592211
 30
0.0
 11
22.28125
 21
31.56250000000001
 31
0.0
  0
LINE
  5
5B1
330
1F
100
AcDbEntity
  8
0
 62
     1
100
AcDbLine
 10
36.58937781559789
 20
20.78125
 30
0.0
 11
34.5625
 21
20.78125
 31
0.0
  0
LINE
  5
5B2
330
1F
100
AcDbEntity
  8
0
 62
     1
100
AcDbLine
 10
8.323358584854275
 20
20.78125
 30
0.0
 11
10.0
 21
20.78125
 31
0.0
  0
POINT
  5
5B4
330
1F
100
AcDbEntity
  8
0
 62
     1
 48
2.0
370
    30
100
AcDbPoint
 10
22.28125
 20
20.78125
 30
0.0
  0
LINE
  5
5B6
330
1F
100
AcDbEntity
  8
0
100
AcDbLine
 10
10.0
 20
20.78125
 30
0.0
 11
8.323358584854275
 21
20.78125
 31
0.0
  0
LINE
  5
5B7
330
1F
100
AcDbEntity
  8
0
 62
     1
100
AcDbLine
 10
22.28125
 20
10.0
 30
0.0
 11
22.28125
 21
8.146183448925299
 31
0.0
  0
MTEXT
  5
5B8
330
1F
100
AcDbEntity
  8
0
100
AcDbMText
 10
21.65355445141489
 20
19.80482946101664
 30
0.0
 40
0.7
 41
5.098459430985116
 71
     1
 72
     5
  1
{\C1;(0, 0)}
 73
     1
 44
1.0
1001
ACAD
1000
MTEXTBEGIN
1070
    73
1070
     1
1070
    44
1040
1.0
1070
    74
1070
     0
1000
MTEXTEND
  0
MTEXT
  5
5CC
330
1F
100
AcDbEntity
  8
0
100
AcDbMText
 10
39.65054094383149
 20
22.49476063644448
 30
0.0
 40
0.6
 41
18.99691203703703
 71
     1
 72
     5
  1
{\C3;Cutout template for all wentworth topmount single bowl sinks:\PCMT 2522-XX (T104XX)}
 73
     1
 44
1.0
1001
ACAD
1000
MTEXTBEGIN
1070
    73
1070
     1
1070
    44
1040
1.0
1070
    74
1070
     0
1000
MTEXTEND
  0
MTEXT
  5
5D5
330
1F
100
AcDbEntity
  8
0
100
AcDbMText
 10
40.10882939467911
 20
35.60102141742159
 30
0.0
 40
0.2
 41
16.89938798167006
 71
     1
 72
     5
  3
{\H2x;\C4;Notes: \P1. WELLS recommends that Wells Sinkware under-mount sinks be installed by professional countertop fabricators/installers. \P2. The template is only a guide. It's important that you check the template provided with your sink against
  1
 the sink (to assure that template agrees with sink) before cutting the counter top.}
 73
     1
 44
1.0
1001
ACAD
1000
MTEXTBEGIN
1070
    73
1070
     1
1070
    44
1040
1.0
1070
    74
1070
     0
1000
MTEXTEND
  0
MTEXT
  5
5D6
330
1F
100
AcDbEntity
  8
0
100
AcDbMText
 10
39.93697130867236
 20
11.96396606414079
 30
0.0
 40
0.5
 41
8.592909173255463
 71
     1
 72
     5
  1
{\C3;UNIT: INCH}
 73
     1
 44
1.0
1001
ACAD
1000
MTEXTBEGIN
1070
    73
1070
     1
1070
    44
1040
1.0
1070
    74
1070
     0
1000
MTEXTEND
  0
ENDSEC
  0
SECTION
  2
OBJECTS
  0
DICTIONARY
  5
C
330
0
100
AcDbDictionary
281
     1
  3
ACAD_COLOR
350
73
  3
ACAD_GROUP
350
D
  3
ACAD_LAYOUT
350
1A
  3
ACAD_MATERIAL
350
72
  3
ACAD_MLINESTYLE
350
17
  3
ACAD_PLOTSETTINGS
350
19
  3
ACAD_PLOTSTYLENAME
350
E
  3
ACAD_TABLESTYLE
350
86
  3
ACDBHEADERROUNDTRIPXREC
350
5D8
  3
AcDbVariableDictionary
350
66
  0
DICTIONARY
  5
94
330
1F
100
AcDbDictionary
280
     1
281
     1
  3
ACAD_SORTENTS
360
95
  0
DICTIONARY
  5
12E
330
124
100
AcDbDictionary
280
     1
281
     1
  3
ACAD_DIMASSOC
360
135
  0
DICTIONARY
  5
140
330
136
100
AcDbDictionary
280
     1
281
     1
  3
ACAD_DIMASSOC
360
147
  0
DICTIONARY
  5
152
330
148
100
AcDbDictionary
280
     1
281
     1
  3
ACAD_DIMASSOC
360
159
  0
DICTIONARY
  5
164
330
15A
100
AcDbDictionary
280
     1
281
     1
  3
ACAD_DIMASSOC
360
16B
  0
DICTIONARY
  5
3A0
330
392
100
AcDbDictionary
280
     1
281
     1
  3
ACAD_DIMASSOC
360
3AB
  0
DICTIONARY
  5
3C4
330
3B6
100
AcDbDictionary
280
     1
281
     1
  3
ACAD_DIMASSOC
360
3CF
  0
DICTIONARY
  5
73
102
{ACAD_REACTORS
330
C
102
}
330
C
100
AcDbDictionary
281
     1
  0
DICTIONARY
  5
D
102
{ACAD_REACTORS
330
C
102
}
330
C
100
AcDbDictionary
281
     1
  0
DICTIONARY
  5
1A
102
{ACAD_REACTORS
330
C
102
}
330
C
100
AcDbDictionary
281
     1
  3
Layout1
350
59
  3
Layout2
350
5E
  3
Model
350
22
  0
DICTIONARY
  5
72
102
{ACAD_REACTORS
330
C
102
}
330
C
100
AcDbDictionary
281
     1
  0
DICTIONARY
  5
17
102
{ACAD_REACTORS
330
C
102
}
330
C
100
AcDbDictionary
281
     1
  3
Standard
350
18
  0
DICTIONARY
  5
19
102
{ACAD_REACTORS
330
C
102
}
330
C
100
AcDbDictionary
281
     1
  0
ACDBDICTIONARYWDFLT
  5
E
102
{ACAD_REACTORS
330
C
102
}
330
C
100
AcDbDictionary
281
     1
  3
Normal
350
F
100
AcDbDictionaryWithDefault
340
F
  0
DICTIONARY
  5
86
102
{ACAD_REACTORS
330
C
102
}
330
C
100
AcDbDictionary
281
     1
  3
Standard
350
87
  0
DICTIONARY
  5
5D8
102
{ACAD_REACTORS
330
C
102
}
330
C
100
AcDbDictionary
281
     1
  0
DICTIONARY
  5
66
102
{ACAD_REACTORS
330
C
102
}
330
C
100
AcDbDictionary
281
     1
  3
CTABLESTYLE
350
9A
  3
DIMASSOC
350
67
  3
HIDETEXT
350
6B
  3
PROJECTNAME
350
9B
  0
SORTENTSTABLE
  5
95
102
{ACAD_REACTORS
330
94
102
}
330
94
100
AcDbSortentsTable
330
1F
331
5B7
  5
5B1
331
392
  5
392
331
15A
  5
15A
331
136
  5
136
331
5B1
  5
5B2
331
97
  5
92
331
8F
  5
90
331
93
  5
97
331
91
  5
96
331
5B6
  5
5B4
331
5B4
  5
5B7
331
148
  5
148
331
5B2
  5
5B5
331
124
  5
124
331
5B0
  5
5B0
331
98
  5
91
331
3B6
  5
3B6
331
96
  5
8F
331
8E
  5
8E
331
90
  5
93
  0
DIMASSOC
  5
135
102
{ACAD_REACTORS
330
12E
102
}
330
12E
100
AcDbDimAssoc
330
124
 90
        2
 70
     0
 71
     0
  1
AcDbOsnapPointRef
 72
     3
331
93
 73
     2
 91
        0
 40
0.0
 10
0.0
 20
0.0
 30
0.0
 75
     0
  0
DIMASSOC
  5
147
102
{ACAD_REACTORS
330
140
102
}
330
140
100
AcDbDimAssoc
330
136
 90
        2
 70
     0
 71
     0
  1
AcDbOsnapPointRef
 72
     3
331
97
 73
     2
 91
        0
 40
0.0
 10
0.0
 20
0.0
 30
0.0
 75
     0
  0
DIMASSOC
  5
159
102
{ACAD_REACTORS
330
152
102
}
330
152
100
AcDbDimAssoc
330
148
 90
        2
 70
     0
 71
     0
  1
AcDbOsnapPointRef
 72
     3
331
96
 73
     2
 91
        0
 40
0.0
 10
0.0
 20
0.0
 30
0.0
 75
     0
  0
DIMASSOC
  5
16B
102
{ACAD_REACTORS
330
164
102
}
330
164
100
AcDbDimAssoc
330
15A
 90
        2
 70
     0
 71
     0
  1
AcDbOsnapPointRef
 72
     3
331
98
 73
     2
 91
        0
 40
0.0
 10
0.0
 20
0.0
 30
0.0
 75
     0
  0
DIMASSOC
  5
3AB
102
{ACAD_REACTORS
330
3A0
102
}
330
3A0
100
AcDbDimAssoc
330
392
 90
        3
 70
     0
 71
     0
  1
AcDbOsnapPointRef
 72
    13
331
91
 73
     2
 91
        0
 40
0.0
 10
0.0
 20
0.0
 30
2.000000000000000E+50
 75
     0
  1
AcDbOsnapPointRef
 72
    13
331
97
 73
     2
 91
        0
 40
0.0
 10
0.0
 20
0.0
 30
2.000000000000000E+50
 75
     0
  0
DIMASSOC
  5
3CF
102
{ACAD_REACTORS
330
3C4
102
}
330
3C4
100
AcDbDimAssoc
330
3B6
 90
        3
 70
     0
 71
     0
  1
AcDbOsnapPointRef
 72
    13
331
90
 73
     2
 91
        0
 40
0.0
 10
0.0
 20
0.0
 30
2.000000000000000E+50
 75
     0
  1
AcDbOsnapPointRef
 72
    13
331
98
 73
     2
 91
        0
 40
4.712388980384689
 10
0.0
 20
0.0
 30
2.000000000000000E+50
 75
     0
  0
LAYOUT
  5
59
102
{ACAD_XDICTIONARY
360
5DB
102
}
102
{ACAD_REACTORS
330
1A
102
}
330
1A
100
AcDbPlotSettings
  1

  2
None
  4

  6

 40
0.0
 41
0.0
 42
0.0
 43
0.0
 44
0.0
 45
0.0
 46
0.0
 47
0.0
 48
0.0
 49
0.0
140
0.0
141
0.0
142
1.0
143
1.0
 70
   688
 72
     0
 73
     0
 74
     5
  7

 75
    16
147
1.0
148
0.0
149
0.0
100
AcDbLayout
  1
Layout1
 70
     1
 71
     1
 10
0.0
 20
0.0
 11
12.0
 21
9.0
 12
0.0
 22
0.0
 32
0.0
 14
0.0
 24
0.0
 34
0.0
 15
0.0
 25
0.0
 35
0.0
146
0.0
 13
0.0
 23
0.0
 33
0.0
 16
1.0
 26
0.0
 36
0.0
 17
0.0
 27
1.0
 37
0.0
 76
     0
330
58
  0
LAYOUT
  5
5E
102
{ACAD_XDICTIONARY
360
5DD
102
}
102
{ACAD_REACTORS
330
1A
102
}
330
1A
100
AcDbPlotSettings
  1

  2
None
  4

  6

 40
0.0
 41
0.0
 42
0.0
 43
0.0
 44
0.0
 45
0.0
 46
0.0
 47
0.0
 48
0.0
 49
0.0
140
0.0
141
0.0
142
1.0
143
1.0
 70
   688
 72
     0
 73
     0
 74
     5
  7

 75
    16
147
1.0
148
0.0
149
0.0
100
AcDbLayout
  1
Layout2
 70
     1
 71
     2
 10
0.0
 20
0.0
 11
12.0
 21
9.0
 12
0.0
 22
0.0
 32
0.0
 14
0.0
 24
0.0
 34
0.0
 15
0.0
 25
0.0
 35
0.0
146
0.0
 13
0.0
 23
0.0
 33
0.0
 16
1.0
 26
0.0
 36
0.0
 17
0.0
 27
1.0
 37
0.0
 76
     0
330
5D
  0
LAYOUT
  5
22
102
{ACAD_XDICTIONARY
360
5D9
102
}
102
{ACAD_REACTORS
330
1A
102
}
330
1A
100
AcDbPlotSettings
  1

  2
none_device
  4
ANSI_A_(8.50_x_11.00_Inches)
  6

 40
6.349999904632567
 41
19.04999923706055
 42
6.350006103515625
 43
19.04998779296875
 44
215.8999938964844
 45
279.3999938964844
 46
0.0
 47
0.0
 48
0.0
 49
0.0
140
0.0
141
0.0
142
1.0
143
2.584895464708373
 70
 11952
 72
     0
 73
     1
 74
     0
  7

 75
     0
147
0.3868628397755418
148
0.0
149
0.0
100
AcDbLayout
  1
Model
 70
     1
 71
     0
 10
0.0
 20
0.0
 11
12.0
 21
9.0
 12
0.0
 22
0.0
 32
0.0
 14
0.0
 24
0.0
 34
0.0
 15
0.0
 25
0.0
 35
0.0
146
0.0
 13
0.0
 23
0.0
 33
0.0
 16
1.0
 26
0.0
 36
0.0
 17
0.0
 27
1.0
 37
0.0
 76
     0
330
1F
  0
MLINESTYLE
  5
18
102
{ACAD_REACTORS
330
17
102
}
330
17
100
AcDbMlineStyle
  2
STANDARD
 70
     0
  3

 62
   256
 51
90.0
 52
90.0
 71
     2
 49
0.5
 62
   256
  6
BYLAYER
 49
-0.5
 62
   256
  6
BYLAYER
  0
ACDBPLACEHOLDER
  5
F
102
{ACAD_REACTORS
330
E
102
}
330
E
  0
TABLESTYLE
  5
87
102
{ACAD_REACTORS
330
86
102
}
330
86
100
AcDbTableStyle
  3
Standard
 70
     0
 71
     0
 40
0.06
 41
0.06
280
     0
281
     0
  7
Standard
140
0.18
170
     2
 62
     0
 63
     7
283
     0
274
    -2
284
     1
 64
     0
275
    -2
285
     1
 65
     0
276
    -2
286
     1
 66
     0
277
    -2
287
     1
 67
     0
278
    -2
288
     1
 68
     0
279
    -2
289
     1
 69
     0
  7
Standard
140
0.25
170
     5
 62
     0
 63
     7
283
     0
274
    -2
284
     1
 64
     0
275
    -2
285
     1
 65
     0
276
    -2
286
     1
 66
     0
277
    -2
287
     1
 67
     0
278
    -2
288
     1
 68
     0
279
    -2
289
     1
 69
     0
  7
Standard
140
0.18
170
     5
 62
     0
 63
     7
283
     0
274
    -2
284
     1
 64
     0
275
    -2
285
     1
 65
     0
276
    -2
286
     1
 66
     0
277
    -2
287
     1
 67
     0
278
    -2
288
     1
 68
     0
279
    -2
289
     1
 69
     0
  0
DICTIONARYVAR
  5
9A
102
{ACAD_REACTORS
330
66
102
}
330
66
100
DictionaryVariables
280
     0
  1
STANDARD
  0
DICTIONARYVAR
  5
67
102
{ACAD_REACTORS
330
66
102
}
330
66
100
DictionaryVariables
280
     0
  1
2
  0
DICTIONARYVAR
  5
6B
102
{ACAD_REACTORS
330
66
102
}
330
66
100
DictionaryVariables
280
     0
  1
1
  0
DICTIONARYVAR
  5
9B
102
{ACAD_REACTORS
330
66
102
}
330
66
100
DictionaryVariables
280
     0
  1

  0
DICTIONARY
  5
5DB
330
59
100
AcDbDictionary
280
     1
281
     1
  3
ACAD_XREC_ROUNDTRIP
360
5DC
  0
DICTIONARY
  5
5DD
330
5E
100
AcDbDictionary
280
     1
281
     1
  3
ACAD_XREC_ROUNDTRIP
360
5DE
  0
DICTIONARY
  5
5D9
330
22
100
AcDbDictionary
280
     1
281
     1
  3
ACAD_XREC_ROUNDTRIP
360
5DA
  0
XRECORD
  5
5DC
102
{ACAD_REACTORS
330
5DB
102
}
330
5DB
100
AcDbXrecord
280
     1
102
SHADEPLOT
 70
     0
102
SHADEPLOTRESLEVEL
 70
     2
102
SHADEPLOTCUSTOMDPI
 70
   300
  0
XRECORD
  5
5DE
102
{ACAD_REACTORS
330
5DD
102
}
330
5DD
100
AcDbXrecord
280
     1
102
SHADEPLOT
 70
     0
102
SHADEPLOTRESLEVEL
 70
     2
102
SHADEPLOTCUSTOMDPI
 70
   300
  0
XRECORD
  5
5DA
102
{ACAD_REACTORS
330
5D9
102
}
330
5D9
100
AcDbXrecord
280
     1
102
SHADEPLOT
 70
     0
102
SHADEPLOTRESLEVEL
 70
     2
102
SHADEPLOTCUSTOMDPI
 70
   300
  0
ENDSEC
  0
EOF
