  0
SECTION
  2
HEADER
  9
$ACADVER
  1
AC1015
  9
$ACADMAINTVER
 70
    20
  9
$DWGCODEPAGE
  3
ANSI_936
  9
$INSBASE
 10
0.0
 20
0.0
 30
0.0
  9
$EXTMIN
 10
6.210179742785546
 20
8.037276890359692
 30
0.0
  9
$EXTMAX
 10
69.85210631298189
 20
36.5129875730355
 30
1.0
  9
$LIMMIN
 10
0.0
 20
0.0
  9
$LIMMAX
 10
12.0
 20
9.0
  9
$ORTHOMODE
 70
     1
  9
$REGENMODE
 70
     1
  9
$FILLMODE
 70
     1
  9
$QTEXTMODE
 70
     0
  9
$MIRRTEXT
 70
     0
  9
$LTSCALE
 40
1.0
  9
$ATTMODE
 70
     1
  9
$TEXTSIZE
 40
0.2
  9
$TRACEWID
 40
0.05
  9
$TEXTSTYLE
  7
Standard
  9
$CLAYER
  8
0
  9
$CELTYPE
  6
ByLayer
  9
$CECOLOR
 62
   256
  9
$CELTSCALE
 40
1.0
  9
$DISPSILH
 70
     0
  9
$DIMSCALE
 40
1.0
  9
$DIMASZ
 40
0.18
  9
$DIMEXO
 40
0.0625
  9
$DIMDLI
 40
0.38
  9
$DIMRND
 40
0.0
  9
$DIMDLE
 40
0.0
  9
$DIMEXE
 40
0.18
  9
$DIMTP
 40
0.0
  9
$DIMTM
 40
0.0
  9
$DIMTXT
 40
0.18
  9
$DIMCEN
 40
0.09
  9
$DIMTSZ
 40
0.0
  9
$DIMTOL
 70
     0
  9
$DIMLIM
 70
     0
  9
$DIMTIH
 70
     1
  9
$DIMTOH
 70
     1
  9
$DIMSE1
 70
     0
  9
$DIMSE2
 70
     0
  9
$DIMTAD
 70
     0
  9
$DIMZIN
 70
     0
  9
$DIMBLK
  1

  9
$DIMASO
 70
     1
  9
$DIMSHO
 70
     1
  9
$DIMPOST
  1

  9
$DIMAPOST
  1

  9
$DIMALT
 70
     0
  9
$DIMALTD
 70
     2
  9
$DIMALTF
 40
25.4
  9
$DIMLFAC
 40
1.0
  9
$DIMTOFL
 70
     0
  9
$DIMTVP
 40
0.0
  9
$DIMTIX
 70
     0
  9
$DIMSOXD
 70
     0
  9
$DIMSAH
 70
     0
  9
$DIMBLK1
  1

  9
$DIMBLK2
  1

  9
$DIMSTYLE
  2
Standard
  9
$DIMCLRD
 70
     0
  9
$DIMCLRE
 70
     0
  9
$DIMCLRT
 70
     0
  9
$DIMTFAC
 40
1.0
  9
$DIMGAP
 40
0.09
  9
$DIMJUST
 70
     0
  9
$DIMSD1
 70
     0
  9
$DIMSD2
 70
     0
  9
$DIMTOLJ
 70
     1
  9
$DIMTZIN
 70
     0
  9
$DIMALTZ
 70
     0
  9
$DIMALTTZ
 70
     0
  9
$DIMUPT
 70
     0
  9
$DIMDEC
 70
     4
  9
$DIMTDEC
 70
     4
  9
$DIMALTU
 70
     2
  9
$DIMALTTD
 70
     2
  9
$DIMTXSTY
  7
Standard
  9
$DIMAUNIT
 70
     0
  9
$DIMADEC
 70
     0
  9
$DIMALTRND
 40
0.0
  9
$DIMAZIN
 70
     0
  9
$DIMDSEP
 70
    46
  9
$DIMATFIT
 70
     3
  9
$DIMFRAC
 70
     0
  9
$DIMLDRBLK
  1

  9
$DIMLUNIT
 70
     2
  9
$DIMLWD
 70
    -2
  9
$DIMLWE
 70
    -2
  9
$DIMTMOVE
 70
     0
  9
$LUNITS
 70
     2
  9
$LUPREC
 70
     4
  9
$SKETCHINC
 40
0.1
  9
$FILLETRAD
 40
1.25
  9
$AUNITS
 70
     0
  9
$AUPREC
 70
     0
  9
$MENU
  1
.
  9
$ELEVATION
 40
0.0
  9
$PELEVATION
 40
0.0
  9
$THICKNESS
 40
0.0
  9
$LIMCHECK
 70
     0
  9
$CHAMFERA
 40
0.0
  9
$CHAMFERB
 40
0.0
  9
$CHAMFERC
 40
0.0
  9
$CHAMFERD
 40
0.0
  9
$SKPOLY
 70
     0
  9
$TDCREATE
 40
2454733.488475475
  9
$TDUCREATE
 40
2454733.696808808
  9
$TDUPDATE
 40
2454742.430523542
  9
$TDUUPDATE
 40
2454742.638856875
  9
$TDINDWG
 40
0.0217726389
  9
$TDUSRTIMER
 40
0.0217691898
  9
$USRTIMER
 70
     1
  9
$ANGBASE
 50
0.0
  9
$ANGDIR
 70
     0
  9
$PDMODE
 70
     0
  9
$PDSIZE
 40
0.0
  9
$PLINEWID
 40
0.0
  9
$SPLFRAME
 70
     0
  9
$SPLINETYPE
 70
     6
  9
$SPLINESEGS
 70
     8
  9
$HANDSEED
  5
4B3
  9
$SURFTAB1
 70
     6
  9
$SURFTAB2
 70
     6
  9
$SURFTYPE
 70
     6
  9
$SURFU
 70
     6
  9
$SURFV
 70
     6
  9
$UCSBASE
  2

  9
$UCSNAME
  2

  9
$UCSORG
 10
0.0
 20
0.0
 30
0.0
  9
$UCSXDIR
 10
1.0
 20
0.0
 30
0.0
  9
$UCSYDIR
 10
0.0
 20
1.0
 30
0.0
  9
$UCSORTHOREF
  2

  9
$UCSORTHOVIEW
 70
     0
  9
$UCSORGTOP
 10
0.0
 20
0.0
 30
0.0
  9
$UCSORGBOTTOM
 10
0.0
 20
0.0
 30
0.0
  9
$UCSORGLEFT
 10
0.0
 20
0.0
 30
0.0
  9
$UCSORGRIGHT
 10
0.0
 20
0.0
 30
0.0
  9
$UCSORGFRONT
 10
0.0
 20
0.0
 30
0.0
  9
$UCSORGBACK
 10
0.0
 20
0.0
 30
0.0
  9
$PUCSBASE
  2

  9
$PUCSNAME
  2

  9
$PUCSORG
 10
0.0
 20
0.0
 30
0.0
  9
$PUCSXDIR
 10
1.0
 20
0.0
 30
0.0
  9
$PUCSYDIR
 10
0.0
 20
1.0
 30
0.0
  9
$PUCSORTHOREF
  2

  9
$PUCSORTHOVIEW
 70
     0
  9
$PUCSORGTOP
 10
0.0
 20
0.0
 30
0.0
  9
$PUCSORGBOTTOM
 10
0.0
 20
0.0
 30
0.0
  9
$PUCSORGLEFT
 10
0.0
 20
0.0
 30
0.0
  9
$PUCSORGRIGHT
 10
0.0
 20
0.0
 30
0.0
  9
$PUCSORGFRONT
 10
0.0
 20
0.0
 30
0.0
  9
$PUCSORGBACK
 10
0.0
 20
0.0
 30
0.0
  9
$USERI1
 70
     0
  9
$USERI2
 70
     0
  9
$USERI3
 70
     0
  9
$USERI4
 70
     0
  9
$USERI5
 70
     0
  9
$USERR1
 40
0.0
  9
$USERR2
 40
0.0
  9
$USERR3
 40
0.0
  9
$USERR4
 40
0.0
  9
$USERR5
 40
0.0
  9
$WORLDVIEW
 70
     1
  9
$SHADEDGE
 70
     3
  9
$SHADEDIF
 70
    70
  9
$TILEMODE
 70
     1
  9
$MAXACTVP
 70
    64
  9
$PINSBASE
 10
0.0
 20
0.0
 30
0.0
  9
$PLIMCHECK
 70
     0
  9
$PEXTMIN
 10
0.0
 20
0.0
 30
0.0
  9
$PEXTMAX
 10
0.0
 20
0.0
 30
0.0
  9
$PLIMMIN
 10
0.0
 20
0.0
  9
$PLIMMAX
 10
12.0
 20
9.0
  9
$UNITMODE
 70
     0
  9
$VISRETAIN
 70
     1
  9
$PLINEGEN
 70
     0
  9
$PSLTSCALE
 70
     1
  9
$TREEDEPTH
 70
  3020
  9
$CMLSTYLE
  2
Standard
  9
$CMLJUST
 70
     0
  9
$CMLSCALE
 40
1.0
  9
$PROXYGRAPHICS
 70
     1
  9
$MEASUREMENT
 70
     0
  9
$CELWEIGHT
370
    -1
  9
$ENDCAPS
280
     0
  9
$JOINSTYLE
280
     0
  9
$LWDISPLAY
290
     0
  9
$INSUNITS
 70
     1
  9
$HYPERLINKBASE
  1

  9
$STYLESHEET
  1

  9
$XEDIT
290
     1
  9
$CEPSNTYPE
380
     0
  9
$PSTYLEMODE
290
     1
  9
$FINGERPRINTGUID
  2
{59F4097A-3369-4E63-B457-810B26A0C64B}
  9
$VERSIONGUID
  2
{F80ED2A5-CFC6-4294-8008-A9A987BEBDB3}
  9
$EXTNAMES
290
     1
  9
$PSVPSCALE
 40
0.0
  9
$OLESTARTUP
290
     0
  0
ENDSEC
  0
SECTION
  2
CLASSES
  0
CLASS
  1
ACDBDICTIONARYWDFLT
  2
AcDbDictionaryWithDefault
  3
ObjectDBX Classes
 90
        0
280
     0
281
     0
  0
CLASS
  1
ACDBPLACEHOLDER
  2
AcDbPlaceHolder
  3
ObjectDBX Classes
 90
        0
280
     0
281
     0
  0
CLASS
  1
LAYOUT
  2
AcDbLayout
  3
ObjectDBX Classes
 90
        0
280
     0
281
     0
  0
CLASS
  1
DICTIONARYVAR
  2
AcDbDictionaryVar
  3
ObjectDBX Classes
 90
        0
280
     0
281
     0
  0
CLASS
  1
TABLESTYLE
  2
AcDbTableStyle
  3
ObjectDBX Classes
 90
     2047
280
     0
281
     0
  0
CLASS
  1
SORTENTSTABLE
  2
AcDbSortentsTable
  3
ObjectDBX Classes
 90
        0
280
     0
281
     0
  0
CLASS
  1
DIMASSOC
  2
AcDbDimAssoc
  3
"AcDbDimAssoc|Product Desc:     AcDim ARX App For Dimension|Company:          Autodesk, Inc.|WEB Address:      www.autodesk.com"
 90
        0
280
     0
281
     0
  0
ENDSEC
  0
SECTION
  2
TABLES
  0
TABLE
  2
VPORT
  5
8
330
0
100
AcDbSymbolTable
 70
     3
  0
VPORT
  5
4A9
330
8
100
AcDbSymbolTableRecord
100
AcDbViewportTableRecord
  2
*Active
 70
     0
 10
0.0
 20
0.0
 11
1.0
 21
1.0
 12
36.75610491239283
 22
21.77784638109638
 13
0.0
 23
0.0
 14
0.5
 24
0.5
 15
0.5
 25
0.5
 16
0.0
 26
0.0
 36
1.0
 17
0.0
 27
0.0
 37
0.0
 40
33.37757818859227
 41
1.888667992047713
 42
50.0
 43
0.0
 44
0.0
 50
0.0
 51
0.0
 71
     0
 72
  1000
 73
     1
 74
     3
 75
     0
 76
     0
 77
     0
 78
     0
281
     0
 65
     1
110
0.0
120
0.0
130
0.0
111
1.0
121
0.0
131
0.0
112
0.0
122
1.0
132
0.0
 79
     0
146
0.0
  0
ENDTAB
  0
TABLE
  2
LTYPE
  5
5
330
0
100
AcDbSymbolTable
 70
     1
  0
LTYPE
  5
14
330
5
100
AcDbSymbolTableRecord
100
AcDbLinetypeTableRecord
  2
ByBlock
 70
     0
  3

 72
    65
 73
     0
 40
0.0
  0
LTYPE
  5
15
330
5
100
AcDbSymbolTableRecord
100
AcDbLinetypeTableRecord
  2
ByLayer
 70
     0
  3

 72
    65
 73
     0
 40
0.0
  0
LTYPE
  5
16
330
5
100
AcDbSymbolTableRecord
100
AcDbLinetypeTableRecord
  2
Continuous
 70
     0
  3
Solid line
 72
    65
 73
     0
 40
0.0
  0
ENDTAB
  0
TABLE
  2
LAYER
  5
2
330
0
100
AcDbSymbolTable
 70
     2
  0
LAYER
  5
10
330
2
100
AcDbSymbolTableRecord
100
AcDbLayerTableRecord
  2
0
 70
     0
 62
     7
  6
Continuous
370
    -3
390
F
  0
LAYER
  5
B5
330
2
100
AcDbSymbolTableRecord
100
AcDbLayerTableRecord
  2
Defpoints
 70
     0
 62
     7
  6
Continuous
290
     0
370
    -3
390
F
  0
ENDTAB
  0
TABLE
  2
STYLE
  5
3
330
0
100
AcDbSymbolTable
 70
     1
  0
STYLE
  5
11
330
3
100
AcDbSymbolTableRecord
100
AcDbTextStyleTableRecord
  2
Standard
 70
     0
 40
0.0
 41
1.0
 50
0.0
 71
     0
 42
0.2
  3
txt
  4

  0
ENDTAB
  0
TABLE
  2
VIEW
  5
6
330
0
100
AcDbSymbolTable
 70
     0
  0
ENDTAB
  0
TABLE
  2
UCS
  5
7
330
0
100
AcDbSymbolTable
 70
     0
  0
ENDTAB
  0
TABLE
  2
APPID
  5
9
330
0
100
AcDbSymbolTable
 70
     1
  0
APPID
  5
12
330
9
100
AcDbSymbolTableRecord
100
AcDbRegAppTableRecord
  2
ACAD
 70
     0
  0
ENDTAB
  0
TABLE
  2
DIMSTYLE
  5
A
330
0
100
AcDbSymbolTable
 70
     1
100
AcDbDimStyleTable
 71
     1
340
27
  0
DIMSTYLE
105
27
102
{ACAD_REACTORS
330
B4
330
CF
330
E9
330
FB
330
10D
330
11F
102
}
330
A
100
AcDbSymbolTableRecord
100
AcDbDimStyleTableRecord
  2
Standard
 70
     0
340
11
  0
ENDTAB
  0
TABLE
  2
BLOCK_RECORD
  5
1
330
0
100
AcDbSymbolTable
 70
     9
  0
BLOCK_RECORD
  5
1F
102
{ACAD_XDICTIONARY
360
94
102
}
330
1
100
AcDbSymbolTableRecord
100
AcDbBlockTableRecord
  2
*Model_Space
340
22
  0
BLOCK_RECORD
  5
58
330
1
100
AcDbSymbolTableRecord
100
AcDbBlockTableRecord
  2
*Paper_Space
340
59
  0
BLOCK_RECORD
  5
5D
330
1
100
AcDbSymbolTableRecord
100
AcDbBlockTableRecord
  2
*Paper_Space0
340
5E
  0
BLOCK_RECORD
  5
B6
330
1
100
AcDbSymbolTableRecord
100
AcDbBlockTableRecord
  2
*D1
340
0
  0
BLOCK_RECORD
  5
D0
330
1
100
AcDbSymbolTableRecord
100
AcDbBlockTableRecord
  2
*D2
340
0
  0
BLOCK_RECORD
  5
EA
330
1
100
AcDbSymbolTableRecord
100
AcDbBlockTableRecord
  2
*D3
340
0
  0
BLOCK_RECORD
  5
FC
330
1
100
AcDbSymbolTableRecord
100
AcDbBlockTableRecord
  2
*D4
340
0
  0
BLOCK_RECORD
  5
10E
330
1
100
AcDbSymbolTableRecord
100
AcDbBlockTableRecord
  2
*D5
340
0
  0
BLOCK_RECORD
  5
120
330
1
100
AcDbSymbolTableRecord
100
AcDbBlockTableRecord
  2
*D6
340
0
  0
BLOCK_RECORD
  5
1C1
330
1
100
AcDbSymbolTableRecord
100
AcDbBlockTableRecord
  2
_Open30
340
0
102
{BLKREFS
331
48B
331
491
331
497
331
49D
102
}
  0
BLOCK_RECORD
  5
32B
330
1
100
AcDbSymbolTableRecord
100
AcDbBlockTableRecord
  2
_Dot
340
0
102
{BLKREFS
331
460
331
461
331
46A
331
46B
102
}
  0
ENDTAB
  0
ENDSEC
  0
SECTION
  2
BLOCKS
  0
BLOCK
  5
20
330
1F
100
AcDbEntity
  8
0
100
AcDbBlockBegin
  2
*Model_Space
 70
     0
 10
0.0
 20
0.0
 30
0.0
  3
*Model_Space
  1

  0
ENDBLK
  5
21
330
1F
100
AcDbEntity
  8
0
100
AcDbBlockEnd
  0
BLOCK
  5
5A
330
58
100
AcDbEntity
 67
     1
  8
0
100
AcDbBlockBegin
  2
*Paper_Space
 70
     0
 10
0.0
 20
0.0
 30
0.0
  3
*Paper_Space
  1

  0
ENDBLK
  5
5B
330
58
100
AcDbEntity
 67
     1
  8
0
100
AcDbBlockEnd
  0
BLOCK
  5
5F
330
5D
100
AcDbEntity
  8
0
100
AcDbBlockBegin
  2
*Paper_Space0
 70
     0
 10
0.0
 20
0.0
 30
0.0
  3
*Paper_Space0
  1

  0
ENDBLK
  5
60
330
5D
100
AcDbEntity
  8
0
100
AcDbBlockEnd
  0
BLOCK
  5
C1
330
B6
100
AcDbEntity
  8
0
100
AcDbBlockBegin
  2
*D1
 70
     1
 10
0.0
 20
0.0
 30
0.0
  3
*D1
  1

  0
LINE
  5
45C
330
B6
100
AcDbEntity
  8
0
 62
     0
370
    20
100
AcDbLine
 10
10.0
 20
31.1125
 30
0.0
 11
10.0
 21
35.26111826054272
 31
0.0
  0
LINE
  5
45D
330
B6
100
AcDbEntity
  8
0
 62
     0
370
    20
100
AcDbLine
 10
42.5625
 20
31.1125
 30
0.0
 11
42.5625
 21
35.26111826054272
 31
0.0
  0
LINE
  5
45E
330
B6
100
AcDbEntity
  8
0
 62
     3
370
    20
100
AcDbLine
 10
10.4
 20
34.46111826054272
 30
0.0
 11
24.38125
 21
34.46111826054272
 31
0.0
  0
LINE
  5
45F
330
B6
100
AcDbEntity
  8
0
 62
     3
370
    20
100
AcDbLine
 10
42.1625
 20
34.46111826054272
 30
0.0
 11
28.18125
 21
34.46111826054272
 31
0.0
  0
INSERT
  5
460
330
B6
100
AcDbEntity
  8
0
 62
     3
370
    20
100
AcDbBlockReference
  2
_Dot
 10
10.0
 20
34.46111826054272
 30
0.0
 41
0.4
 42
0.4
 43
0.4
 50
180.0
  0
INSERT
  5
461
330
B6
100
AcDbEntity
  8
0
 62
     3
370
    20
100
AcDbBlockReference
  2
_Dot
 10
42.5625
 20
34.46111826054272
 30
0.0
 41
0.4
 42
0.4
 43
0.4
  0
MTEXT
  5
462
330
B6
100
AcDbEntity
  8
0
 62
     3
100
AcDbMText
 10
26.28125
 20
34.46111826054272
 30
0.0
 40
0.6
 41
0.0
 71
     5
 72
     1
  1
\A1;32{\H1.000000x;\S9/16;}
 73
     1
 44
1.0
1001
ACAD
1000
MTEXTBEGIN
1070
    73
1070
     1
1070
    44
1040
1.0
1070
    74
1070
     0
1000
MTEXTEND
  0
POINT
  5
463
330
B6
100
AcDbEntity
  8
Defpoints
 62
     0
100
AcDbPoint
 10
10.0
 20
30.3125
 30
0.0
  0
POINT
  5
464
330
B6
100
AcDbEntity
  8
Defpoints
 62
     0
100
AcDbPoint
 10
42.5625
 20
30.3125
 30
0.0
  0
POINT
  5
465
330
B6
100
AcDbEntity
  8
Defpoints
 62
     0
100
AcDbPoint
 10
42.5625
 20
34.46111826054272
 30
0.0
  0
ENDBLK
  5
C2
330
B6
100
AcDbEntity
  8
0
100
AcDbBlockEnd
  0
BLOCK
  5
DB
330
D0
100
AcDbEntity
  8
0
100
AcDbBlockBegin
  2
*D2
 70
     1
 10
0.0
 20
0.0
 30
0.0
  3
*D2
  1

  0
LINE
  5
466
330
D0
100
AcDbEntity
  8
0
 62
     0
370
    20
100
AcDbLine
 10
10.45
 20
31.5625
 30
0.0
 11
6.310179742785552
 21
31.5625
 31
0.0
  0
LINE
  5
467
330
D0
100
AcDbEntity
  8
0
 62
     0
370
    20
100
AcDbLine
 10
10.45
 20
10.0
 30
0.0
 11
6.310179742785548
 21
10.0
 31
0.0
  0
LINE
  5
468
330
D0
100
AcDbEntity
  8
0
 62
     3
370
    20
100
AcDbLine
 10
7.110179742785552
 20
31.16250000000001
 30
0.0
 11
7.11017974278555
 21
22.38125000000001
 31
0.0
  0
LINE
  5
469
330
D0
100
AcDbEntity
  8
0
 62
     3
370
    20
100
AcDbLine
 10
7.110179742785548
 20
10.4
 30
0.0
 11
7.110179742785549
 21
19.18125
 31
0.0
  0
INSERT
  5
46A
330
D0
100
AcDbEntity
  8
0
 62
     3
370
    20
100
AcDbBlockReference
  2
_Dot
 10
7.110179742785552
 20
31.5625
 30
0.0
 41
0.4
 42
0.4
 43
0.4
 50
90.0
  0
INSERT
  5
46B
330
D0
100
AcDbEntity
  8
0
 62
     3
370
    20
100
AcDbBlockReference
  2
_Dot
 10
7.110179742785548
 20
10.0
 30
0.0
 41
0.4
 42
0.4
 43
0.4
 50
270.0
  0
MTEXT
  5
46C
330
D0
100
AcDbEntity
  8
0
 62
     3
100
AcDbMText
 10
7.110179742785546
 20
20.78125
 30
0.0
 40
0.6
 41
0.0
 71
     5
 72
     1
  1
\A1;21{\H1.000000x;\S9/16;}
 73
     1
 44
1.0
1001
ACAD
1000
MTEXTBEGIN
1070
    73
1070
     1
1070
    44
1040
1.0
1070
    74
1070
     0
1000
MTEXTEND
  0
POINT
  5
46D
330
D0
100
AcDbEntity
  8
Defpoints
 62
     0
100
AcDbPoint
 10
11.25
 20
31.5625
 30
0.0
  0
POINT
  5
46E
330
D0
100
AcDbEntity
  8
Defpoints
 62
     0
100
AcDbPoint
 10
11.25
 20
10.0
 30
0.0
  0
POINT
  5
46F
330
D0
100
AcDbEntity
  8
Defpoints
 62
     0
100
AcDbPoint
 10
7.110179742785548
 20
10.0
 30
0.0
  0
ENDBLK
  5
DC
330
D0
100
AcDbEntity
  8
0
100
AcDbBlockEnd
  0
BLOCK
  5
F1
330
EA
100
AcDbEntity
  8
0
100
AcDbBlockBegin
  2
*D3
 70
     1
 10
0.0
 20
0.0
 30
0.0
  3
*D3
  1

  0
LINE
  5
488
330
EA
100
AcDbEntity
  8
0
 62
     3
370
    -2
100
AcDbLine
 10
12.6173486007179
 20
29.25852426850735
 30
0.0
 11
12.1173486007179
 21
29.25852426850735
 31
0.0
  0
LINE
  5
489
330
EA
100
AcDbEntity
  8
0
 62
     3
370
    -2
100
AcDbLine
 10
12.1173486007179
 20
29.25852426850735
 30
0.0
 11
10.7734263220832
 21
30.89161788913557
 31
0.0
  0
MTEXT
  5
48A
330
EA
100
AcDbEntity
  8
0
 62
     3
370
    25
100
AcDbMText
 10
14.3173486007179
 20
29.25852426850735
 30
0.0
 40
0.6
 41
0.0
 71
     5
 72
     1
  1
\A1;R1{\H1.000000x;\S1/4;}
 73
     1
 44
1.0
1001
ACAD
1000
MTEXTBEGIN
1070
    73
1070
     1
1070
    44
1040
1.0
1070
    74
1070
     0
1000
MTEXTEND
  0
INSERT
  5
48B
330
EA
100
AcDbEntity
  8
0
 62
     3
370
    -2
100
AcDbBlockReference
  2
_Open30
 10
10.45571053680534
 20
31.27769648189264
 30
0.0
 41
0.5
 42
0.5
 43
0.5
 50
129.4520006020587
  0
POINT
  5
48C
330
EA
100
AcDbEntity
  8
Defpoints
 62
     0
100
AcDbPoint
 10
10.45571053680534
 20
31.27769648189264
 30
0.0
  0
POINT
  5
48D
330
EA
100
AcDbEntity
  8
Defpoints
 62
     0
100
AcDbPoint
 10
11.24999999999996
 20
30.3125
 30
0.0
  0
ENDBLK
  5
F2
330
EA
100
AcDbEntity
  8
0
100
AcDbBlockEnd
  0
BLOCK
  5
103
330
FC
100
AcDbEntity
  8
0
100
AcDbBlockBegin
  2
*D4
 70
     1
 10
0.0
 20
0.0
 30
0.0
  3
*D4
  1

  0
LINE
  5
48E
330
FC
100
AcDbEntity
  8
0
 62
     3
370
    -2
100
AcDbLine
 10
39.79101855230737
 20
28.85832475474159
 30
0.0
 11
40.29101855230737
 21
28.85832475474159
 31
0.0
  0
LINE
  5
48F
330
FC
100
AcDbEntity
  8
0
 62
     3
370
    -2
100
AcDbLine
 10
40.29101855230737
 20
28.85832475474159
 30
0.0
 11
41.74360419250451
 21
30.92621750439842
 31
0.0
  0
MTEXT
  5
490
330
FC
100
AcDbEntity
  8
0
 62
     3
370
    25
100
AcDbMText
 10
38.09101855230738
 20
28.85832475474159
 30
0.0
 40
0.6
 41
0.0
 71
     5
 72
     1
  1
\A1;R1{\H1.000000x;\S1/4;}
 73
     1
 44
1.0
1001
ACAD
1000
MTEXTBEGIN
1070
    73
1070
     1
1070
    44
1040
1.0
1070
    74
1070
     0
1000
MTEXTEND
  0
INSERT
  5
491
330
FC
100
AcDbEntity
  8
0
 62
     3
370
    -2
100
AcDbBlockReference
  2
_Open30
 10
42.03100698750752
 20
31.3353625073307
 30
0.0
 41
0.5
 42
0.5
 43
0.5
 50
54.91398131791068
  0
POINT
  5
492
330
FC
100
AcDbEntity
  8
Defpoints
 62
     0
100
AcDbPoint
 10
42.03100698750752
 20
31.3353625073307
 30
0.0
  0
POINT
  5
493
330
FC
100
AcDbEntity
  8
Defpoints
 62
     0
100
AcDbPoint
 10
41.31249999999999
 20
30.31250000000002
 30
0.0
  0
ENDBLK
  5
104
330
FC
100
AcDbEntity
  8
0
100
AcDbBlockEnd
  0
BLOCK
  5
115
330
10E
100
AcDbEntity
  8
0
100
AcDbBlockBegin
  2
*D5
 70
     1
 10
0.0
 20
0.0
 30
0.0
  3
*D5
  1

  0
LINE
  5
49A
330
10E
100
AcDbEntity
  8
0
 62
     3
370
    -2
100
AcDbLine
 10
12.68411078908455
 20
12.38344375387288
 30
0.0
 11
12.18411078908455
 21
12.38344375387288
 31
0.0
  0
LINE
  5
49B
330
10E
100
AcDbEntity
  8
0
 62
     3
370
    -2
100
AcDbLine
 10
12.18411078908455
 20
12.38344375387288
 30
0.0
 11
10.77301070011497
 21
10.67122438908052
 31
0.0
  0
MTEXT
  5
49C
330
10E
100
AcDbEntity
  8
0
 62
     3
370
    25
100
AcDbMText
 10
14.38411078908456
 20
12.38344375387288
 30
0.0
 40
0.6
 41
0.0
 71
     5
 72
     1
  1
\A1;R1{\H1.000000x;\S1/4;}
 73
     1
 44
1.0
1001
ACAD
1000
MTEXTBEGIN
1070
    73
1070
     1
1070
    44
1040
1.0
1070
    74
1070
     0
1000
MTEXTEND
  0
INSERT
  5
49D
330
10E
100
AcDbEntity
  8
0
 62
     3
370
    -2
100
AcDbBlockReference
  2
_Open30
 10
10.45501783352496
 20
10.28537398180088
 30
0.0
 41
0.5
 42
0.5
 43
0.5
 50
230.5068671459182
  0
POINT
  5
49E
330
10E
100
AcDbEntity
  8
Defpoints
 62
     0
100
AcDbPoint
 10
10.45501783352496
 20
10.28537398180088
 30
0.0
  0
POINT
  5
49F
330
10E
100
AcDbEntity
  8
Defpoints
 62
     0
100
AcDbPoint
 10
11.24999999999999
 20
11.24999999999998
 30
0.0
  0
ENDBLK
  5
116
330
10E
100
AcDbEntity
  8
0
100
AcDbBlockEnd
  0
BLOCK
  5
127
330
120
100
AcDbEntity
  8
0
100
AcDbBlockBegin
  2
*D6
 70
     1
 10
0.0
 20
0.0
 30
0.0
  3
*D6
  1

  0
LINE
  5
494
330
120
100
AcDbEntity
  8
0
 62
     3
370
    -2
100
AcDbLine
 10
39.52396950318867
 20
12.71694334867768
 30
0.0
 11
40.02396950318868
 21
12.71694334867768
 31
0.0
  0
LINE
  5
495
330
120
100
AcDbEntity
  8
0
 62
     3
370
    -2
100
AcDbLine
 10
40.02396950318868
 20
12.71694334867768
 30
0.0
 11
41.80745556453266
 21
10.68651176663734
 31
0.0
  0
MTEXT
  5
496
330
120
100
AcDbEntity
  8
0
 62
     3
370
    25
100
AcDbMText
 10
37.82396950318868
 20
12.71694334867768
 30
0.0
 40
0.6
 41
0.0
 71
     5
 72
     1
  1
\A1;R1{\H1.000000x;\S1/4;}
 73
     1
 44
1.0
1001
ACAD
1000
MTEXTBEGIN
1070
    73
1070
     1
1070
    44
1040
1.0
1070
    74
1070
     0
1000
MTEXTEND
  0
INSERT
  5
497
330
120
100
AcDbEntity
  8
0
 62
     3
370
    -2
100
AcDbBlockReference
  2
_Open30
 10
42.13742594088775
 20
10.31085294439556
 30
0.0
 41
0.5
 42
0.5
 43
0.5
 50
311.2953544135492
  0
POINT
  5
498
330
120
100
AcDbEntity
  8
Defpoints
 62
     0
100
AcDbPoint
 10
42.13742594088775
 20
10.31085294439556
 30
0.0
  0
POINT
  5
499
330
120
100
AcDbEntity
  8
Defpoints
 62
     0
100
AcDbPoint
 10
41.31250000000005
 20
11.24999999999997
 30
0.0
  0
ENDBLK
  5
128
330
120
100
AcDbEntity
  8
0
100
AcDbBlockEnd
  0
BLOCK
  5
1C5
330
1C1
100
AcDbEntity
  8
0
100
AcDbBlockBegin
  2
_Open30
 70
     0
 10
0.0
 20
0.0
 30
0.0
  3
_Open30
  1

  0
LINE
  5
1C2
330
1C1
100
AcDbEntity
  8
0
  6
ByBlock
 62
     0
370
    -2
100
AcDbLine
 10
-1.0
 20
0.26794919
 30
0.0
 11
0.0
 21
0.0
 31
0.0
  0
LINE
  5
1C3
330
1C1
100
AcDbEntity
  8
0
  6
ByBlock
 62
     0
370
    -2
100
AcDbLine
 10
0.0
 20
0.0
 30
0.0
 11
-1.0
 21
-0.26794919
 31
0.0
  0
LINE
  5
1C4
330
1C1
100
AcDbEntity
  8
0
  6
ByBlock
 62
     0
370
    -2
100
AcDbLine
 10
0.0
 20
0.0
 30
0.0
 11
-1.0
 21
0.0
 31
0.0
  0
ENDBLK
  5
1C6
330
1C1
100
AcDbEntity
  8
0
100
AcDbBlockEnd
  0
BLOCK
  5
32E
330
32B
100
AcDbEntity
  8
0
100
AcDbBlockBegin
  2
_Dot
 70
     0
 10
0.0
 20
0.0
 30
0.0
  3
_Dot
  1

  0
LWPOLYLINE
  5
32C
330
32B
100
AcDbEntity
  8
0
  6
ByBlock
 62
     0
100
AcDbPolyline
 90
        2
 70
     1
 43
0.5
 10
-0.25
 20
0.0
 42
1.0
 10
0.25
 20
0.0
 42
1.0
  0
LINE
  5
32D
330
32B
100
AcDbEntity
  8
0
  6
ByBlock
 62
     0
370
    -2
100
AcDbLine
 10
-0.5
 20
0.0
 30
0.0
 11
-1.0
 21
0.0
 31
0.0
  0
ENDBLK
  5
32F
330
32B
100
AcDbEntity
  8
0
100
AcDbBlockEnd
  0
ENDSEC
  0
SECTION
  2
ENTITIES
  0
LINE
  5
8E
330
1F
100
AcDbEntity
  8
0
100
AcDbLine
 10
11.25
 20
10.0
 30
0.0
 11
41.3125
 21
10.0
 31
0.0
  0
LINE
  5
8F
330
1F
100
AcDbEntity
  8
0
100
AcDbLine
 10
42.5625
 20
11.25
 30
0.0
 11
42.5625
 21
30.3125
 31
0.0
  0
LINE
  5
90
330
1F
100
AcDbEntity
  8
0
100
AcDbLine
 10
41.3125
 20
31.5625
 30
0.0
 11
11.25
 21
31.5625
 31
0.0
  0
LINE
  5
91
330
1F
100
AcDbEntity
  8
0
100
AcDbLine
 10
10.0
 20
30.3125
 30
0.0
 11
10.0
 21
11.25
 31
0.0
  0
ARC
  5
93
102
{ACAD_REACTORS
330
CE
330
E8
330
FA
102
}
330
1F
100
AcDbEntity
  8
0
100
AcDbCircle
 10
11.25
 20
30.3125
 30
0.0
 40
1.25
100
AcDbArc
 50
90.0
 51
180.0
  0
ARC
  5
96
102
{ACAD_REACTORS
330
E8
330
11E
102
}
330
1F
100
AcDbEntity
  8
0
100
AcDbCircle
 10
11.25
 20
11.25
 30
0.0
 40
1.25
100
AcDbArc
 50
180.0
 51
270.0
  0
ARC
  5
97
102
{ACAD_REACTORS
330
CE
330
10C
102
}
330
1F
100
AcDbEntity
  8
0
100
AcDbCircle
 10
41.3125
 20
30.3125
 30
0.0
 40
1.25
100
AcDbArc
 50
0.0
 51
90.0
  0
ARC
  5
98
102
{ACAD_REACTORS
330
130
102
}
330
1F
100
AcDbEntity
  8
0
100
AcDbCircle
 10
41.3125
 20
11.25
 30
0.0
 40
1.25
100
AcDbArc
 50
270.0
 51
0.0
  0
MTEXT
  5
99
330
1F
100
AcDbEntity
  8
0
 62
     3
 48
2.0
370
    25
100
AcDbMText
 10
45.10007374352689
 20
24.20910347153384
 30
0.0
 40
0.7
 41
24.94506287248535
 71
     1
 72
     5
  1
Cutout template for all wentworth topmount double bowl sinks:\PCMT 3322-XXX (T103XX/T106XX)
 73
     1
 44
1.0
1001
ACAD
1000
MTEXTBEGIN
1070
    73
1070
     1
1070
    44
1040
1.0
1070
    74
1070
     0
1000
MTEXTEND
  0
DIMENSION
  5
B4
102
{ACAD_XDICTIONARY
360
C3
102
}
102
{ACAD_REACTORS
330
CE
102
}
330
1F
100
AcDbEntity
  8
0
 62
     3
100
AcDbDimension
  2
*D1
 10
42.5625
 20
34.46111826054272
 30
0.0
 11
26.28125
 21
34.46111826054272
 31
0.0
 70
    32
 71
     5
 42
32.5625
  3
Standard
100
AcDbAlignedDimension
 13
10.0
 23
30.3125
 33
0.0
 14
42.5625
 24
30.3125
 34
0.0
100
AcDbRotatedDimension
1001
ACAD
1000
DSTYLE
1002
{
1070
   147
1040
0.9
1070
    46
1040
0.3
1070
   140
1040
0.6
1070
   277
1070
     5
1070
   178
1070
     3
1070
    44
1040
0.8
1070
    42
1040
0.8
1070
   176
1070
     3
1070
   372
1070
    20
1070
   371
1070
    20
1070
    41
1040
0.4
1070
   343
1005
32B
1070
   173
1070
     1
1070
   344
1005
32B
1002
}
  0
DIMENSION
  5
CF
102
{ACAD_XDICTIONARY
360
DD
102
}
102
{ACAD_REACTORS
330
E8
102
}
330
1F
100
AcDbEntity
  8
0
 62
     3
100
AcDbDimension
  2
*D2
 10
7.110179742785548
 20
10.0
 30
0.0
 11
7.110179742785546
 21
20.78125
 31
0.0
 70
    32
 71
     5
 42
21.5625
  3
Standard
100
AcDbAlignedDimension
 13
11.25
 23
31.5625
 33
0.0
 14
11.25
 24
10.0
 34
0.0
 50
90.0
100
AcDbRotatedDimension
1001
ACAD
1000
DSTYLE
1002
{
1070
   147
1040
0.9
1070
    46
1040
0.3
1070
   140
1040
0.6
1070
   277
1070
     5
1070
   178
1070
     3
1070
    44
1040
0.8
1070
    42
1040
0.8
1070
   176
1070
     3
1070
   372
1070
    20
1070
   371
1070
    20
1070
    41
1040
0.4
1070
   343
1005
32B
1070
   173
1070
     1
1070
   344
1005
32B
1002
}
  0
DIMENSION
  5
E9
102
{ACAD_XDICTIONARY
360
F3
102
}
102
{ACAD_REACTORS
330
FA
102
}
330
1F
100
AcDbEntity
  8
0
 62
     3
 48
2.0
370
    25
100
AcDbDimension
  2
*D3
 10
11.24999999999996
 20
30.3125
 30
0.0
 11
12.1173486007179
 21
29.25852426850735
 31
0.0
 70
   164
 71
     5
 42
1.249999999999968
  3
Standard
100
AcDbRadialDimension
 15
10.45571053680534
 25
31.27769648189264
 35
0.0
 40
0.0
1001
ACAD
1000
DSTYLE
1002
{
1070
   147
1040
1.0
1070
   277
1070
     5
1070
   140
1040
0.6
1070
   178
1070
     3
1070
   176
1070
     3
1070
    41
1040
0.5
1070
   344
1005
1C1
1070
   173
1070
     1
1070
   279
1070
     1
1070
   288
1070
     1
1002
}
  0
DIMENSION
  5
FB
102
{ACAD_XDICTIONARY
360
105
102
}
102
{ACAD_REACTORS
330
10C
102
}
330
1F
100
AcDbEntity
  8
0
 62
     3
 48
2.0
370
    25
100
AcDbDimension
  2
*D4
 10
41.31249999999999
 20
30.31250000000002
 30
0.0
 11
40.29101855230737
 21
28.85832475474159
 31
0.0
 70
   164
 71
     5
 42
1.249999999999985
  3
Standard
100
AcDbRadialDimension
 15
42.03100698750752
 25
31.3353625073307
 35
0.0
 40
0.0
1001
ACAD
1000
DSTYLE
1002
{
1070
   147
1040
1.0
1070
   277
1070
     5
1070
   140
1040
0.6
1070
   178
1070
     3
1070
   176
1070
     3
1070
    41
1040
0.5
1070
   344
1005
1C1
1070
   173
1070
     1
1070
   279
1070
     1
1070
   288
1070
     1
1002
}
  0
DIMENSION
  5
10D
102
{ACAD_XDICTIONARY
360
117
102
}
102
{ACAD_REACTORS
330
11E
102
}
330
1F
100
AcDbEntity
  8
0
 62
     3
 48
2.0
370
    25
100
AcDbDimension
  2
*D5
 10
11.24999999999999
 20
11.24999999999998
 30
0.0
 11
12.18411078908455
 21
12.38344375387288
 31
0.0
 70
   164
 71
     5
 42
1.249999999999992
  3
Standard
100
AcDbRadialDimension
 15
10.45501783352496
 25
10.28537398180088
 35
0.0
 40
0.0
1001
ACAD
1000
DSTYLE
1002
{
1070
   147
1040
1.0
1070
   277
1070
     5
1070
   140
1040
0.6
1070
   178
1070
     3
1070
   176
1070
     3
1070
    41
1040
0.5
1070
   344
1005
1C1
1070
   173
1070
     1
1070
   279
1070
     1
1070
   288
1070
     1
1002
}
  0
DIMENSION
  5
11F
102
{ACAD_XDICTIONARY
360
129
102
}
102
{ACAD_REACTORS
330
130
102
}
330
1F
100
AcDbEntity
  8
0
 62
     3
 48
2.0
370
    25
100
AcDbDimension
  2
*D6
 10
41.31250000000005
 20
11.24999999999997
 30
0.0
 11
40.02396950318868
 21
12.71694334867768
 31
0.0
 70
   164
 71
     5
 42
1.249999999999957
  3
Standard
100
AcDbRadialDimension
 15
42.13742594088775
 25
10.31085294439556
 35
0.0
 40
0.0
1001
ACAD
1000
DSTYLE
1002
{
1070
   147
1040
1.0
1070
   277
1070
     5
1070
   140
1040
0.6
1070
   178
1070
     3
1070
   176
1070
     3
1070
    41
1040
0.5
1070
   344
1005
1C1
1070
   173
1070
     1
1070
   279
1070
     1
1070
   288
1070
     1
1002
}
  0
LINE
  5
4A0
330
1F
100
AcDbEntity
  8
0
 62
     1
370
    25
100
AcDbLine
 39
1.0
 10
45.03113836112108
 20
20.78125
 30
0.0
 11
42.5625
 21
20.78125
 31
0.0
  0
LINE
  5
4A2
330
1F
100
AcDbEntity
  8
0
 62
     1
370
    25
100
AcDbLine
 39
1.0
 10
26.28125
 20
33.24984774473491
 30
0.0
 11
26.28125000000001
 21
31.5625
 31
0.0
  0
POINT
  5
4A3
330
1F
100
AcDbEntity
  8
0
 62
     1
 48
2.0
370
    30
100
AcDbPoint
 10
26.28125
 20
20.78125
 30
0.0
 39
1.0
  0
LINE
  5
4A4
330
1F
100
AcDbEntity
  8
0
 62
     1
370
    25
100
AcDbLine
 39
1.0
 10
26.28125
 20
10.0
 30
0.0
 11
26.28125
 21
8.037276890359692
 31
0.0
  0
LINE
  5
4A5
330
1F
100
AcDbEntity
  8
0
 62
     1
370
    25
100
AcDbLine
 39
1.0
 10
10.0
 20
20.78125
 30
0.0
 11
8.044851266874971
 21
20.78125
 31
0.0
  0
MTEXT
  5
4A6
330
1F
100
AcDbEntity
  8
0
100
AcDbMText
 10
25.33627431470295
 20
19.90986316984168
 30
0.0
 40
0.6
 41
4.272784046768947
 71
     1
 72
     5
  1
{\C1;(0, 0)}
 73
     1
 44
1.0
1001
ACAD
1000
MTEXTBEGIN
1070
    73
1070
     1
1070
    44
1040
1.0
1070
    74
1070
     0
1000
MTEXTEND
  0
MTEXT
  5
4A7
330
1F
100
AcDbEntity
  8
0
100
AcDbMText
 10
45.50602035874949
 20
36.5129875730355
 30
0.0
 40
0.2
 41
20.54904386921052
 71
     1
 72
     5
  3
{\H2x;\C4;Notes: \P1. WELLS recommends that Wells Sinkware under-mount sinks be installed by professional countertop fabricators/installers. \P2. The template is only a guide. It's important that you check the template provided with your sink against
  1
 the sink (to assure that template agrees with sink) before cutting the counter top.}
 73
     1
 44
1.0
1001
ACAD
1000
MTEXTBEGIN
1070
    73
1070
     1
1070
    44
1040
1.0
1070
    74
1070
     0
1000
MTEXTEND
  0
MTEXT
  5
4A8
102
{ACAD_XDICTIONARY
360
4B1
102
}
330
1F
100
AcDbEntity
  8
0
100
AcDbMText
 10
46.10260550953866
 20
12.14205744720112
 30
0.0
 40
0.7
 41
12.59457538912355
 71
     1
 72
     5
  1
{\C3;Unit: INCH}
 73
     1
 44
1.0
1001
ACAD
1000
MTEXTBEGIN
1070
    73
1070
     1
1070
    44
1040
1.0
1070
    74
1070
     0
1000
MTEXTEND
  0
ENDSEC
  0
SECTION
  2
OBJECTS
  0
DICTIONARY
  5
C
330
0
100
AcDbDictionary
281
     1
  3
ACAD_COLOR
350
73
  3
ACAD_GROUP
350
D
  3
ACAD_LAYOUT
350
1A
  3
ACAD_MATERIAL
350
72
  3
ACAD_MLINESTYLE
350
17
  3
ACAD_PLOTSETTINGS
350
19
  3
ACAD_PLOTSTYLENAME
350
E
  3
ACAD_TABLESTYLE
350
86
  3
ACDBHEADERROUNDTRIPXREC
350
4AA
  3
AcDbVariableDictionary
350
66
  0
DICTIONARY
  5
94
330
1F
100
AcDbDictionary
280
     1
281
     1
  3
ACAD_SORTENTS
360
95
  0
DICTIONARY
  5
C3
330
B4
100
AcDbDictionary
280
     1
281
     1
  3
ACAD_DIMASSOC
360
CE
  0
DICTIONARY
  5
DD
330
CF
100
AcDbDictionary
280
     1
281
     1
  3
ACAD_DIMASSOC
360
E8
  0
DICTIONARY
  5
F3
330
E9
100
AcDbDictionary
280
     1
281
     1
  3
ACAD_DIMASSOC
360
FA
  0
DICTIONARY
  5
105
330
FB
100
AcDbDictionary
280
     1
281
     1
  3
ACAD_DIMASSOC
360
10C
  0
DICTIONARY
  5
117
330
10D
100
AcDbDictionary
280
     1
281
     1
  3
ACAD_DIMASSOC
360
11E
  0
DICTIONARY
  5
129
330
11F
100
AcDbDictionary
280
     1
281
     1
  3
ACAD_DIMASSOC
360
130
  0
DICTIONARY
  5
4B1
330
4A8
100
AcDbDictionary
280
     1
281
     1
  3
ACAD_MTEXT_RT
360
4B2
  0
DICTIONARY
  5
73
102
{ACAD_REACTORS
330
C
102
}
330
C
100
AcDbDictionary
281
     1
  0
DICTIONARY
  5
D
102
{ACAD_REACTORS
330
C
102
}
330
C
100
AcDbDictionary
281
     1
  0
DICTIONARY
  5
1A
102
{ACAD_REACTORS
330
C
102
}
330
C
100
AcDbDictionary
281
     1
  3
Layout1
350
59
  3
Layout2
350
5E
  3
Model
350
22
  0
DICTIONARY
  5
72
102
{ACAD_REACTORS
330
C
102
}
330
C
100
AcDbDictionary
281
     1
  0
DICTIONARY
  5
17
102
{ACAD_REACTORS
330
C
102
}
330
C
100
AcDbDictionary
281
     1
  3
Standard
350
18
  0
DICTIONARY
  5
19
102
{ACAD_REACTORS
330
C
102
}
330
C
100
AcDbDictionary
281
     1
  0
ACDBDICTIONARYWDFLT
  5
E
102
{ACAD_REACTORS
330
C
102
}
330
C
100
AcDbDictionary
281
     1
  3
Normal
350
F
100
AcDbDictionaryWithDefault
340
F
  0
DICTIONARY
  5
86
102
{ACAD_REACTORS
330
C
102
}
330
C
100
AcDbDictionary
281
     1
  3
Standard
350
87
  0
DICTIONARY
  5
4AA
102
{ACAD_REACTORS
330
C
102
}
330
C
100
AcDbDictionary
281
     1
  0
DICTIONARY
  5
66
102
{ACAD_REACTORS
330
C
102
}
330
C
100
AcDbDictionary
281
     1
  3
CTABLESTYLE
350
9A
  3
DIMASSOC
350
67
  3
HIDETEXT
350
6B
  3
PROJECTNAME
350
9B
  0
SORTENTSTABLE
  5
95
102
{ACAD_REACTORS
330
94
102
}
330
94
100
AcDbSortentsTable
330
1F
331
FB
  5
FB
331
91
  5
96
331
CF
  5
CF
331
B4
  5
B4
331
98
  5
91
331
96
  5
8F
331
8E
  5
8E
331
4A2
  5
4A3
331
10D
  5
10D
331
4A0
  5
4A0
331
E9
  5
E9
331
90
  5
93
331
99
  5
99
331
97
  5
92
331
4A5
  5
4A2
331
8F
  5
90
331
4A3
  5
4A5
331
11F
  5
11F
331
93
  5
97
  0
DIMASSOC
  5
CE
102
{ACAD_REACTORS
330
C3
102
}
330
C3
100
AcDbDimAssoc
330
B4
 90
        3
 70
     0
 71
     0
  1
AcDbOsnapPointRef
 72
     1
331
93
 73
     2
 91
        0
 40
3.141592653589793
 10
0.0
 20
0.0
 30
2.000000000000000E+50
 75
     0
  1
AcDbOsnapPointRef
 72
    13
331
97
 73
     2
 91
        0
 40
0.0
 10
0.0
 20
0.0
 30
2.000000000000000E+50
 75
     0
  0
DIMASSOC
  5
E8
102
{ACAD_REACTORS
330
DD
102
}
330
DD
100
AcDbDimAssoc
330
CF
 90
        3
 70
     0
 71
     0
  1
AcDbOsnapPointRef
 72
    13
331
93
 73
     2
 91
        0
 40
1.570796326794896
 10
0.0
 20
0.0
 30
2.000000000000000E+50
 75
     0
  1
AcDbOsnapPointRef
 72
     1
331
96
 73
     2
 91
        0
 40
4.712388980384689
 10
0.0
 20
0.0
 30
2.000000000000000E+50
 75
     0
  0
DIMASSOC
  5
FA
102
{ACAD_REACTORS
330
F3
102
}
330
F3
100
AcDbDimAssoc
330
E9
 90
        2
 70
     0
 71
     0
  1
AcDbOsnapPointRef
 72
     3
331
93
 73
     2
 91
        0
 40
0.0
 10
0.0
 20
0.0
 30
0.0
 75
     0
  0
DIMASSOC
  5
10C
102
{ACAD_REACTORS
330
105
102
}
330
105
100
AcDbDimAssoc
330
FB
 90
        2
 70
     0
 71
     0
  1
AcDbOsnapPointRef
 72
     3
331
97
 73
     2
 91
        0
 40
0.0
 10
0.0
 20
0.0
 30
0.0
 75
     0
  0
DIMASSOC
  5
11E
102
{ACAD_REACTORS
330
117
102
}
330
117
100
AcDbDimAssoc
330
10D
 90
        2
 70
     0
 71
     0
  1
AcDbOsnapPointRef
 72
     3
331
96
 73
     2
 91
        0
 40
0.0
 10
0.0
 20
0.0
 30
0.0
 75
     0
  0
DIMASSOC
  5
130
102
{ACAD_REACTORS
330
129
102
}
330
129
100
AcDbDimAssoc
330
11F
 90
        2
 70
     0
 71
     0
  1
AcDbOsnapPointRef
 72
     3
331
98
 73
     2
 91
        0
 40
0.0
 10
0.0
 20
0.0
 30
0.0
 75
     0
  0
XRECORD
  5
4B2
102
{ACAD_REACTORS
330
4B1
102
}
330
4B1
100
AcDbXrecord
280
     1
 40
11011.0
  1
\pt5.6;{\C3;Unit: INCH}
  0
LAYOUT
  5
59
102
{ACAD_XDICTIONARY
360
4AD
102
}
102
{ACAD_REACTORS
330
1A
102
}
330
1A
100
AcDbPlotSettings
  1

  2
None
  4

  6

 40
0.0
 41
0.0
 42
0.0
 43
0.0
 44
0.0
 45
0.0
 46
0.0
 47
0.0
 48
0.0
 49
0.0
140
0.0
141
0.0
142
1.0
143
1.0
 70
   688
 72
     0
 73
     0
 74
     5
  7

 75
    16
147
1.0
148
0.0
149
0.0
100
AcDbLayout
  1
Layout1
 70
     1
 71
     1
 10
0.0
 20
0.0
 11
12.0
 21
9.0
 12
0.0
 22
0.0
 32
0.0
 14
0.0
 24
0.0
 34
0.0
 15
0.0
 25
0.0
 35
0.0
146
0.0
 13
0.0
 23
0.0
 33
0.0
 16
1.0
 26
0.0
 36
0.0
 17
0.0
 27
1.0
 37
0.0
 76
     0
330
58
  0
LAYOUT
  5
5E
102
{ACAD_XDICTIONARY
360
4AF
102
}
102
{ACAD_REACTORS
330
1A
102
}
330
1A
100
AcDbPlotSettings
  1

  2
None
  4

  6

 40
0.0
 41
0.0
 42
0.0
 43
0.0
 44
0.0
 45
0.0
 46
0.0
 47
0.0
 48
0.0
 49
0.0
140
0.0
141
0.0
142
1.0
143
1.0
 70
   688
 72
     0
 73
     0
 74
     5
  7

 75
    16
147
1.0
148
0.0
149
0.0
100
AcDbLayout
  1
Layout2
 70
     1
 71
     2
 10
0.0
 20
0.0
 11
12.0
 21
9.0
 12
0.0
 22
0.0
 32
0.0
 14
0.0
 24
0.0
 34
0.0
 15
0.0
 25
0.0
 35
0.0
146
0.0
 13
0.0
 23
0.0
 33
0.0
 16
1.0
 26
0.0
 36
0.0
 17
0.0
 27
1.0
 37
0.0
 76
     0
330
5D
  0
LAYOUT
  5
22
102
{ACAD_XDICTIONARY
360
4AB
102
}
102
{ACAD_REACTORS
330
1A
102
}
330
1A
100
AcDbPlotSettings
  1

  2
none_device
  4
ANSI_A_(8.50_x_11.00_Inches)
  6

 40
6.349999904632567
 41
19.04999923706055
 42
6.350006103515625
 43
19.04998779296875
 44
215.8999938964844
 45
279.3999938964844
 46
0.0
 47
0.0
 48
0.0
 49
0.0
140
0.0
141
0.0
142
1.0
143
2.584895464708373
 70
 11952
 72
     0
 73
     1
 74
     0
  7

 75
     0
147
0.3868628397755418
148
0.0
149
0.0
100
AcDbLayout
  1
Model
 70
     1
 71
     0
 10
0.0
 20
0.0
 11
12.0
 21
9.0
 12
0.0
 22
0.0
 32
0.0
 14
0.0
 24
0.0
 34
0.0
 15
0.0
 25
0.0
 35
0.0
146
0.0
 13
0.0
 23
0.0
 33
0.0
 16
1.0
 26
0.0
 36
0.0
 17
0.0
 27
1.0
 37
0.0
 76
     0
330
1F
  0
MLINESTYLE
  5
18
102
{ACAD_REACTORS
330
17
102
}
330
17
100
AcDbMlineStyle
  2
STANDARD
 70
     0
  3

 62
   256
 51
90.0
 52
90.0
 71
     2
 49
0.5
 62
   256
  6
BYLAYER
 49
-0.5
 62
   256
  6
BYLAYER
  0
ACDBPLACEHOLDER
  5
F
102
{ACAD_REACTORS
330
E
102
}
330
E
  0
TABLESTYLE
  5
87
102
{ACAD_REACTORS
330
86
102
}
330
86
100
AcDbTableStyle
  3
Standard
 70
     0
 71
     0
 40
0.06
 41
0.06
280
     0
281
     0
  7
Standard
140
0.18
170
     2
 62
     0
 63
     7
283
     0
274
    -2
284
     1
 64
     0
275
    -2
285
     1
 65
     0
276
    -2
286
     1
 66
     0
277
    -2
287
     1
 67
     0
278
    -2
288
     1
 68
     0
279
    -2
289
     1
 69
     0
  7
Standard
140
0.25
170
     5
 62
     0
 63
     7
283
     0
274
    -2
284
     1
 64
     0
275
    -2
285
     1
 65
     0
276
    -2
286
     1
 66
     0
277
    -2
287
     1
 67
     0
278
    -2
288
     1
 68
     0
279
    -2
289
     1
 69
     0
  7
Standard
140
0.18
170
     5
 62
     0
 63
     7
283
     0
274
    -2
284
     1
 64
     0
275
    -2
285
     1
 65
     0
276
    -2
286
     1
 66
     0
277
    -2
287
     1
 67
     0
278
    -2
288
     1
 68
     0
279
    -2
289
     1
 69
     0
  0
DICTIONARYVAR
  5
9A
102
{ACAD_REACTORS
330
66
102
}
330
66
100
DictionaryVariables
280
     0
  1
STANDARD
  0
DICTIONARYVAR
  5
67
102
{ACAD_REACTORS
330
66
102
}
330
66
100
DictionaryVariables
280
     0
  1
2
  0
DICTIONARYVAR
  5
6B
102
{ACAD_REACTORS
330
66
102
}
330
66
100
DictionaryVariables
280
     0
  1
1
  0
DICTIONARYVAR
  5
9B
102
{ACAD_REACTORS
330
66
102
}
330
66
100
DictionaryVariables
280
     0
  1

  0
DICTIONARY
  5
4AD
330
59
100
AcDbDictionary
280
     1
281
     1
  3
ACAD_XREC_ROUNDTRIP
360
4AE
  0
DICTIONARY
  5
4AF
330
5E
100
AcDbDictionary
280
     1
281
     1
  3
ACAD_XREC_ROUNDTRIP
360
4B0
  0
DICTIONARY
  5
4AB
330
22
100
AcDbDictionary
280
     1
281
     1
  3
ACAD_XREC_ROUNDTRIP
360
4AC
  0
XRECORD
  5
4AE
102
{ACAD_REACTORS
330
4AD
102
}
330
4AD
100
AcDbXrecord
280
     1
102
SHADEPLOT
 70
     0
102
SHADEPLOTRESLEVEL
 70
     2
102
SHADEPLOTCUSTOMDPI
 70
   300
  0
XRECORD
  5
4B0
102
{ACAD_REACTORS
330
4AF
102
}
330
4AF
100
AcDbXrecord
280
     1
102
SHADEPLOT
 70
     0
102
SHADEPLOTRESLEVEL
 70
     2
102
SHADEPLOTCUSTOMDPI
 70
   300
  0
XRECORD
  5
4AC
102
{ACAD_REACTORS
330
4AB
102
}
330
4AB
100
AcDbXrecord
280
     1
102
SHADEPLOT
 70
     0
102
SHADEPLOTRESLEVEL
 70
     2
102
SHADEPLOTCUSTOMDPI
 70
   300
  0
ENDSEC
  0
EOF
