  0
SECTION
  2
HEADER
  9
$ACADVER
  1
AC1015
  9
$ACADMAINTVER
 70
    20
  9
$DWGCODEPAGE
  3
ANSI_1252
  9
$INSBASE
 10
0.0
 20
0.0
 30
0.0
  9
$EXTMIN
 10
5.529782815564789
 20
3.130846824947024
 30
0.0
  9
$EXTMAX
 10
62.56585923116499
 20
27.28284037812215
 30
0.0
  9
$LIMMIN
 10
0.0
 20
0.0
  9
$LIMMAX
 10
12.0
 20
9.0
  9
$ORTHOMODE
 70
     0
  9
$REGENMODE
 70
     1
  9
$FILLMODE
 70
     1
  9
$QTEXTMODE
 70
     0
  9
$MIRRTEXT
 70
     0
  9
$LTSCALE
 40
1.0
  9
$ATTMODE
 70
     1
  9
$TEXTSIZE
 40
0.4
  9
$TRACEWID
 40
0.05
  9
$TEXTSTYLE
  7
Standard
  9
$CLAYER
  8
0
  9
$CELTYPE
  6
ByLayer
  9
$CECOLOR
 62
   256
  9
$CELTSCALE
 40
1.0
  9
$DISPSILH
 70
     0
  9
$DIMSCALE
 40
1.0
  9
$DIMASZ
 40
0.18
  9
$DIMEXO
 40
0.0
  9
$DIMDLI
 40
0.0
  9
$DIMRND
 40
0.0
  9
$DIMDLE
 40
0.0
  9
$DIMEXE
 40
0.0
  9
$DIMTP
 40
0.0
  9
$DIMTM
 40
0.0
  9
$DIMTXT
 40
0.4
  9
$DIMCEN
 40
0.09
  9
$DIMTSZ
 40
0.0
  9
$DIMTOL
 70
     0
  9
$DIMLIM
 70
     0
  9
$DIMTIH
 70
     1
  9
$DIMTOH
 70
     1
  9
$DIMSE1
 70
     0
  9
$DIMSE2
 70
     0
  9
$DIMTAD
 70
     0
  9
$DIMZIN
 70
     0
  9
$DIMBLK
  1
Dot
  9
$DIMASO
 70
     1
  9
$DIMSHO
 70
     1
  9
$DIMPOST
  1

  9
$DIMAPOST
  1

  9
$DIMALT
 70
     0
  9
$DIMALTD
 70
     2
  9
$DIMALTF
 40
25.4
  9
$DIMLFAC
 40
1.0
  9
$DIMTOFL
 70
     0
  9
$DIMTVP
 40
0.0
  9
$DIMTIX
 70
     0
  9
$DIMSOXD
 70
     0
  9
$DIMSAH
 70
     0
  9
$DIMBLK1
  1

  9
$DIMBLK2
  1

  9
$DIMSTYLE
  2
Standard
  9
$DIMCLRD
 70
     3
  9
$DIMCLRE
 70
     3
  9
$DIMCLRT
 70
     2
  9
$DIMTFAC
 40
1.0
  9
$DIMGAP
 40
0.09
  9
$DIMJUST
 70
     0
  9
$DIMSD1
 70
     0
  9
$DIMSD2
 70
     0
  9
$DIMTOLJ
 70
     1
  9
$DIMTZIN
 70
     0
  9
$DIMALTZ
 70
     0
  9
$DIMALTTZ
 70
     0
  9
$DIMUPT
 70
     0
  9
$DIMDEC
 70
     4
  9
$DIMTDEC
 70
     4
  9
$DIMALTU
 70
     2
  9
$DIMALTTD
 70
     2
  9
$DIMTXSTY
  7
Standard
  9
$DIMAUNIT
 70
     0
  9
$DIMADEC
 70
     0
  9
$DIMALTRND
 40
0.0
  9
$DIMAZIN
 70
     0
  9
$DIMDSEP
 70
    46
  9
$DIMATFIT
 70
     3
  9
$DIMFRAC
 70
     1
  9
$DIMLDRBLK
  1

  9
$DIMLUNIT
 70
     5
  9
$DIMLWD
 70
    -2
  9
$DIMLWE
 70
    -2
  9
$DIMTMOVE
 70
     0
  9
$LUNITS
 70
     2
  9
$LUPREC
 70
     4
  9
$SKETCHINC
 40
0.1
  9
$FILLETRAD
 40
0.7874
  9
$AUNITS
 70
     0
  9
$AUPREC
 70
     0
  9
$MENU
  1
.
  9
$ELEVATION
 40
0.0
  9
$PELEVATION
 40
0.0
  9
$THICKNESS
 40
0.0
  9
$LIMCHECK
 70
     0
  9
$CHAMFERA
 40
0.0
  9
$CHAMFERB
 40
0.0
  9
$CHAMFERC
 40
0.0
  9
$CHAMFERD
 40
0.0
  9
$SKPOLY
 70
     0
  9
$TDCREATE
 40
2456280.523976771
  9
$TDUCREATE
 40
2456280.773976771
  9
$TDUPDATE
 40
2456280.609566331
  9
$TDUUPDATE
 40
2456280.859566331
  9
$TDINDWG
 40
0.0401895255
  9
$TDUSRTIMER
 40
0.0401893519
  9
$USRTIMER
 70
     1
  9
$ANGBASE
 50
0.0
  9
$ANGDIR
 70
     0
  9
$PDMODE
 70
     0
  9
$PDSIZE
 40
0.0
  9
$PLINEWID
 40
0.0
  9
$SPLFRAME
 70
     0
  9
$SPLINETYPE
 70
     6
  9
$SPLINESEGS
 70
     8
  9
$HANDSEED
  5
222
  9
$SURFTAB1
 70
     6
  9
$SURFTAB2
 70
     6
  9
$SURFTYPE
 70
     6
  9
$SURFU
 70
     6
  9
$SURFV
 70
     6
  9
$UCSBASE
  2

  9
$UCSNAME
  2

  9
$UCSORG
 10
0.0
 20
0.0
 30
0.0
  9
$UCSXDIR
 10
1.0
 20
0.0
 30
0.0
  9
$UCSYDIR
 10
0.0
 20
1.0
 30
0.0
  9
$UCSORTHOREF
  2

  9
$UCSORTHOVIEW
 70
     0
  9
$UCSORGTOP
 10
0.0
 20
0.0
 30
0.0
  9
$UCSORGBOTTOM
 10
0.0
 20
0.0
 30
0.0
  9
$UCSORGLEFT
 10
0.0
 20
0.0
 30
0.0
  9
$UCSORGRIGHT
 10
0.0
 20
0.0
 30
0.0
  9
$UCSORGFRONT
 10
0.0
 20
0.0
 30
0.0
  9
$UCSORGBACK
 10
0.0
 20
0.0
 30
0.0
  9
$PUCSBASE
  2

  9
$PUCSNAME
  2

  9
$PUCSORG
 10
0.0
 20
0.0
 30
0.0
  9
$PUCSXDIR
 10
1.0
 20
0.0
 30
0.0
  9
$PUCSYDIR
 10
0.0
 20
1.0
 30
0.0
  9
$PUCSORTHOREF
  2

  9
$PUCSORTHOVIEW
 70
     0
  9
$PUCSORGTOP
 10
0.0
 20
0.0
 30
0.0
  9
$PUCSORGBOTTOM
 10
0.0
 20
0.0
 30
0.0
  9
$PUCSORGLEFT
 10
0.0
 20
0.0
 30
0.0
  9
$PUCSORGRIGHT
 10
0.0
 20
0.0
 30
0.0
  9
$PUCSORGFRONT
 10
0.0
 20
0.0
 30
0.0
  9
$PUCSORGBACK
 10
0.0
 20
0.0
 30
0.0
  9
$USERI1
 70
     0
  9
$USERI2
 70
     0
  9
$USERI3
 70
     0
  9
$USERI4
 70
     0
  9
$USERI5
 70
     0
  9
$USERR1
 40
0.0
  9
$USERR2
 40
0.0
  9
$USERR3
 40
0.0
  9
$USERR4
 40
0.0
  9
$USERR5
 40
0.0
  9
$WORLDVIEW
 70
     1
  9
$SHADEDGE
 70
     3
  9
$SHADEDIF
 70
    70
  9
$TILEMODE
 70
     1
  9
$MAXACTVP
 70
    64
  9
$PINSBASE
 10
0.0
 20
0.0
 30
0.0
  9
$PLIMCHECK
 70
     0
  9
$PEXTMIN
 10
0.0
 20
0.0
 30
0.0
  9
$PEXTMAX
 10
0.0
 20
0.0
 30
0.0
  9
$PLIMMIN
 10
0.0
 20
0.0
  9
$PLIMMAX
 10
12.0
 20
9.0
  9
$UNITMODE
 70
     0
  9
$VISRETAIN
 70
     1
  9
$PLINEGEN
 70
     0
  9
$PSLTSCALE
 70
     1
  9
$TREEDEPTH
 70
  3020
  9
$CMLSTYLE
  2
Standard
  9
$CMLJUST
 70
     0
  9
$CMLSCALE
 40
1.0
  9
$PROXYGRAPHICS
 70
     1
  9
$MEASUREMENT
 70
     0
  9
$CELWEIGHT
370
    -1
  9
$ENDCAPS
280
     0
  9
$JOINSTYLE
280
     0
  9
$LWDISPLAY
290
     0
  9
$INSUNITS
 70
     1
  9
$HYPERLINKBASE
  1

  9
$STYLESHEET
  1

  9
$XEDIT
290
     1
  9
$CEPSNTYPE
380
     0
  9
$PSTYLEMODE
290
     1
  9
$FINGERPRINTGUID
  2
{9AFDF611-6D00-4EA7-B3BE-0554255F643A}
  9
$VERSIONGUID
  2
{7C80AF49-6AEC-45F1-9E8B-D21D9DD5FFAA}
  9
$EXTNAMES
290
     1
  9
$PSVPSCALE
 40
0.0
  9
$OLESTARTUP
290
     0
  0
ENDSEC
  0
SECTION
  2
CLASSES
  0
CLASS
  1
ACDBDICTIONARYWDFLT
  2
AcDbDictionaryWithDefault
  3
ObjectDBX Classes
 90
        0
280
     0
281
     0
  0
CLASS
  1
DICTIONARYVAR
  2
AcDbDictionaryVar
  3
ObjectDBX Classes
 90
        0
280
     0
281
     0
  0
CLASS
  1
TABLESTYLE
  2
AcDbTableStyle
  3
ObjectDBX Classes
 90
     4095
280
     0
281
     0
  0
CLASS
  1
MATERIAL
  2
AcDbMaterial
  3
ObjectDBX Classes
 90
     1153
280
     0
281
     0
  0
CLASS
  1
VISUALSTYLE
  2
AcDbVisualStyle
  3
ObjectDBX Classes
 90
     4095
280
     0
281
     0
  0
CLASS
  1
SORTENTSTABLE
  2
AcDbSortentsTable
  3
ObjectDBX Classes
 90
        0
280
     0
281
     0
  0
CLASS
  1
DIMASSOC
  2
AcDbDimAssoc
  3
"AcDbDimAssoc|Product Desc:     AcDim ARX App For Dimension|Company:          Autodesk, Inc.|WEB Address:      www.autodesk.com"
 90
        0
280
     0
281
     0
  0
CLASS
  1
ACDBPLACEHOLDER
  2
AcDbPlaceHolder
  3
ObjectDBX Classes
 90
        0
280
     0
281
     0
  0
CLASS
  1
LAYOUT
  2
AcDbLayout
  3
ObjectDBX Classes
 90
        0
280
     0
281
     0
  0
ENDSEC
  0
SECTION
  2
TABLES
  0
TABLE
  2
VPORT
  5
8
330
0
100
AcDbSymbolTable
 70
     1
  0
VPORT
  5
92
330
8
100
AcDbSymbolTableRecord
100
AcDbViewportTableRecord
  2
*Active
 70
     0
 10
0.0
 20
0.0
 11
1.0
 21
1.0
 12
33.62196473730887
 22
15.97268922417629
 13
0.0
 23
0.0
 14
0.5
 24
0.5
 15
0.5
 25
0.5
 16
0.0
 26
0.0
 36
1.0
 17
0.0
 27
0.0
 37
0.0
 40
30.11202419517563
 41
2.185920577617328
 42
50.0
 43
0.0
 44
0.0
 50
0.0
 51
0.0
 71
     0
 72
  1000
 73
     1
 74
     3
 75
     0
 76
     0
 77
     0
 78
     0
281
     0
 65
     1
110
0.0
120
0.0
130
0.0
111
1.0
121
0.0
131
0.0
112
0.0
122
1.0
132
0.0
 79
     0
146
0.0
  0
ENDTAB
  0
TABLE
  2
LTYPE
  5
5
330
0
100
AcDbSymbolTable
 70
     1
  0
LTYPE
  5
14
330
5
100
AcDbSymbolTableRecord
100
AcDbLinetypeTableRecord
  2
ByBlock
 70
     0
  3

 72
    65
 73
     0
 40
0.0
  0
LTYPE
  5
15
330
5
100
AcDbSymbolTableRecord
100
AcDbLinetypeTableRecord
  2
ByLayer
 70
     0
  3

 72
    65
 73
     0
 40
0.0
  0
LTYPE
  5
16
330
5
100
AcDbSymbolTableRecord
100
AcDbLinetypeTableRecord
  2
Continuous
 70
     0
  3
Solid line
 72
    65
 73
     0
 40
0.0
  0
ENDTAB
  0
TABLE
  2
LAYER
  5
2
102
{ACAD_XDICTIONARY
360
1D7
102
}
330
0
100
AcDbSymbolTable
 70
     2
  0
LAYER
  5
10
330
2
100
AcDbSymbolTableRecord
100
AcDbLayerTableRecord
  2
0
 70
     0
 62
     7
  6
Continuous
370
    -3
390
F
  0
LAYER
  5
FC
330
2
100
AcDbSymbolTableRecord
100
AcDbLayerTableRecord
  2
Defpoints
 70
     0
 62
     7
  6
Continuous
290
     0
370
    -3
390
F
  0
ENDTAB
  0
TABLE
  2
STYLE
  5
3
330
0
100
AcDbSymbolTable
 70
     1
  0
STYLE
  5
11
330
3
100
AcDbSymbolTableRecord
100
AcDbTextStyleTableRecord
  2
Standard
 70
     0
 40
0.0
 41
1.0
 50
0.0
 71
     0
 42
0.4
  3
txt
  4
gbcbig.shx
  0
ENDTAB
  0
TABLE
  2
VIEW
  5
6
330
0
100
AcDbSymbolTable
 70
     0
  0
ENDTAB
  0
TABLE
  2
UCS
  5
7
330
0
100
AcDbSymbolTable
 70
     0
  0
ENDTAB
  0
TABLE
  2
APPID
  5
9
330
0
100
AcDbSymbolTable
 70
     6
  0
APPID
  5
12
330
9
100
AcDbSymbolTableRecord
100
AcDbRegAppTableRecord
  2
ACAD
 70
     0
  0
APPID
  5
C1
330
9
100
AcDbSymbolTableRecord
100
AcDbRegAppTableRecord
  2
AcadStringInfo
 70
     0
  0
APPID
  5
1D3
330
9
100
AcDbSymbolTableRecord
100
AcDbRegAppTableRecord
  2
ACAD_PSEXT
 70
     0
  0
APPID
  5
1D4
330
9
100
AcDbSymbolTableRecord
100
AcDbRegAppTableRecord
  2
AcadAnnotative
 70
     0
  0
APPID
  5
1D5
330
9
100
AcDbSymbolTableRecord
100
AcDbRegAppTableRecord
  2
ACAD_DSTYLE_DIMJAG
 70
     0
  0
APPID
  5
1D6
330
9
100
AcDbSymbolTableRecord
100
AcDbRegAppTableRecord
  2
ACAD_DSTYLE_DIMTALN
 70
     0
  0
ENDTAB
  0
TABLE
  2
DIMSTYLE
  5
A
330
0
100
AcDbSymbolTable
 70
     4
100
AcDbDimStyleTable
 71
     1
340
27
  0
DIMSTYLE
105
27
102
{ACAD_REACTORS
330
FB
330
116
330
130
330
14A
330
166
330
174
330
18E
102
}
330
A
100
AcDbSymbolTableRecord
100
AcDbDimStyleTableRecord
  2
Standard
 70
     0
 42
0.0
 43
0.0
 44
0.0
140
0.4
176
     3
177
     3
178
     2
276
     1
277
     5
340
11
342
F6
  0
DIMSTYLE
105
1D0
330
A
100
AcDbSymbolTableRecord
100
AcDbDimStyleTableRecord
  2
ISO-25
 70
     0
 41
3.799999999999998
 42
0.0
 43
0.0
 44
0.0
 73
     0
 74
     0
 77
     1
 78
     1
140
10.0
141
2.5
143
0.03937007874016
144
0.03937
147
0.0
171
     3
172
     1
176
     3
177
     3
178
     2
274
     3
276
     1
277
     5
278
    44
283
     0
284
     8
340
11
342
F6
  0
DIMSTYLE
105
1D1
330
A
100
AcDbSymbolTableRecord
100
AcDbDimStyleTableRecord
  2
Annotative
 70
     0
 40
0.0
 41
2.5
 42
0.625
 43
3.75
 44
1.25
 73
     0
 74
     0
 77
     1
 78
     8
140
2.5
141
2.5
143
0.03937007874016
147
0.625
171
     3
172
     1
271
     2
272
     2
274
     3
278
    44
283
     0
284
     8
340
11
1001
AcadAnnotative
1000
AnnotativeData
1002
{
1070
     1
1070
     1
1002
}
1001
ACAD_DSTYLE_DIMJAG
1070
   388
1040
1.5
1001
ACAD_DSTYLE_DIMTALN
1070
   392
1070
     0
  0
DIMSTYLE
105
1D2
330
A
100
AcDbSymbolTableRecord
100
AcDbDimStyleTableRecord
  2
B
 70
     0
 40
7.62
 41
2.0
 42
0.0
 43
0.7
 44
1.5
 73
     0
 74
     0
 77
     1
140
1.9
141
0.0
147
0.6
175
     1
271
     1
272
     1
340
11
  0
ENDTAB
  0
TABLE
  2
BLOCK_RECORD
  5
1
330
0
100
AcDbSymbolTable
 70
    10
  0
BLOCK_RECORD
  5
1F
102
{ACAD_XDICTIONARY
360
CC
102
}
330
1
100
AcDbSymbolTableRecord
100
AcDbBlockTableRecord
  2
*Model_Space
340
22
  0
BLOCK_RECORD
  5
58
330
1
100
AcDbSymbolTableRecord
100
AcDbBlockTableRecord
  2
*Paper_Space
340
59
  0
BLOCK_RECORD
  5
5D
330
1
100
AcDbSymbolTableRecord
100
AcDbBlockTableRecord
  2
*Paper_Space0
340
5E
  0
BLOCK_RECORD
  5
F6
330
1
100
AcDbSymbolTableRecord
100
AcDbBlockTableRecord
  2
_Dot
340
0
102
{BLKREFS
331
10F
331
110
331
129
331
12A
331
143
331
144
331
15F
331
160
331
16C
331
16D
331
187
331
188
331
1A9
102
}
  0
BLOCK_RECORD
  5
FD
330
1
100
AcDbSymbolTableRecord
100
AcDbBlockTableRecord
  2
*D2
340
0
  0
BLOCK_RECORD
  5
117
330
1
100
AcDbSymbolTableRecord
100
AcDbBlockTableRecord
  2
*D3
340
0
  0
BLOCK_RECORD
  5
131
330
1
100
AcDbSymbolTableRecord
100
AcDbBlockTableRecord
  2
*D4
340
0
  0
BLOCK_RECORD
  5
14B
330
1
100
AcDbSymbolTableRecord
100
AcDbBlockTableRecord
  2
*D5
340
0
  0
BLOCK_RECORD
  5
167
330
1
100
AcDbSymbolTableRecord
100
AcDbBlockTableRecord
  2
*D6
340
0
  0
BLOCK_RECORD
  5
175
330
1
100
AcDbSymbolTableRecord
100
AcDbBlockTableRecord
  2
*D7
340
0
  0
BLOCK_RECORD
  5
18F
330
1
100
AcDbSymbolTableRecord
100
AcDbBlockTableRecord
  2
*D8
340
0
  0
BLOCK_RECORD
  5
1D9
102
{ACAD_XDICTIONARY
360
1DD
102
}
330
1
100
AcDbSymbolTableRecord
100
AcDbBlockTableRecord
  2
A$C4B556EE5
340
0
1001
ACAD
1000
DesignCenter Data
1002
{
1070
     1
1070
     4
1002
}
  0
ENDTAB
  0
ENDSEC
  0
SECTION
  2
BLOCKS
  0
BLOCK
  5
20
330
1F
100
AcDbEntity
  8
0
100
AcDbBlockBegin
  2
*Model_Space
 70
     0
 10
0.0
 20
0.0
 30
0.0
  3
*Model_Space
  1

  0
ENDBLK
  5
21
330
1F
100
AcDbEntity
  8
0
100
AcDbBlockEnd
  0
BLOCK
  5
5A
330
58
100
AcDbEntity
 67
     1
  8
0
100
AcDbBlockBegin
  2
*Paper_Space
 70
     0
 10
0.0
 20
0.0
 30
0.0
  3
*Paper_Space
  1

  0
ENDBLK
  5
5B
330
58
100
AcDbEntity
 67
     1
  8
0
100
AcDbBlockEnd
  0
BLOCK
  5
5F
330
5D
100
AcDbEntity
 67
     1
  8
0
100
AcDbBlockBegin
  2
*Paper_Space0
 70
     0
 10
0.0
 20
0.0
 30
0.0
  3
*Paper_Space0
  1

  0
ENDBLK
  5
60
330
5D
100
AcDbEntity
 67
     1
  8
0
100
AcDbBlockEnd
  0
BLOCK
  5
F9
330
F6
100
AcDbEntity
  8
0
100
AcDbBlockBegin
  2
_Dot
 70
     0
 10
0.0
 20
0.0
 30
0.0
  3
_Dot
  1

  0
LWPOLYLINE
  5
F7
330
F6
100
AcDbEntity
  8
0
  6
ByBlock
 62
     0
100
AcDbPolyline
 90
        2
 70
     1
 43
0.5
 10
-0.25
 20
0.0
 42
1.0
 10
0.25
 20
0.0
 42
1.0
  0
LINE
  5
F8
330
F6
100
AcDbEntity
  8
0
  6
ByBlock
 62
     0
370
    -2
100
AcDbLine
 10
-0.5
 20
0.0
 30
0.0
 11
-1.0
 21
0.0
 31
0.0
  0
ENDBLK
  5
FA
330
F6
100
AcDbEntity
  8
0
100
AcDbBlockEnd
  0
BLOCK
  5
108
330
FD
100
AcDbEntity
  8
0
100
AcDbBlockBegin
  2
*D2
 70
     1
 10
0.0
 20
0.0
 30
0.0
  3
*D2
  1

  0
LINE
  5
10B
330
FD
100
AcDbEntity
  8
0
 62
     3
370
    -2
100
AcDbLine
 10
9.240619154421272
 20
23.69324682494702
 30
0.0
 11
9.240619154421272
 21
25.18471389737586
 31
0.0
  0
LINE
  5
10C
330
FD
100
AcDbEntity
  8
0
 62
     3
370
    -2
100
AcDbLine
 10
10.02801915442127
 20
24.48064682494702
 30
0.0
 11
10.02801915442127
 21
25.18471389737586
 31
0.0
  0
LINE
  5
10D
330
FD
100
AcDbEntity
  8
0
 62
     3
370
    -2
100
AcDbLine
 10
9.42061915442127
 20
25.18471389737586
 30
0.0
 11
9.848019154421272
 21
25.18471389737586
 31
0.0
  0
LINE
  5
10E
330
FD
100
AcDbEntity
  8
0
 62
     3
370
    -2
100
AcDbLine
 10
10.02801915442127
 20
25.18471389737586
 30
0.0
 11
10.20801915442127
 21
25.18471389737586
 31
0.0
  0
INSERT
  5
10F
330
FD
100
AcDbEntity
  8
0
 62
     3
370
    -2
100
AcDbBlockReference
  2
_Dot
 10
9.240619154421272
 20
25.18471389737586
 30
0.0
 41
0.18
 42
0.18
 43
0.18
 50
180.0
  0
INSERT
  5
110
330
FD
100
AcDbEntity
  8
0
 62
     3
370
    -2
100
AcDbBlockReference
  2
_Dot
 10
10.02801915442127
 20
25.18471389737586
 30
0.0
 41
0.18
 42
0.18
 43
0.18
  0
MTEXT
  5
111
102
{ACAD_XDICTIONARY
360
212
102
}
330
FD
100
AcDbEntity
  8
0
 62
     2
100
AcDbMText
 10
10.89801915442127
 20
25.18471389737586
 30
0.0
 40
0.4
 41
0.0
 71
     5
 72
     1
  1
\A1;\S13/16;
 73
     1
 44
1.0
1001
ACAD
1000
MTEXTBEGIN
1070
    73
1070
     1
1070
    44
1040
1.0
1070
    74
1070
     0
1000
MTEXTEND
  0
POINT
  5
112
330
FD
100
AcDbEntity
  8
Defpoints
 62
     0
100
AcDbPoint
 10
9.240619154421272
 20
23.69324682494702
 30
0.0
  0
POINT
  5
113
330
FD
100
AcDbEntity
  8
Defpoints
 62
     0
100
AcDbPoint
 10
10.02801915442127
 20
24.48064682494702
 30
0.0
  0
POINT
  5
114
330
FD
100
AcDbEntity
  8
Defpoints
 62
     0
100
AcDbPoint
 10
10.02801915442127
 20
25.18471389737586
 30
0.0
  0
ENDBLK
  5
109
330
FD
100
AcDbEntity
  8
0
100
AcDbBlockEnd
  0
BLOCK
  5
122
330
117
100
AcDbEntity
  8
0
100
AcDbBlockBegin
  2
*D3
 70
     1
 10
0.0
 20
0.0
 30
0.0
  3
*D3
  1

  0
LINE
  5
125
330
117
100
AcDbEntity
  8
0
 62
     3
370
    -2
100
AcDbLine
 10
9.240619154421272
 20
23.69324682494702
 30
0.0
 11
9.240619154421272
 21
25.94594301685584
 31
0.0
  0
LINE
  5
126
330
117
100
AcDbEntity
  8
0
 62
     3
370
    -2
100
AcDbLine
 10
40.65791915442127
 20
24.48064682494702
 30
0.0
 11
40.65791915442127
 21
25.94594301685584
 31
0.0
  0
LINE
  5
127
330
117
100
AcDbEntity
  8
0
 62
     3
370
    -2
100
AcDbLine
 10
9.42061915442127
 20
25.94594301685584
 30
0.0
 11
24.05926915442127
 21
25.94594301685584
 31
0.0
  0
LINE
  5
128
330
117
100
AcDbEntity
  8
0
 62
     3
370
    -2
100
AcDbLine
 10
40.47791915442127
 20
25.94594301685584
 30
0.0
 11
25.83926915442127
 21
25.94594301685584
 31
0.0
  0
INSERT
  5
129
330
117
100
AcDbEntity
  8
0
 62
     3
370
    -2
100
AcDbBlockReference
  2
_Dot
 10
9.240619154421272
 20
25.94594301685584
 30
0.0
 41
0.18
 42
0.18
 43
0.18
 50
180.0
  0
INSERT
  5
12A
330
117
100
AcDbEntity
  8
0
 62
     3
370
    -2
100
AcDbBlockReference
  2
_Dot
 10
40.65791915442127
 20
25.94594301685584
 30
0.0
 41
0.18
 42
0.18
 43
0.18
  0
MTEXT
  5
12B
102
{ACAD_XDICTIONARY
360
214
102
}
330
117
100
AcDbEntity
  8
0
 62
     2
100
AcDbMText
 10
24.94926915442127
 20
25.94594301685584
 30
0.0
 40
0.4
 41
0.0
 71
     5
 72
     1
  1
\A1;31\S7/16;
 73
     1
 44
1.0
1001
ACAD
1000
MTEXTBEGIN
1070
    73
1070
     1
1070
    44
1040
1.0
1070
    74
1070
     0
1000
MTEXTEND
  0
POINT
  5
12C
330
117
100
AcDbEntity
  8
Defpoints
 62
     0
100
AcDbPoint
 10
9.240619154421272
 20
23.69324682494702
 30
0.0
  0
POINT
  5
12D
330
117
100
AcDbEntity
  8
Defpoints
 62
     0
100
AcDbPoint
 10
40.65791915442127
 20
24.48064682494702
 30
0.0
  0
POINT
  5
12E
330
117
100
AcDbEntity
  8
Defpoints
 62
     0
100
AcDbPoint
 10
40.65791915442127
 20
25.94594301685584
 30
0.0
  0
ENDBLK
  5
123
330
117
100
AcDbEntity
  8
0
100
AcDbBlockEnd
  0
BLOCK
  5
13C
330
131
100
AcDbEntity
  8
0
100
AcDbBlockBegin
  2
*D4
 70
     1
 10
0.0
 20
0.0
 30
0.0
  3
*D4
  1

  0
LINE
  5
13F
330
131
100
AcDbEntity
  8
0
 62
     3
370
    -2
100
AcDbLine
 10
9.240619154421272
 20
23.69324682494702
 30
0.0
 11
9.240619154421272
 21
26.88284037812216
 31
0.0
  0
LINE
  5
140
330
131
100
AcDbEntity
  8
0
 62
     3
370
    -2
100
AcDbLine
 10
41.44531915442127
 20
23.69324682494702
 30
0.0
 11
41.44531915442127
 21
26.88284037812216
 31
0.0
  0
LINE
  5
141
330
131
100
AcDbEntity
  8
0
 62
     3
370
    -2
100
AcDbLine
 10
9.42061915442127
 20
26.88284037812216
 30
0.0
 11
24.3863024877546
 21
26.88284037812216
 31
0.0
  0
LINE
  5
142
330
131
100
AcDbEntity
  8
0
 62
     3
370
    -2
100
AcDbLine
 10
41.26531915442127
 20
26.88284037812216
 30
0.0
 11
26.29963582108794
 21
26.88284037812216
 31
0.0
  0
INSERT
  5
143
330
131
100
AcDbEntity
  8
0
 62
     3
370
    -2
100
AcDbBlockReference
  2
_Dot
 10
9.240619154421272
 20
26.88284037812216
 30
0.0
 41
0.18
 42
0.18
 43
0.18
 50
180.0
  0
INSERT
  5
144
330
131
100
AcDbEntity
  8
0
 62
     3
370
    -2
100
AcDbBlockReference
  2
_Dot
 10
41.44531915442127
 20
26.88284037812216
 30
0.0
 41
0.18
 42
0.18
 43
0.18
  0
MTEXT
  5
145
102
{ACAD_XDICTIONARY
360
216
102
}
330
131
100
AcDbEntity
  8
0
 62
     2
100
AcDbMText
 10
25.34296915442127
 20
26.88284037812216
 30
0.0
 40
0.4
 41
0.0
 71
     5
 72
     1
  1
\A1;32\S3/16;
 73
     1
 44
1.0
1001
ACAD
1000
MTEXTBEGIN
1070
    73
1070
     1
1070
    44
1040
1.0
1070
    74
1070
     0
1000
MTEXTEND
  0
POINT
  5
146
330
131
100
AcDbEntity
  8
Defpoints
 62
     0
100
AcDbPoint
 10
9.240619154421272
 20
23.69324682494702
 30
0.0
  0
POINT
  5
147
330
131
100
AcDbEntity
  8
Defpoints
 62
     0
100
AcDbPoint
 10
41.44531915442127
 20
23.69324682494702
 30
0.0
  0
POINT
  5
148
330
131
100
AcDbEntity
  8
Defpoints
 62
     0
100
AcDbPoint
 10
41.44531915442127
 20
26.88284037812216
 30
0.0
  0
ENDBLK
  5
13D
330
131
100
AcDbEntity
  8
0
100
AcDbBlockEnd
  0
BLOCK
  5
157
330
14B
100
AcDbEntity
  8
0
100
AcDbBlockBegin
  2
*D5
 70
     1
 10
0.0
 20
0.0
 30
0.0
  3
*D5
  1

  0
LINE
  5
15A
330
14B
100
AcDbEntity
  8
0
 62
     3
370
    -2
100
AcDbLine
 10
10.02801915442127
 20
3.220846824947023
 30
0.0
 11
7.712496072927508
 21
3.220846824947023
 31
0.0
  0
LINE
  5
15B
330
14B
100
AcDbEntity
  8
0
 62
     3
370
    -2
100
AcDbLine
 10
9.240619154421267
 20
4.008246824947024
 30
0.0
 11
7.712496072927508
 21
4.008246824947024
 31
0.0
  0
LINE
  5
15C
330
14B
100
AcDbEntity
  8
0
 62
     3
370
    -2
100
AcDbLine
 10
7.712496072927508
 20
3.400846824947024
 30
0.0
 11
7.712496072927508
 21
3.828246824947024
 31
0.0
  0
LINE
  5
15D
330
14B
100
AcDbEntity
  8
0
 62
     3
370
    -2
100
AcDbLine
 10
7.712496072927508
 20
4.008246824947024
 30
0.0
 11
7.712496072927508
 21
4.188246824947023
 31
0.0
  0
LINE
  5
15E
330
14B
100
AcDbEntity
  8
0
 62
     3
370
    -2
100
AcDbLine
 10
7.712496072927508
 20
4.188246824947023
 30
0.0
 11
7.892496072927507
 21
4.188246824947023
 31
0.0
  0
INSERT
  5
15F
330
14B
100
AcDbEntity
  8
0
 62
     3
370
    -2
100
AcDbBlockReference
  2
_Dot
 10
7.712496072927508
 20
3.220846824947023
 30
0.0
 41
0.18
 42
0.18
 43
0.18
 50
270.0
  0
INSERT
  5
160
330
14B
100
AcDbEntity
  8
0
 62
     3
370
    -2
100
AcDbBlockReference
  2
_Dot
 10
7.712496072927508
 20
4.008246824947024
 30
0.0
 41
0.18
 42
0.18
 43
0.18
 50
90.0
  0
MTEXT
  5
161
102
{ACAD_XDICTIONARY
360
218
102
}
330
14B
100
AcDbEntity
  8
0
 62
     2
100
AcDbMText
 10
8.582496072927506
 20
4.188246824947023
 30
0.0
 40
0.4
 41
0.0
 71
     5
 72
     1
  1
\A1;\S13/16;
 73
     1
 44
1.0
1001
ACAD
1000
MTEXTBEGIN
1070
    73
1070
     1
1070
    44
1040
1.0
1070
    74
1070
     0
1000
MTEXTEND
  0
POINT
  5
162
330
14B
100
AcDbEntity
  8
Defpoints
 62
     0
100
AcDbPoint
 10
10.02801915442127
 20
3.220846824947023
 30
0.0
  0
POINT
  5
163
330
14B
100
AcDbEntity
  8
Defpoints
 62
     0
100
AcDbPoint
 10
9.240619154421267
 20
4.008246824947024
 30
0.0
  0
POINT
  5
164
330
14B
100
AcDbEntity
  8
Defpoints
 62
     0
100
AcDbPoint
 10
7.712496072927508
 20
4.008246824947024
 30
0.0
  0
ENDBLK
  5
158
330
14B
100
AcDbEntity
  8
0
100
AcDbBlockEnd
  0
BLOCK
  5
172
330
167
100
AcDbEntity
  8
0
100
AcDbBlockBegin
  2
*D6
 70
     1
 10
0.0
 20
0.0
 30
0.0
  3
*D6
  1

  0
LINE
  5
168
330
167
100
AcDbEntity
  8
0
 62
     3
370
    -2
100
AcDbLine
 10
10.02801915442127
 20
3.220846824947023
 30
0.0
 11
7.419401025267741
 21
3.220846824947023
 31
0.0
  0
LINE
  5
169
330
167
100
AcDbEntity
  8
0
 62
     3
370
    -2
100
AcDbLine
 10
9.240619154421272
 20
23.69324682494702
 30
0.0
 11
7.419401025267744
 21
23.69324682494702
 31
0.0
  0
LINE
  5
16A
330
167
100
AcDbEntity
  8
0
 62
     3
370
    -2
100
AcDbLine
 10
7.419401025267741
 20
3.400846824947024
 30
0.0
 11
7.419401025267741
 21
12.96704682494702
 31
0.0
  0
LINE
  5
16B
330
167
100
AcDbEntity
  8
0
 62
     3
370
    -2
100
AcDbLine
 10
7.419401025267744
 20
23.51324682494702
 30
0.0
 11
7.419401025267741
 21
13.94704682494702
 31
0.0
  0
INSERT
  5
16C
330
167
100
AcDbEntity
  8
0
 62
     3
370
    -2
100
AcDbBlockReference
  2
_Dot
 10
7.419401025267741
 20
3.220846824947023
 30
0.0
 41
0.18
 42
0.18
 43
0.18
 50
270.0
  0
INSERT
  5
16D
330
167
100
AcDbEntity
  8
0
 62
     3
370
    -2
100
AcDbBlockReference
  2
_Dot
 10
7.419401025267744
 20
23.69324682494702
 30
0.0
 41
0.18
 42
0.18
 43
0.18
 50
90.0
  0
MTEXT
  5
16E
102
{ACAD_XDICTIONARY
360
21A
102
}
330
167
100
AcDbEntity
  8
0
 62
     2
100
AcDbMText
 10
7.419401025267741
 20
13.45704682494702
 30
0.0
 40
0.4
 41
0.0
 71
     5
 72
     1
  1
\A1;20\S1/2;
 73
     1
 44
1.0
1001
ACAD
1000
MTEXTBEGIN
1070
    73
1070
     1
1070
    44
1040
1.0
1070
    74
1070
     0
1000
MTEXTEND
  0
POINT
  5
16F
330
167
100
AcDbEntity
  8
Defpoints
 62
     0
100
AcDbPoint
 10
10.02801915442127
 20
3.220846824947023
 30
0.0
  0
POINT
  5
170
330
167
100
AcDbEntity
  8
Defpoints
 62
     0
100
AcDbPoint
 10
9.240619154421272
 20
23.69324682494702
 30
0.0
  0
POINT
  5
171
330
167
100
AcDbEntity
  8
Defpoints
 62
     0
100
AcDbPoint
 10
7.419401025267744
 20
23.69324682494702
 30
0.0
  0
ENDBLK
  5
173
330
167
100
AcDbEntity
  8
0
100
AcDbBlockEnd
  0
BLOCK
  5
180
330
175
100
AcDbEntity
  8
0
100
AcDbBlockBegin
  2
*D7
 70
     1
 10
0.0
 20
0.0
 30
0.0
  3
*D7
  1

  0
LINE
  5
183
330
175
100
AcDbEntity
  8
0
 62
     3
370
    -2
100
AcDbLine
 10
10.02801915442127
 20
3.220846824947023
 30
0.0
 11
6.129782815564789
 21
3.220846824947025
 31
0.0
  0
LINE
  5
184
330
175
100
AcDbEntity
  8
0
 62
     3
370
    -2
100
AcDbLine
 10
10.02801915442126
 20
24.48064682494702
 30
0.0
 11
6.129782815564794
 21
24.48064682494702
 31
0.0
  0
LINE
  5
185
330
175
100
AcDbEntity
  8
0
 62
     3
370
    -2
100
AcDbLine
 10
6.129782815564789
 20
3.400846824947025
 30
0.0
 11
6.129782815564793
 21
13.36074682494702
 31
0.0
  0
LINE
  5
186
330
175
100
AcDbEntity
  8
0
 62
     3
370
    -2
100
AcDbLine
 10
6.129782815564794
 20
24.30064682494702
 30
0.0
 11
6.129782815564793
 21
14.34074682494702
 31
0.0
  0
INSERT
  5
187
330
175
100
AcDbEntity
  8
0
 62
     3
370
    -2
100
AcDbBlockReference
  2
_Dot
 10
6.129782815564789
 20
3.220846824947025
 30
0.0
 41
0.18
 42
0.18
 43
0.18
 50
270.0
  0
INSERT
  5
188
330
175
100
AcDbEntity
  8
0
 62
     3
370
    -2
100
AcDbBlockReference
  2
_Dot
 10
6.129782815564794
 20
24.48064682494702
 30
0.0
 41
0.18
 42
0.18
 43
0.18
 50
90.0
  0
MTEXT
  5
189
102
{ACAD_XDICTIONARY
360
21C
102
}
330
175
100
AcDbEntity
  8
0
 62
     2
100
AcDbMText
 10
6.129782815564789
 20
13.85074682494702
 30
0.0
 40
0.4
 41
0.0
 71
     5
 72
     1
  1
\A1;21\S1/4;
 73
     1
 44
1.0
1001
ACAD
1000
MTEXTBEGIN
1070
    73
1070
     1
1070
    44
1040
1.0
1070
    74
1070
     0
1000
MTEXTEND
  0
POINT
  5
18A
330
175
100
AcDbEntity
  8
Defpoints
 62
     0
100
AcDbPoint
 10
10.02801915442127
 20
3.220846824947023
 30
0.0
  0
POINT
  5
18B
330
175
100
AcDbEntity
  8
Defpoints
 62
     0
100
AcDbPoint
 10
10.02801915442126
 20
24.48064682494702
 30
0.0
  0
POINT
  5
18C
330
175
100
AcDbEntity
  8
Defpoints
 62
     0
100
AcDbPoint
 10
6.129782815564794
 20
24.48064682494702
 30
0.0
  0
ENDBLK
  5
181
330
175
100
AcDbEntity
  8
0
100
AcDbBlockEnd
  0
BLOCK
  5
196
330
18F
100
AcDbEntity
  8
0
100
AcDbBlockBegin
  2
*D8
 70
     1
 10
0.0
 20
0.0
 30
0.0
  3
*D8
  1

  0
LINE
  5
1A6
330
18F
100
AcDbEntity
  8
0
 62
     3
370
    -2
100
AcDbLine
 10
10.20801915442128
 20
23.69324682494703
 30
0.0
 11
10.02801915442128
 21
23.69324682494703
 31
0.0
  0
LINE
  5
1A7
330
18F
100
AcDbEntity
  8
0
 62
     3
370
    -2
100
AcDbLine
 10
10.02801915442128
 20
23.69324682494703
 30
0.0
 11
9.56897753251726
 21
24.09101000745606
 31
0.0
  0
MTEXT
  5
1A8
102
{ACAD_XDICTIONARY
360
21E
102
}
330
18F
100
AcDbEntity
  8
0
 62
     2
100
AcDbMText
 10
11.09801915442128
 20
23.69324682494703
 30
0.0
 40
0.4
 41
0.0
 71
     5
 72
     1
  1
\A1;R\S13/16;
 73
     1
 44
1.0
1001
ACAD
1000
MTEXTBEGIN
1070
    73
1070
     1
1070
    44
1040
1.0
1070
    74
1070
     0
1000
MTEXTEND
  0
INSERT
  5
1A9
330
18F
100
AcDbEntity
  8
0
 62
     3
370
    -2
100
AcDbBlockReference
  2
_Dot
 10
9.432942807553931
 20
24.20888516855522
 30
0.0
 41
0.18
 42
0.18
 43
0.18
 50
139.0908126442561
  0
POINT
  5
1AA
330
18F
100
AcDbEntity
  8
Defpoints
 62
     0
100
AcDbPoint
 10
9.432942807553931
 20
24.20888516855522
 30
0.0
  0
POINT
  5
1AB
330
18F
100
AcDbEntity
  8
Defpoints
 62
     0
100
AcDbPoint
 10
10.02801915442129
 20
23.69324682494703
 30
0.0
  0
ENDBLK
  5
197
330
18F
100
AcDbEntity
  8
0
100
AcDbBlockEnd
  0
BLOCK
  5
1DF
330
1D9
100
AcDbEntity
  8
0
100
AcDbBlockBegin
  2
A$C4B556EE5
 70
     0
 10
0.0
 20
0.0
 30
0.0
  3
A$C4B556EE5
  1

  0
MTEXT
  5
1DA
102
{ACAD_XDICTIONARY
360
220
102
}
330
1D9
100
AcDbEntity
  8
0
 62
   102
100
AcDbMText
 10
1.514318531386834
 20
199.0512688570767
 30
0.0
 40
15.0
 41
366.5499471002076
 71
     1
 72
     5
  1
{\C3;WELLS SINKWARE\PDTU3121-9\PCUTOUT TEMPLATE}
 73
     1
 44
1.0
1001
ACAD
1000
MTEXTBEGIN
1070
    73
1070
     1
1070
    44
1040
1.0
1070
    74
1070
     0
1000
MTEXTEND
  0
MTEXT
  5
1DB
330
1D9
100
AcDbEntity
  8
0
 62
   102
100
AcDbMText
 10
6.535252419839707
 20
14.99999711706488
 30
0.0
 40
15.0
 41
174.7777777777776
 71
     1
 72
     5
  1
{\C3;UNIT: }INCH
 73
     1
 44
1.0
1001
ACAD
1000
MTEXTBEGIN
1070
    73
1070
     1
1070
    44
1040
1.0
1070
    74
1070
     0
1000
MTEXTEND
  0
MTEXT
  5
1DC
330
1D9
100
AcDbEntity
  8
0
 62
     0
100
AcDbMText
 10
0.0000128132128339
 20
575.8329335874314
 30
0.0
 40
6.0
 41
420.9917950597779
 71
     1
 72
     5
  3
{\H2x;\C4;Notes: \P1. WELLS recommends that Wells Sinkware under-mount sinks be installed by professional countertop fabricators/installers. \P2. The template is only a guide. It's important that you check the template provided with your sink against
  1
 the sink (to assure that template agrees with sink) before cutting the counter top.}
 73
     1
 44
1.0
1001
ACAD
1000
MTEXTBEGIN
1070
    73
1070
     1
1070
    44
1040
1.0
1070
    74
1070
     0
1000
MTEXTEND
  0
ENDBLK
  5
1E0
330
1D9
100
AcDbEntity
  8
0
100
AcDbBlockEnd
  0
ENDSEC
  0
SECTION
  2
ENTITIES
  0
LINE
  5
C7
102
{ACAD_REACTORS
330
18D
102
}
330
1F
100
AcDbEntity
  8
0
100
AcDbLine
 10
10.02801915442127
 20
24.48064682494702
 30
0.0
 11
40.65791915442127
 21
24.48064682494702
 31
0.0
  0
LINE
  5
C8
330
1F
100
AcDbEntity
  8
0
100
AcDbLine
 10
41.44531915442127
 20
23.69324682494702
 30
0.0
 11
41.44531915442127
 21
4.008246824947024
 31
0.0
  0
LINE
  5
C9
330
1F
100
AcDbEntity
  8
0
100
AcDbLine
 10
40.65791915442127
 20
3.220846824947023
 30
0.0
 11
10.02801915442127
 21
3.220846824947023
 31
0.0
  0
LINE
  5
CA
330
1F
100
AcDbEntity
  8
0
100
AcDbLine
 10
9.240619154421267
 20
4.008246824947024
 30
0.0
 11
9.240619154421272
 21
23.69324682494702
 31
0.0
  0
ARC
  5
CB
102
{ACAD_REACTORS
330
115
330
19F
102
}
330
1F
100
AcDbEntity
  8
0
100
AcDbCircle
 10
10.02801915442127
 20
23.69324682494702
 30
0.0
 40
0.7874
100
AcDbArc
 50
90.0
 51
180.0
  0
ARC
  5
CE
102
{ACAD_REACTORS
330
12F
330
149
102
}
330
1F
100
AcDbEntity
  8
0
100
AcDbCircle
 10
40.65791915442127
 20
23.69324682494702
 30
0.0
 40
0.7874
100
AcDbArc
 50
0.0
 51
90.0
  0
ARC
  5
CF
330
1F
100
AcDbEntity
  8
0
100
AcDbCircle
 10
40.65791915442127
 20
4.008246824947024
 30
0.0
 40
0.7874
100
AcDbArc
 50
270.0
 51
0.0
  0
ARC
  5
D0
102
{ACAD_REACTORS
330
165
102
}
330
1F
100
AcDbEntity
  8
0
100
AcDbCircle
 10
10.02801915442127
 20
4.008246824947024
 30
0.0
 40
0.7874
100
AcDbArc
 50
180.0
 51
270.0
  0
DIMENSION
  5
FB
102
{ACAD_XDICTIONARY
360
10A
102
}
102
{ACAD_REACTORS
330
115
102
}
330
1F
100
AcDbEntity
  8
0
100
AcDbDimension
  2
*D2
 10
10.02801915442127
 20
25.18471389737586
 30
0.0
 11
10.89801915442127
 21
25.18471389737586
 31
0.0
 70
    32
 71
     5
 42
0.7873999999999999
  3
Standard
100
AcDbAlignedDimension
 13
9.240619154421272
 23
23.69324682494702
 33
0.0
 14
10.02801915442127
 24
24.48064682494702
 34
0.0
100
AcDbRotatedDimension
  0
DIMENSION
  5
116
102
{ACAD_XDICTIONARY
360
124
102
}
102
{ACAD_REACTORS
330
12F
102
}
330
1F
100
AcDbEntity
  8
0
100
AcDbDimension
  2
*D3
 10
40.65791915442127
 20
25.94594301685584
 30
0.0
 11
24.94926915442127
 21
25.94594301685584
 31
0.0
 70
    32
 71
     5
 42
31.4173
  3
Standard
100
AcDbAlignedDimension
 13
9.240619154421272
 23
23.69324682494702
 33
0.0
 14
40.65791915442127
 24
24.48064682494702
 34
0.0
100
AcDbRotatedDimension
  0
DIMENSION
  5
130
102
{ACAD_XDICTIONARY
360
13E
102
}
102
{ACAD_REACTORS
330
149
102
}
330
1F
100
AcDbEntity
  8
0
100
AcDbDimension
  2
*D4
 10
41.44531915442127
 20
26.88284037812216
 30
0.0
 11
25.34296915442127
 21
26.88284037812216
 31
0.0
 70
    32
 71
     5
 42
32.20470000000001
  3
Standard
100
AcDbAlignedDimension
 13
9.240619154421272
 23
23.69324682494702
 33
0.0
 14
41.44531915442127
 24
23.69324682494702
 34
0.0
100
AcDbRotatedDimension
  0
DIMENSION
  5
14A
102
{ACAD_XDICTIONARY
360
159
102
}
102
{ACAD_REACTORS
330
165
102
}
330
1F
100
AcDbEntity
  8
0
100
AcDbDimension
  2
*D5
 10
7.712496072927508
 20
4.008246824947024
 30
0.0
 11
8.582496072927506
 21
4.188246824947023
 31
0.0
 70
    32
 71
     5
 42
0.7873999999999996
  3
Standard
100
AcDbAlignedDimension
 13
10.02801915442127
 23
3.220846824947023
 33
0.0
 14
9.240619154421267
 24
4.008246824947024
 34
0.0
 50
90.0
100
AcDbRotatedDimension
  0
DIMENSION
  5
166
330
1F
100
AcDbEntity
  8
0
100
AcDbDimension
  2
*D6
 10
7.419401025267744
 20
23.69324682494702
 30
0.0
 11
7.419401025267741
 21
13.45704682494702
 31
0.0
 70
    32
 71
     5
 42
20.47239999999999
  3
Standard
100
AcDbAlignedDimension
 13
10.02801915442127
 23
3.220846824947023
 33
0.0
 14
9.240619154421272
 24
23.69324682494702
 34
0.0
 50
90.0
100
AcDbRotatedDimension
  0
DIMENSION
  5
174
102
{ACAD_XDICTIONARY
360
182
102
}
102
{ACAD_REACTORS
330
18D
102
}
330
1F
100
AcDbEntity
  8
0
100
AcDbDimension
  2
*D7
 10
6.129782815564794
 20
24.48064682494702
 30
0.0
 11
6.129782815564789
 21
13.85074682494702
 31
0.0
 70
    32
 71
     5
 42
21.2598
  3
Standard
100
AcDbAlignedDimension
 13
10.02801915442127
 23
3.220846824947023
 33
0.0
 14
10.02801915442126
 24
24.48064682494702
 34
0.0
 50
90.0
100
AcDbRotatedDimension
  0
DIMENSION
  5
18E
102
{ACAD_XDICTIONARY
360
198
102
}
102
{ACAD_REACTORS
330
19F
102
}
330
1F
100
AcDbEntity
  8
0
100
AcDbDimension
  2
*D8
 10
10.02801915442129
 20
23.69324682494703
 30
0.0
 11
10.02801915442128
 21
23.69324682494703
 31
0.0
 70
   164
 71
     5
 42
0.7873999999999981
  3
Standard
100
AcDbRadialDimension
 15
9.432942807553931
 25
24.20888516855522
 35
0.0
 40
0.0
1001
ACAD
1000
DSTYLE
1002
{
1070
   279
1070
     1
1070
   288
1070
     1
1002
}
  0
TEXT
  5
1E1
330
1F
100
AcDbEntity
  8
0
 62
     4
100
AcDbText
 10
48.63252589783155
 20
26.70475011193847
 30
0.0
 40
0.4
  1
Notes:
100
AcDbText
  0
TEXT
  5
1E2
330
1F
100
AcDbEntity
  8
0
 62
     4
100
AcDbText
 10
48.63252589783155
 20
26.03808344527181
 30
0.0
 40
0.4
  1
1. WELLS recommends that Wells
100
AcDbText
  0
TEXT
  5
1E3
330
1F
100
AcDbEntity
  8
0
 62
     4
100
AcDbText
 10
48.63252589783155
 20
25.37141677860514
 30
0.0
 40
0.4
  1
  Sinkware under-mount sinks be
100
AcDbText
  0
TEXT
  5
1E4
330
1F
100
AcDbEntity
  8
0
 62
     4
100
AcDbText
 10
48.63252589783155
 20
24.70475011193847
 30
0.0
 40
0.4
  1
  installed by professional countertop
100
AcDbText
  0
TEXT
  5
1E5
330
1F
100
AcDbEntity
  8
0
 62
     4
100
AcDbText
 10
48.63252589783155
 20
24.0380834452718
 30
0.0
 40
0.4
  1
  fabricators/ installers.
100
AcDbText
  0
TEXT
  5
1E6
330
1F
100
AcDbEntity
  8
0
 62
     4
100
AcDbText
 10
48.63252589783155
 20
23.37141677860513
 30
0.0
 40
0.4
  1
2. The template is only a guide. It's
100
AcDbText
  0
TEXT
  5
1E7
330
1F
100
AcDbEntity
  8
0
 62
     4
100
AcDbText
 10
48.63252589783155
 20
22.70475011193846
 30
0.0
 40
0.4
  1
  important that you check the
100
AcDbText
  0
TEXT
  5
1E8
330
1F
100
AcDbEntity
  8
0
 62
     4
100
AcDbText
 10
48.63252589783155
 20
22.0380834452718
 30
0.0
 40
0.4
  1
  template provided with your sink
100
AcDbText
  0
TEXT
  5
1E9
330
1F
100
AcDbEntity
  8
0
 62
     4
100
AcDbText
 10
48.63252589783155
 20
21.37141677860513
 30
0.0
 40
0.4
  1
  against the sink (to assure that
100
AcDbText
  0
TEXT
  5
1EA
330
1F
100
AcDbEntity
  8
0
 62
     4
100
AcDbText
 10
48.63252589783155
 20
20.70475011193846
 30
0.0
 40
0.4
  1
  template agrees with sink) before
100
AcDbText
  0
TEXT
  5
1EB
330
1F
100
AcDbEntity
  8
0
 62
     4
100
AcDbText
 10
48.63252589783155
 20
20.03808344527179
 30
0.0
 40
0.4
  1
  cutting the counter top.
100
AcDbText
  0
TEXT
  5
1EC
330
1F
100
AcDbEntity
  8
0
 62
     3
100
AcDbText
 10
48.94238778602243
 20
12.69720614419157
 30
0.0
 40
0.4
  1
WELLS SINKWARE
100
AcDbText
  0
TEXT
  5
1ED
330
1F
100
AcDbEntity
  8
0
 62
     3
100
AcDbText
 10
48.94238778602243
 20
11.07202148534718
 30
0.0
 40
0.4
  1
DTT3322-9
100
AcDbText
  0
TEXT
  5
1EE
330
1F
100
AcDbEntity
  8
0
 62
     3
100
AcDbText
 10
48.94238778602243
 20
9.524226616640213
 30
0.0
 40
0.4
  1
CUTOUT TEMPLATE
100
AcDbText
  0
TEXT
  5
1EF
330
1F
100
AcDbEntity
  8
0
 62
     3
100
AcDbText
 10
48.86492231397472
 20
4.261723904967944
 30
0.0
 40
0.4
  1
UNIT: INCH
100
AcDbText
  0
ENDSEC
  0
SECTION
  2
OBJECTS
  0
DICTIONARY
  5
C
330
0
100
AcDbDictionary
281
     1
  3
ACAD_COLOR
350
73
  3
ACAD_GROUP
350
D
  3
ACAD_LAYOUT
350
1A
  3
ACAD_MATERIAL
350
72
  3
ACAD_MLINESTYLE
350
17
  3
ACAD_PLOTSETTINGS
350
19
  3
ACAD_PLOTSTYLENAME
350
E
  3
ACAD_TABLESTYLE
350
86
  3
ACAD_VISUALSTYLE
350
97
  3
AcDbVariableDictionary
350
66
  3
DWGPROPS
350
209
  0
DICTIONARY
  5
1D7
330
2
100
AcDbDictionary
280
     1
281
     1
  3
ACAD_LAYERSTATES
360
1D8
  0
DICTIONARY
  5
CC
330
1F
100
AcDbDictionary
280
     1
281
     1
  3
ACAD_SORTENTS
360
CD
  0
DICTIONARY
  5
1DD
330
1D9
100
AcDbDictionary
280
     1
281
     1
  3
ACAD_SORTENTS
360
1DE
  0
DICTIONARY
  5
212
330
111
100
AcDbDictionary
280
     1
281
     1
  3
ACAD_MTEXT_RT
360
213
  0
DICTIONARY
  5
214
330
12B
100
AcDbDictionary
280
     1
281
     1
  3
ACAD_MTEXT_RT
360
215
  0
DICTIONARY
  5
216
330
145
100
AcDbDictionary
280
     1
281
     1
  3
ACAD_MTEXT_RT
360
217
  0
DICTIONARY
  5
218
330
161
100
AcDbDictionary
280
     1
281
     1
  3
ACAD_MTEXT_RT
360
219
  0
DICTIONARY
  5
21A
330
16E
100
AcDbDictionary
280
     1
281
     1
  3
ACAD_MTEXT_RT
360
21B
  0
DICTIONARY
  5
21C
330
189
100
AcDbDictionary
280
     1
281
     1
  3
ACAD_MTEXT_RT
360
21D
  0
DICTIONARY
  5
21E
330
1A8
100
AcDbDictionary
280
     1
281
     1
  3
ACAD_MTEXT_RT
360
21F
  0
DICTIONARY
  5
220
330
1DA
100
AcDbDictionary
280
     1
281
     1
  3
ACAD_MTEXT_RT
360
221
  0
DICTIONARY
  5
10A
330
FB
100
AcDbDictionary
280
     1
281
     1
  3
ACAD_DIMASSOC
360
115
  0
DICTIONARY
  5
124
330
116
100
AcDbDictionary
280
     1
281
     1
  3
ACAD_DIMASSOC
360
12F
  0
DICTIONARY
  5
13E
330
130
100
AcDbDictionary
280
     1
281
     1
  3
ACAD_DIMASSOC
360
149
  0
DICTIONARY
  5
159
330
14A
100
AcDbDictionary
280
     1
281
     1
  3
ACAD_DIMASSOC
360
165
  0
DICTIONARY
  5
182
330
174
100
AcDbDictionary
280
     1
281
     1
  3
ACAD_DIMASSOC
360
18D
  0
DICTIONARY
  5
198
330
18E
100
AcDbDictionary
280
     1
281
     1
  3
ACAD_DIMASSOC
360
19F
  0
DICTIONARY
  5
73
102
{ACAD_REACTORS
330
C
102
}
330
C
100
AcDbDictionary
281
     1
  0
DICTIONARY
  5
D
102
{ACAD_REACTORS
330
C
102
}
330
C
100
AcDbDictionary
281
     1
  0
DICTIONARY
  5
1A
102
{ACAD_REACTORS
330
C
102
}
330
C
100
AcDbDictionary
281
     1
  3
Model
350
22
  3
\U+5E03\U+5C401
350
59
  3
\U+5E03\U+5C402
350
5E
1001
AcadStringInfo
1000
MIFCodePage
1070
     5
  0
DICTIONARY
  5
72
102
{ACAD_REACTORS
330
C
102
}
330
C
100
AcDbDictionary
281
     1
  3
ByBlock
350
95
  3
ByLayer
350
94
  3
Global
350
96
  0
DICTIONARY
  5
17
102
{ACAD_REACTORS
330
C
102
}
330
C
100
AcDbDictionary
281
     1
  3
Standard
350
18
  0
DICTIONARY
  5
19
102
{ACAD_REACTORS
330
C
102
}
330
C
100
AcDbDictionary
281
     1
  0
ACDBDICTIONARYWDFLT
  5
E
102
{ACAD_REACTORS
330
C
102
}
330
C
100
AcDbDictionary
281
     1
  3
Normal
350
F
100
AcDbDictionaryWithDefault
340
F
  0
DICTIONARY
  5
86
102
{ACAD_REACTORS
330
C
102
}
330
C
100
AcDbDictionary
281
     1
  3
Standard
350
87
  0
DICTIONARY
  5
97
102
{ACAD_REACTORS
330
C
102
}
330
C
100
AcDbDictionary
281
     1
  3
2dWireframe
350
9D
  3
3D Hidden
350
9F
  3
3dWireframe
350
9E
  3
Basic
350
9C
  3
Brighten
350
A3
  3
ColorChange
350
A7
  3
Conceptual
350
A0
  3
Dim
350
A2
  3
Facepattern
350
A6
  3
Flat
350
98
  3
FlatWithEdges
350
99
  3
Gouraud
350
9A
  3
GouraudWithEdges
350
9B
  3
Linepattern
350
A5
  3
Realistic
350
A1
  3
Thicken
350
A4
  0
DICTIONARY
  5
66
102
{ACAD_REACTORS
330
C
102
}
330
C
100
AcDbDictionary
281
     1
  3
CTABLESTYLE
350
8B
  3
DIMASSOC
350
67
  3
HIDETEXT
350
6B
  3
INDEXCTL
350
1AD
  3
SORTENTS
350
1AC
  0
XRECORD
  5
209
102
{ACAD_REACTORS
330
C
102
}
330
C
100
AcDbXrecord
280
     1
  1
DWGPROPS COOKIE
  2

  3

  4

  6

  7

  8
Mike
  9

300
=
301
=
302
=
303
=
304
=
305
=
306
=
307
=
308
=
309
=
 40
0.0401844560185185
 41
2456280.523976771
 42
2456280.609566331
  1

 90
        0
  0
DICTIONARY
  5
1D8
102
{ACAD_REACTORS
330
1D7
102
}
330
1D7
100
AcDbDictionary
281
     1
  0
SORTENTSTABLE
  5
CD
102
{ACAD_REACTORS
330
CC
102
}
330
CC
100
AcDbSortentsTable
330
1F
331
CE
  5
C9
331
C7
  5
C7
331
CA
  5
CE
331
C8
  5
C8
331
CF
  5
CB
331
CB
  5
D0
331
C9
  5
CA
331
D0
  5
CF
  0
SORTENTSTABLE
  5
1DE
102
{ACAD_REACTORS
330
1DD
102
}
330
1DD
100
AcDbSortentsTable
330
1D9
  0
XRECORD
  5
213
102
{ACAD_REACTORS
330
212
102
}
330
212
100
AcDbXrecord
280
     1
 40
4529.0
  1
\A1;{\H1.000000x;\S13#16;}
  0
XRECORD
  5
215
102
{ACAD_REACTORS
330
214
102
}
330
214
100
AcDbXrecord
280
     1
 40
5381.0
  1
\A1;31{\H1.000000x;\S7#16;}
  0
XRECORD
  5
217
102
{ACAD_REACTORS
330
216
102
}
330
216
100
AcDbXrecord
280
     1
 40
5351.0
  1
\A1;32{\H1.000000x;\S3#16;}
  0
XRECORD
  5
219
102
{ACAD_REACTORS
330
218
102
}
330
218
100
AcDbXrecord
280
     1
 40
4529.0
  1
\A1;{\H1.000000x;\S13#16;}
  0
XRECORD
  5
21B
102
{ACAD_REACTORS
330
21A
102
}
330
21A
100
AcDbXrecord
280
     1
 40
4620.0
  1
\A1;20{\H1.000000x;\S1#2;}
  0
XRECORD
  5
21D
102
{ACAD_REACTORS
330
21C
102
}
330
21C
100
AcDbXrecord
280
     1
 40
4648.0
  1
\A1;21{\H1.000000x;\S1#4;}
  0
XRECORD
  5
21F
102
{ACAD_REACTORS
330
21E
102
}
330
21E
100
AcDbXrecord
280
     1
 40
5423.0
  1
\A1;R{\H1.000000x;\S13#16;}
  0
XRECORD
  5
221
102
{ACAD_REACTORS
330
220
102
}
330
220
100
AcDbXrecord
280
     1
 40
87327.0
  1
{\C3;WELLS SINKWARE^JDTU3121-9\PCUTOUT TEMPLATE}
  0
DIMASSOC
  5
115
102
{ACAD_REACTORS
330
10A
102
}
330
10A
100
AcDbDimAssoc
330
FB
 90
        3
 70
     0
 71
     0
  1
AcDbOsnapPointRef
 72
     1
331
CB
 73
     2
 91
        0
 40
3.141592653589792
 10
0.0
 20
0.0
 30
2.000000000000000E+50
 75
     0
  1
AcDbOsnapPointRef
 72
    13
331
CB
 73
     2
 91
        0
 40
1.570796326794896
 10
0.0
 20
0.0
 30
2.000000000000000E+50
 75
     0
  0
DIMASSOC
  5
12F
102
{ACAD_REACTORS
330
124
102
}
330
124
100
AcDbDimAssoc
330
116
 90
        2
 70
     0
 71
     0
  1
AcDbOsnapPointRef
 72
     1
331
CE
 73
     2
 91
        0
 40
1.570796326794896
 10
0.0
 20
0.0
 30
2.000000000000000E+50
 75
     0
  0
DIMASSOC
  5
149
102
{ACAD_REACTORS
330
13E
102
}
330
13E
100
AcDbDimAssoc
330
130
 90
        2
 70
     0
 71
     0
  1
AcDbOsnapPointRef
 72
    13
331
CE
 73
     2
 91
        0
 40
0.0
 10
0.0
 20
0.0
 30
2.000000000000000E+50
 75
     0
  0
DIMASSOC
  5
165
102
{ACAD_REACTORS
330
159
102
}
330
159
100
AcDbDimAssoc
330
14A
 90
        3
 70
     0
 71
     0
  1
AcDbOsnapPointRef
 72
     1
331
D0
 73
     2
 91
        0
 40
4.712388980384688
 10
0.0
 20
0.0
 30
2.000000000000000E+50
 75
     0
  1
AcDbOsnapPointRef
 72
    13
331
D0
 73
     2
 91
        0
 40
3.141592653589792
 10
0.0
 20
0.0
 30
2.000000000000000E+50
 75
     0
  0
DIMASSOC
  5
18D
102
{ACAD_REACTORS
330
182
102
}
330
182
100
AcDbDimAssoc
330
174
 90
        2
 70
     0
 71
     0
  1
AcDbOsnapPointRef
 72
     8
331
C7
 73
     2
 91
        0
 40
-0.0000000000000002
 10
0.0
 20
0.0
 30
0.0
 75
     1
  1
AcDbOsnapPointRef
 72
     0
 40
0.0
 10
10.02801915442127
 20
3.220846824947023
 30
0.0
 75
     0
  0
DIMASSOC
  5
19F
102
{ACAD_REACTORS
330
198
102
}
330
198
100
AcDbDimAssoc
330
18E
 90
        2
 70
     0
 71
     0
  1
AcDbOsnapPointRef
 72
     3
331
CB
 73
     2
 91
        0
 40
0.0
 10
0.0
 20
0.0
 30
0.0
 75
     0
  0
LAYOUT
  5
22
102
{ACAD_XDICTIONARY
360
20A
102
}
102
{ACAD_REACTORS
330
1A
102
}
330
1A
100
AcDbPlotSettings
  1

  2
none_device
  4
ANSI_A_(8.50_x_11.00_Inches)
  6

 40
6.349999904632567
 41
19.04999923706055
 42
6.350006103515625
 43
19.04998779296875
 44
215.8999938964844
 45
279.3999938964844
 46
0.0
 47
0.0
 48
0.0
 49
0.0
140
0.0
141
0.0
142
1.0
143
2.584895464708373
 70
 11952
 72
     0
 73
     1
 74
     0
  7

 75
     0
147
0.3868628397755418
148
0.0
149
0.0
100
AcDbLayout
  1
Model
 70
     1
 71
     0
 10
0.0
 20
0.0
 11
12.0
 21
9.0
 12
0.0
 22
0.0
 32
0.0
 14
0.0
 24
0.0
 34
0.0
 15
0.0
 25
0.0
 35
0.0
146
0.0
 13
0.0
 23
0.0
 33
0.0
 16
1.0
 26
0.0
 36
0.0
 17
0.0
 27
1.0
 37
0.0
 76
     0
330
1F
331
92
  0
LAYOUT
  5
59
102
{ACAD_XDICTIONARY
360
20C
102
}
102
{ACAD_REACTORS
330
1A
102
}
330
1A
100
AcDbPlotSettings
  1

  2
None
  4

  6

 40
0.0
 41
0.0
 42
0.0
 43
0.0
 44
0.0
 45
0.0
 46
0.0
 47
0.0
 48
0.0
 49
0.0
140
0.0
141
0.0
142
1.0
143
1.0
 70
   688
 72
     0
 73
     0
 74
     5
  7

 75
    16
147
1.0
148
0.0
149
0.0
100
AcDbLayout
  1
\U+5E03\U+5C401
 70
     1
 71
     1
 10
0.0
 20
0.0
 11
12.0
 21
9.0
 12
0.0
 22
0.0
 32
0.0
 14
0.0
 24
0.0
 34
0.0
 15
0.0
 25
0.0
 35
0.0
146
0.0
 13
0.0
 23
0.0
 33
0.0
 16
1.0
 26
0.0
 36
0.0
 17
0.0
 27
1.0
 37
0.0
 76
     0
330
58
1001
AcadStringInfo
1000
MIFCodePage
1070
     5
  0
LAYOUT
  5
5E
102
{ACAD_XDICTIONARY
360
20E
102
}
102
{ACAD_REACTORS
330
1A
102
}
330
1A
100
AcDbPlotSettings
  1

  2
None
  4

  6

 40
0.0
 41
0.0
 42
0.0
 43
0.0
 44
0.0
 45
0.0
 46
0.0
 47
0.0
 48
0.0
 49
0.0
140
0.0
141
0.0
142
1.0
143
1.0
 70
   688
 72
     0
 73
     0
 74
     5
  7

 75
    16
147
1.0
148
0.0
149
0.0
100
AcDbLayout
  1
\U+5E03\U+5C402
 70
     1
 71
     2
 10
0.0
 20
0.0
 11
12.0
 21
9.0
 12
0.0
 22
0.0
 32
0.0
 14
0.0
 24
0.0
 34
0.0
 15
0.0
 25
0.0
 35
0.0
146
0.0
 13
0.0
 23
0.0
 33
0.0
 16
1.0
 26
0.0
 36
0.0
 17
0.0
 27
1.0
 37
0.0
 76
     0
330
5D
1001
AcadStringInfo
1000
MIFCodePage
1070
     5
  0
MATERIAL
  5
95
102
{ACAD_XDICTIONARY
360
1B9
102
}
102
{ACAD_REACTORS
330
72
102
}
330
72
100
AcDbMaterial
  1
ByBlock
  0
MATERIAL
  5
94
102
{ACAD_XDICTIONARY
360
1B7
102
}
102
{ACAD_REACTORS
330
72
102
}
330
72
100
AcDbMaterial
  1
ByLayer
  0
MATERIAL
  5
96
102
{ACAD_XDICTIONARY
360
1BB
102
}
102
{ACAD_REACTORS
330
72
102
}
330
72
100
AcDbMaterial
  1
Global
  0
MLINESTYLE
  5
18
102
{ACAD_REACTORS
330
17
102
}
330
17
100
AcDbMlineStyle
  2
STANDARD
 70
     0
  3

 62
   256
 51
90.0
 52
90.0
 71
     2
 49
0.5
 62
   256
  6
BYLAYER
 49
-0.5
 62
   256
  6
BYLAYER
  0
ACDBPLACEHOLDER
  5
F
102
{ACAD_REACTORS
330
E
102
}
330
E
  0
TABLESTYLE
  5
87
102
{ACAD_XDICTIONARY
360
210
102
}
102
{ACAD_REACTORS
330
86
102
}
330
86
100
AcDbTableStyle
  3
Standard
 70
     0
 71
     0
 40
0.06
 41
0.06
280
     0
281
     0
  7
Standard
140
0.18
170
     2
 62
     0
 63
     7
283
     0
274
    -2
284
     1
 64
     0
275
    -2
285
     1
 65
     0
276
    -2
286
     1
 66
     0
277
    -2
287
     1
 67
     0
278
    -2
288
     1
 68
     0
279
    -2
289
     1
 69
     0
  7
Standard
140
0.25
170
     5
 62
     0
 63
     7
283
     0
274
    -2
284
     1
 64
     0
275
    -2
285
     1
 65
     0
276
    -2
286
     1
 66
     0
277
    -2
287
     1
 67
     0
278
    -2
288
     1
 68
     0
279
    -2
289
     1
 69
     0
  7
Standard
140
0.18
170
     5
 62
     0
 63
     7
283
     0
274
    -2
284
     1
 64
     0
275
    -2
285
     1
 65
     0
276
    -2
286
     1
 66
     0
277
    -2
287
     1
 67
     0
278
    -2
288
     1
 68
     0
279
    -2
289
     1
 69
     0
  0
VISUALSTYLE
  5
9D
102
{ACAD_REACTORS
330
97
102
}
330
97
100
AcDbVisualStyle
  2
2dWireframe
 70
     4
 71
     0
 72
     2
 73
     1
 90
        0
 40
-0.6
 41
-30.0
 62
     5
 63
     7
 74
     1
 91
        4
 64
     7
 65
   257
 75
     1
175
     1
 42
1.0
 92
        0
 66
   257
 43
1.0
 76
     1
 77
     6
 78
     2
 67
     7
 79
     5
170
     0
171
     0
290
     0
174
     0
 93
        1
 44
0.0
173
     0
291
     0
 45
0.0
1001
ACAD
1000
AcDbSavedByObjectVersion
1070
     0
1000
AcDbSavedByObjectVersion
1070
     0
  0
VISUALSTYLE
  5
9F
102
{ACAD_REACTORS
330
97
102
}
330
97
100
AcDbVisualStyle
  2
3D Hidden
 70
     6
 71
     1
 72
     2
 73
     2
 90
        0
 40
-0.6
 41
-30.0
 62
     5
 63
     7
 74
     2
 91
        2
 64
     7
 65
   257
 75
     2
175
     1
 42
40.0
 92
        0
 66
   257
 43
1.0
 76
     1
 77
     6
 78
     2
 67
     7
 79
     3
170
     0
171
     0
290
     0
174
     0
 93
        1
 44
0.0
173
     0
291
     0
 45
0.0
1001
ACAD
1000
AcDbSavedByObjectVersion
1070
     0
1000
AcDbSavedByObjectVersion
1070
     0
  0
VISUALSTYLE
  5
9E
102
{ACAD_REACTORS
330
97
102
}
330
97
100
AcDbVisualStyle
  2
3dWireframe
 70
     5
 71
     0
 72
     2
 73
     1
 90
        0
 40
-0.6
 41
-30.0
 62
     5
 63
     7
 74
     1
 91
        4
 64
     7
 65
   257
 75
     1
175
     1
 42
1.0
 92
        0
 66
   257
 43
1.0
 76
     1
 77
     6
 78
     2
 67
     7
 79
     5
170
     0
171
     0
290
     0
174
     0
 93
        1
 44
0.0
173
     0
291
     0
 45
0.0
1001
ACAD
1000
AcDbSavedByObjectVersion
1070
     0
1000
AcDbSavedByObjectVersion
1070
     0
  0
VISUALSTYLE
  5
9C
102
{ACAD_REACTORS
330
97
102
}
330
97
100
AcDbVisualStyle
  2
Basic
 70
     7
 71
     1
 72
     0
 73
     1
 90
        0
 40
-0.6
 41
-30.0
 62
     5
 63
     7
 74
     0
 91
        4
 64
     7
 65
   257
 75
     1
175
     1
 42
1.0
 92
        8
 66
     7
 43
1.0
 76
     1
 77
     6
 78
     2
 67
     7
 79
     5
170
     0
171
     0
290
     0
174
     0
 93
        1
 44
0.0
173
     0
291
     1
 45
0.0
1001
ACAD
1000
AcDbSavedByObjectVersion
1070
     0
1000
AcDbSavedByObjectVersion
1070
     0
  0
VISUALSTYLE
  5
A3
102
{ACAD_REACTORS
330
97
102
}
330
97
100
AcDbVisualStyle
  2
Brighten
 70
    12
 71
     2
 72
     2
 73
     1
 90
        0
 40
-0.6
 41
-30.0
 62
     5
 63
     7
 74
     1
 91
        4
 64
     7
 65
   257
 75
     1
175
     1
 42
1.0
 92
        8
 66
     7
 43
1.0
 76
     1
 77
     6
 78
     2
 67
     7
 79
     5
170
     0
171
     0
290
     0
174
     0
 93
        1
 44
50.0
173
     0
291
     1
 45
0.0
1001
ACAD
1000
AcDbSavedByObjectVersion
1070
     0
1000
AcDbSavedByObjectVersion
1070
     0
  0
VISUALSTYLE
  5
A7
102
{ACAD_REACTORS
330
97
102
}
330
97
100
AcDbVisualStyle
  2
ColorChange
 70
    16
 71
     2
 72
     2
 73
     3
 90
        0
 40
-0.6
 41
-30.0
 62
     5
 63
     8
 74
     1
 91
        4
 64
     7
 65
   257
 75
     1
175
     1
 42
1.0
 92
        8
 66
     8
 43
1.0
 76
     1
 77
     6
 78
     2
 67
     7
 79
     5
170
     0
171
     0
290
     0
174
     0
 93
        1
 44
0.0
173
     0
291
     1
 45
0.0
1001
ACAD
1000
AcDbSavedByObjectVersion
1070
     0
1000
AcDbSavedByObjectVersion
1070
     0
  0
VISUALSTYLE
  5
A0
102
{ACAD_REACTORS
330
97
102
}
330
97
100
AcDbVisualStyle
  2
Conceptual
 70
     9
 71
     3
 72
     2
 73
     1
 90
        0
 40
-0.6
 41
-30.0
 62
     5
 63
     7
 74
     2
 91
        2
 64
     7
 65
   257
 75
     1
175
     1
 42
40.0
 92
        8
 66
     7
 43
1.0
 76
     1
 77
     6
 78
     2
 67
     7
 79
     3
170
     0
171
     0
290
     0
174
     0
 93
        1
 44
0.0
173
     0
291
     0
 45
0.0
1001
ACAD
1000
AcDbSavedByObjectVersion
1070
     0
1000
AcDbSavedByObjectVersion
1070
     0
  0
VISUALSTYLE
  5
A2
102
{ACAD_REACTORS
330
97
102
}
330
97
100
AcDbVisualStyle
  2
Dim
 70
    11
 71
     2
 72
     2
 73
     1
 90
        0
 40
-0.6
 41
-30.0
 62
     5
 63
     7
 74
     1
 91
        4
 64
     7
 65
   257
 75
     1
175
     1
 42
1.0
 92
        8
 66
     7
 43
1.0
 76
     1
 77
     6
 78
     2
 67
     7
 79
     5
170
     0
171
     0
290
     0
174
     0
 93
        1
 44
-50.0
173
     0
291
     1
 45
0.0
1001
ACAD
1000
AcDbSavedByObjectVersion
1070
     0
1000
AcDbSavedByObjectVersion
1070
     0
  0
VISUALSTYLE
  5
A6
102
{ACAD_REACTORS
330
97
102
}
330
97
100
AcDbVisualStyle
  2
Facepattern
 70
    15
 71
     2
 72
     2
 73
     1
 90
        0
 40
-0.6
 41
-30.0
 62
     5
 63
     7
 74
     1
 91
        4
 64
     7
 65
   257
 75
     1
175
     1
 42
1.0
 92
        8
 66
     7
 43
1.0
 76
     1
 77
     6
 78
     2
 67
     7
 79
     5
170
     0
171
     0
290
     0
174
     0
 93
        1
 44
0.0
173
     0
291
     1
 45
0.0
1001
ACAD
1000
AcDbSavedByObjectVersion
1070
     0
1000
AcDbSavedByObjectVersion
1070
     0
  0
VISUALSTYLE
  5
98
102
{ACAD_REACTORS
330
97
102
}
330
97
100
AcDbVisualStyle
  2
Flat
 70
     0
 71
     2
 72
     1
 73
     1
 90
        2
 40
-0.6
 41
30.0
 62
     5
 63
     7
 74
     0
 91
        4
 64
     7
 65
   257
 75
     1
175
     1
 42
1.0
 92
        8
 66
     7
 43
1.0
 76
     1
 77
     6
 78
     2
 67
     7
 79
     5
170
     0
171
     0
290
     0
174
     0
 93
        1
 44
0.0
173
     0
291
     1
 45
0.0
1001
ACAD
1000
AcDbSavedByObjectVersion
1070
     0
1000
AcDbSavedByObjectVersion
1070
     0
  0
VISUALSTYLE
  5
99
102
{ACAD_REACTORS
330
97
102
}
330
97
100
AcDbVisualStyle
  2
FlatWithEdges
 70
     1
 71
     2
 72
     1
 73
     1
 90
        2
 40
-0.6
 41
30.0
 62
     5
 63
     7
 74
     1
 91
        4
 64
     7
 65
   257
 75
     1
175
     1
 42
1.0
 92
        0
 66
   257
 43
1.0
 76
     1
 77
     6
 78
     2
 67
     7
 79
     5
170
     0
171
     0
290
     0
174
     0
 93
        1
 44
0.0
173
     0
291
     1
 45
0.0
1001
ACAD
1000
AcDbSavedByObjectVersion
1070
     0
1000
AcDbSavedByObjectVersion
1070
     0
  0
VISUALSTYLE
  5
9A
102
{ACAD_REACTORS
330
97
102
}
330
97
100
AcDbVisualStyle
  2
Gouraud
 70
     2
 71
     2
 72
     2
 73
     1
 90
        2
 40
-0.6
 41
30.0
 62
     5
 63
     7
 74
     0
 91
        4
 64
     7
 65
   257
 75
     1
175
     1
 42
1.0
 92
        0
 66
     7
 43
1.0
 76
     1
 77
     6
 78
     2
 67
     7
 79
     5
170
     0
171
     0
290
     0
174
     0
 93
        1
 44
0.0
173
     0
291
     1
 45
0.0
1001
ACAD
1000
AcDbSavedByObjectVersion
1070
     0
1000
AcDbSavedByObjectVersion
1070
     0
  0
VISUALSTYLE
  5
9B
102
{ACAD_REACTORS
330
97
102
}
330
97
100
AcDbVisualStyle
  2
GouraudWithEdges
 70
     3
 71
     2
 72
     2
 73
     1
 90
        2
 40
-0.6
 41
30.0
 62
     5
 63
     7
 74
     1
 91
        4
 64
     7
 65
   257
 75
     1
175
     1
 42
1.0
 92
        0
 66
   257
 43
1.0
 76
     1
 77
     6
 78
     2
 67
     7
 79
     5
170
     0
171
     0
290
     0
174
     0
 93
        1
 44
0.0
173
     0
291
     1
 45
0.0
1001
ACAD
1000
AcDbSavedByObjectVersion
1070
     0
1000
AcDbSavedByObjectVersion
1070
     0
  0
VISUALSTYLE
  5
A5
102
{ACAD_REACTORS
330
97
102
}
330
97
100
AcDbVisualStyle
  2
Linepattern
 70
    14
 71
     2
 72
     2
 73
     1
 90
        0
 40
-0.6
 41
-30.0
 62
     5
 63
     7
 74
     1
 91
        4
 64
     7
 65
   257
 75
     7
175
     7
 42
1.0
 92
        8
 66
     7
 43
1.0
 76
     1
 77
     6
 78
     2
 67
     7
 79
     5
170
     0
171
     0
290
     0
174
     0
 93
        1
 44
0.0
173
     0
291
     1
 45
0.0
1001
ACAD
1000
AcDbSavedByObjectVersion
1070
     0
1000
AcDbSavedByObjectVersion
1070
     0
  0
VISUALSTYLE
  5
A1
102
{ACAD_REACTORS
330
97
102
}
330
97
100
AcDbVisualStyle
  2
Realistic
 70
     8
 71
     2
 72
     2
 73
     1
 90
        0
 40
-0.6
 41
-30.0
 62
     5
 63
     7
 74
     1
 91
        0
 64
     7
 65
   257
 75
     1
175
     1
 42
1.0
 92
        8
 66
     8
 43
1.0
 76
     1
 77
     6
 78
     2
 67
     7
 79
     5
170
     0
171
     0
290
     0
174
     0
 93
       13
 44
0.0
173
     0
291
     0
 45
0.0
1001
ACAD
1000
AcDbSavedByObjectVersion
1070
     0
1000
AcDbSavedByObjectVersion
1070
     0
  0
VISUALSTYLE
  5
A4
102
{ACAD_REACTORS
330
97
102
}
330
97
100
AcDbVisualStyle
  2
Thicken
 70
    13
 71
     2
 72
     2
 73
     1
 90
        0
 40
-0.6
 41
-30.0
 62
     5
 63
     7
 74
     1
 91
        4
 64
     7
 65
   257
 75
     1
175
     1
 42
1.0
 92
       12
 66
     7
 43
1.0
 76
     1
 77
     6
 78
     2
 67
     7
 79
     5
170
     0
171
     0
290
     0
174
     0
 93
        1
 44
0.0
173
     0
291
     1
 45
0.0
1001
ACAD
1000
AcDbSavedByObjectVersion
1070
     0
1000
AcDbSavedByObjectVersion
1070
     0
  0
DICTIONARYVAR
  5
8B
102
{ACAD_REACTORS
330
66
102
}
330
66
100
DictionaryVariables
280
     0
  1
STANDARD
  0
DICTIONARYVAR
  5
67
102
{ACAD_REACTORS
330
66
102
}
330
66
100
DictionaryVariables
280
     0
  1
2
  0
DICTIONARYVAR
  5
6B
102
{ACAD_REACTORS
330
66
102
}
330
66
100
DictionaryVariables
280
     0
  1
1
  0
DICTIONARYVAR
  5
1AD
102
{ACAD_REACTORS
330
66
102
}
330
66
100
DictionaryVariables
280
     0
  1
0
  0
DICTIONARYVAR
  5
1AC
102
{ACAD_REACTORS
330
66
102
}
330
66
100
DictionaryVariables
280
     0
  1
127
  0
DICTIONARY
  5
20A
330
22
100
AcDbDictionary
280
     1
281
     1
  3
ACAD_XREC_ROUNDTRIP
360
20B
  0
DICTIONARY
  5
20C
330
59
100
AcDbDictionary
280
     1
281
     1
  3
ACAD_XREC_ROUNDTRIP
360
20D
  0
DICTIONARY
  5
20E
330
5E
100
AcDbDictionary
280
     1
281
     1
  3
ACAD_XREC_ROUNDTRIP
360
20F
  0
DICTIONARY
  5
1B9
330
95
100
AcDbDictionary
280
     1
281
     1
  3
ACAD_XREC_ROUNDTRIP
360
1BA
  0
DICTIONARY
  5
1B7
330
94
100
AcDbDictionary
280
     1
281
     1
  3
ACAD_XREC_ROUNDTRIP
360
1B8
  0
DICTIONARY
  5
1BB
330
96
100
AcDbDictionary
280
     1
281
     1
  3
ACAD_XREC_ROUNDTRIP
360
1BC
  0
DICTIONARY
  5
210
330
87
100
AcDbDictionary
280
     1
281
     1
  3
ACAD_XREC_ROUNDTRIP
360
211
  0
XRECORD
  5
20B
102
{ACAD_REACTORS
330
20A
102
}
330
20A
100
AcDbXrecord
280
     1
102
SHADEPLOT
 70
     0
102
SHADEPLOTRESLEVEL
 70
     2
102
SHADEPLOTCUSTOMDPI
 70
   300
  0
XRECORD
  5
20D
102
{ACAD_REACTORS
330
20C
102
}
330
20C
100
AcDbXrecord
280
     1
102
SHADEPLOT
 70
     0
102
SHADEPLOTRESLEVEL
 70
     2
102
SHADEPLOTCUSTOMDPI
 70
   300
  0
XRECORD
  5
20F
102
{ACAD_REACTORS
330
20E
102
}
330
20E
100
AcDbXrecord
280
     1
102
SHADEPLOT
 70
     0
102
SHADEPLOTRESLEVEL
 70
     2
102
SHADEPLOTCUSTOMDPI
 70
   300
  0
XRECORD
  5
1BA
102
{ACAD_REACTORS
330
1B9
102
}
330
1B9
100
AcDbXrecord
280
     1
102
MATERIAL
148
0.0
149
0.0
149
0.0
 93
        0
 94
       63
282
     0
 72
     1
 77
     1
171
     1
175
     1
179
     1
273
     0
  0
XRECORD
  5
1B8
102
{ACAD_REACTORS
330
1B7
102
}
330
1B7
100
AcDbXrecord
280
     1
102
MATERIAL
148
0.0
149
0.0
149
0.0
 93
        0
 94
       63
282
     0
 72
     1
 77
     1
171
     1
175
     1
179
     1
273
     0
  0
XRECORD
  5
1BC
102
{ACAD_REACTORS
330
1BB
102
}
330
1BB
100
AcDbXrecord
280
     1
102
MATERIAL
148
0.0
149
0.0
149
0.0
 93
        0
 94
       63
282
     0
 72
     1
 77
     1
171
     1
175
     1
179
     1
273
     0
  0
XRECORD
  5
211
102
{ACAD_REACTORS
330
210
102
}
330
210
100
AcDbXrecord
280
     1
102
ACAD_ROUNDTRIP_PRE2007_TABLESTYLE
 90
      512
 91
        0
  1

 92
      512
 93
        0
  2

 94
      512
 95
        0
  3

  0
ENDSEC
  0
EOF
