  0
SECTION
  2
HEADER
  9
$ACADVER
  1
AC1009
  9
$INSBASE
 10
0.0
 20
0.0
 30
0.0
  9
$EXTMIN
 10
519.3265153241964072
 20
487.8445561989972248
 30
-0.0015258207003583
  9
$EXTMAX
 10
1380.8674533526050254
 20
894.5067964328275139
 30
0.0000000349246037
  9
$LIMMIN
 10
0.0
 20
0.0
  9
$LIMMAX
 10
420.0
 20
297.0
  9
$ORTHOMODE
 70
     1
  9
$REGENMODE
 70
     1
  9
$FILLMODE
 70
     1
  9
$QTEXTMODE
 70
     0
  9
$MIRRTEXT
 70
     0
  9
$DRAGMODE
 70
     2
  9
$LTSCALE
 40
1.0
  9
$OSMODE
 70
  1071
  9
$ATTMODE
 70
     1
  9
$TEXTSIZE
 40
2.5
  9
$TRACEWID
 40
1.0
  9
$TEXTSTYLE
  7
STANDARD
  9
$CLAYER
  8
0
  9
$CELTYPE
  6
BYLAYER
  9
$CECOLOR
 62
   256
  9
$DIMSCALE
 40
1.0
  9
$DIMASZ
 40
2.5
  9
$DIMEXO
 40
0.625
  9
$DIMDLI
 40
3.75
  9
$DIMRND
 40
0.0
  9
$DIMDLE
 40
0.0
  9
$DIMEXE
 40
1.25
  9
$DIMTP
 40
0.0
  9
$DIMTM
 40
0.0
  9
$DIMTXT
 40
2.5
  9
$DIMCEN
 40
2.5
  9
$DIMTSZ
 40
0.0
  9
$DIMTOL
 70
     0
  9
$DIMLIM
 70
     0
  9
$DIMTIH
 70
     0
  9
$DIMTOH
 70
     0
  9
$DIMSE1
 70
     0
  9
$DIMSE2
 70
     0
  9
$DIMTAD
 70
     1
  9
$DIMZIN
 70
     8
  9
$DIMBLK
  1

  9
$DIMASO
 70
     1
  9
$DIMSHO
 70
     1
  9
$DIMPOST
  1

  9
$DIMAPOST
  1

  9
$DIMALT
 70
     0
  9
$DIMALTD
 70
     3
  9
$DIMALTF
 40
0.03937007874016
  9
$DIMLFAC
 40
1.0
  9
$DIMTOFL
 70
     1
  9
$DIMTVP
 40
0.0
  9
$DIMTIX
 70
     0
  9
$DIMSOXD
 70
     0
  9
$DIMSAH
 70
     0
  9
$DIMBLK1
  1

  9
$DIMBLK2
  1

  9
$DIMSTYLE
  2
ISO-25
  9
$DIMCLRD
 70
     0
  9
$DIMCLRE
 70
     0
  9
$DIMCLRT
 70
     0
  9
$DIMTFAC
 40
1.0
  9
$DIMGAP
 40
0.625
  9
$LUNITS
 70
     2
  9
$LUPREC
 70
     4
  9
$SKETCHINC
 40
1.0
  9
$FILLETRAD
 40
5.0
  9
$AUNITS
 70
     0
  9
$AUPREC
 70
     0
  9
$MENU
  1
.
  9
$ELEVATION
 40
0.0
  9
$PELEVATION
 40
0.0
  9
$THICKNESS
 40
0.0
  9
$LIMCHECK
 70
     0
  9
$BLIPMODE
 70
     0
  9
$CHAMFERA
 40
0.0
  9
$CHAMFERB
 40
0.0
  9
$SKPOLY
 70
     0
  9
$TDCREATE
 40
2454147.0465393518097699
  9
$TDUPDATE
 40
2458442.4628819450736046
  9
$TDINDWG
 40
0.0681846296
  9
$TDUSRTIMER
 40
0.0681703356
  9
$USRTIMER
 70
     1
  9
$ANGBASE
 50
0.0
  9
$ANGDIR
 70
     0
  9
$PDMODE
 70
     0
  9
$PDSIZE
 40
0.0
  9
$PLINEWID
 40
0.0
  9
$COORDS
 70
     1
  9
$SPLFRAME
 70
     0
  9
$SPLINETYPE
 70
     6
  9
$SPLINESEGS
 70
     8
  9
$ATTDIA
 70
     1
  9
$ATTREQ
 70
     1
  9
$HANDLING
 70
     1
  9
$HANDSEED
  5
67A
  9
$SURFTAB1
 70
     6
  9
$SURFTAB2
 70
     6
  9
$SURFTYPE
 70
     6
  9
$SURFU
 70
     6
  9
$SURFV
 70
     6
  9
$UCSNAME
  2

  9
$UCSORG
 10
0.0
 20
0.0
 30
0.0
  9
$UCSXDIR
 10
1.0
 20
0.0
 30
0.0
  9
$UCSYDIR
 10
0.0
 20
1.0
 30
0.0
  9
$PUCSNAME
  2

  9
$PUCSORG
 10
0.0
 20
0.0
 30
0.0
  9
$PUCSXDIR
 10
1.0
 20
0.0
 30
0.0
  9
$PUCSYDIR
 10
0.0
 20
1.0
 30
0.0
  9
$USERI1
 70
     0
  9
$USERI2
 70
     0
  9
$USERI3
 70
     0
  9
$USERI4
 70
     0
  9
$USERI5
 70
     0
  9
$USERR1
 40
0.0
  9
$USERR2
 40
0.0
  9
$USERR3
 40
0.0
  9
$USERR4
 40
0.0
  9
$USERR5
 40
0.0
  9
$WORLDVIEW
 70
     1
  9
$SHADEDGE
 70
     3
  9
$SHADEDIF
 70
    70
  9
$TILEMODE
 70
     1
  9
$MAXACTVP
 70
    64
  9
$PLIMCHECK
 70
     0
  9
$PEXTMIN
 10
0.0
 20
0.0
 30
0.0
  9
$PEXTMAX
 10
0.0
 20
0.0
 30
0.0
  9
$PLIMMIN
 10
0.0
 20
0.0
  9
$PLIMMAX
 10
12.0
 20
9.0
  9
$UNITMODE
 70
     0
  9
$VISRETAIN
 70
     1
  9
$PLINEGEN
 70
     0
  9
$PSLTSCALE
 70
     1
  0
ENDSEC
  0
SECTION
  2
TABLES
  0
TABLE
  2
VPORT
 70
     1
  0
VPORT
  2
*ACTIVE
 70
     0
 10
0.0
 20
0.0
 11
1.0
 21
1.0
 12
950.0969843384010574
 22
691.1756763159122556
 13
0.0
 23
0.0
 14
10.0
 24
10.0
 15
10.0
 25
10.0
 16
0.0
 26
0.0
 36
1.0
 17
0.0
 27
0.0
 37
0.0
 40
410.6426210517795994
 41
2.616013071895424
 42
50.0
 43
0.0
 44
0.0
 50
0.0
 51
0.0
 71
     0
 72
  1000
 73
     1
 74
     3
 75
     0
 76
     0
 77
     0
 78
     0
  0
ENDTAB
  0
TABLE
  2
LTYPE
 70
     3
  0
LTYPE
  2
CONTINUOUS
 70
     0
  3
Solid line
 72
    65
 73
     0
 40
0.0
  0
LTYPE
  2
ACAD_ISO03W100
 70
     0
  3
ISO dash space __    __    __    __    __    __
 72
    65
 73
     2
 40
30.0
 49
12.0
 49
-18.0
  0
ENDTAB
  0
TABLE
  2
LAYER
 70
     2
  0
LAYER
  2
0
 70
     0
 62
     7
  6
CONTINUOUS
  0
LAYER
  2
DEFPOINTS
 70
     0
 62
     7
  6
CONTINUOUS
  0
ENDTAB
  0
TABLE
  2
STYLE
 70
     2
  0
STYLE
  2
STANDARD
 70
     0
 40
0.0
 41
1.0
 50
0.0
 71
     0
 42
2.5
  3
txt
  4

  0
STYLE
  2

 70
     1
 40
0.0
 41
1.0
 50
0.0
 71
     0
 42
2.5
  3
ltypeshp.shx
  4

  0
ENDTAB
  0
TABLE
  2
VIEW
 70
     0
  0
ENDTAB
  0
TABLE
  2
UCS
 70
     0
  0
ENDTAB
  0
TABLE
  2
APPID
 70
     5
  0
APPID
  2
ACAD
 70
     0
  0
APPID
  2
DCO15
 70
     0
  0
APPID
  2
ACAD_EXEMPT_FROM_CAD_STANDARDS
 70
     0
  0
APPID
  2
ACAD_NAV_VCDISPLAY
 70
     0
  0
APPID
  2
ACAD_MLEADERVER
 70
     0
  0
ENDTAB
  0
TABLE
  2
DIMSTYLE
 70
     2
  0
DIMSTYLE
  2
ISO-25
 70
     0
  3

  4

  5

  6

  7

 40
1.0
 41
2.5
 42
0.625
 43
3.75
 44
1.25
 45
0.0
 46
0.0
 47
0.0
 48
0.0
140
2.5
141
2.5
142
0.0
143
0.03937007874016
144
1.0
145
0.0
146
1.0
147
0.625
 71
     0
 72
     0
 73
     0
 74
     0
 75
     0
 76
     0
 77
     1
 78
     8
170
     0
171
     3
172
     1
173
     0
174
     0
175
     0
176
     0
177
     0
178
     0
  0
DIMSTYLE
  2
STANDARD
 70
     0
  3

  4

  5

  6

  7

 40
1.0
 41
0.18
 42
0.0625
 43
0.38
 44
0.18
 45
0.0
 46
0.0
 47
0.0
 48
0.0
140
0.18
141
0.09
142
0.0
143
25.3999999999999986
144
1.0
145
0.0
146
1.0
147
0.09
 71
     0
 72
     0
 73
     1
 74
     1
 75
     0
 76
     0
 77
     0
 78
     0
170
     0
171
     2
172
     0
173
     0
174
     0
175
     0
176
     0
177
     0
178
     0
  0
ENDTAB
  0
ENDSEC
  0
SECTION
  2
BLOCKS
  0
BLOCK
  8
0
  2
$MODEL_SPACE
 70
     0
 10
0.0
 20
0.0
 30
0.0
  3
$MODEL_SPACE
  1

  0
ENDBLK
  5
21
  8
0
  0
BLOCK
 67
     1
  8
0
  2
$PAPER_SPACE
 70
     0
 10
0.0
 20
0.0
 30
0.0
  3
$PAPER_SPACE
  1

  0
ENDBLK
  5
53
 67
     1
  8
0
  0
BLOCK
  8
0
  2
*D1
 70
     1
 10
0.0
 20
0.0
 30
0.0
  3
*D1
  1

  0
LINE
  5
607
  8
0
 62
     0
 10
935.2577926694254984
 20
831.0482192971229551
 30
0.0
 11
1025.7761737665568944
 21
831.0482192971229551
 31
0.0
  0
LINE
  5
608
  8
0
 62
     0
 10
936.2717914727452353
 20
510.0482192971226141
 30
0.0
 11
1025.7761737665568944
 21
510.0482192971226141
 31
0.0
  0
LINE
  5
609
  8
0
 62
     0
 10
1020.7761737665570081
 20
824.0482192971229551
 30
0.0
 11
1020.7761737665570081
 21
517.0482192971227278
 31
0.0
  0
INSERT
  5
60A
  8
0
 62
     0
  2
_DOT
 10
1020.7761737665570081
 20
831.0482192971229551
 30
0.0
 41
7.0
 42
7.0
 43
7.0
 50
90.0
  0
INSERT
  5
60B
  8
0
 62
     0
  2
_DOT
 10
1020.7761737665570081
 20
510.0482192971226141
 30
0.0
 41
7.0
 42
7.0
 43
7.0
 50
270.0
  0
TEXT
  8
0
  40
10
  5
677
  62
40
  72
0
  71
0
 10
1007.78
 20
657.548
 30
0.000000
  1
12 5#8''
  0
POINT
  5
60D
  8
DEFPOINTS
 62
     0
 10
934.6327926694256121
 20
831.0482192971229551
 30
0.0
  0
POINT
  5
60E
  8
DEFPOINTS
 62
     0
 10
935.646791472745349
 20
510.0482192971226141
 30
0.0
  0
POINT
  5
60F
  8
DEFPOINTS
 62
     0
 10
1020.7761737665570081
 20
510.0482192971226141
 30
0.0
  0
ENDBLK
  5
FA
  8
0
  0
BLOCK
  8
0
  2
*D2
 70
     1
 10
0.0
 20
0.0
 30
0.0
  3
*D2
  1

  0
LINE
  5
610
  8
0
 62
     0
 10
549.0227542887946584
 20
805.4560798142108524
 30
0.0
 11
549.0227542887946584
 21
875.3237425667482512
 31
0.0
  0
LINE
  5
611
  8
0
 62
     0
 10
974.0227542887949994
 20
800.3903558431271676
 30
0.0
 11
974.0227542887949994
 21
875.3237425667482512
 31
0.0
  0
LINE
  5
612
  8
0
 62
     0
 10
556.0227542887945447
 20
870.3237425667482512
 30
0.0
 11
967.0227542887949994
 21
870.3237425667482512
 31
0.0
  0
INSERT
  5
613
  8
0
 62
     0
  2
_DOT
 10
549.0227542887946584
 20
870.3237425667482512
 30
0.0
 41
7.0
 42
7.0
 43
7.0
 50
180.0
  0
INSERT
  5
614
  8
0
 62
     0
  2
_DOT
 10
974.0227542887949994
 20
870.3237425667482512
 30
0.0
 41
7.0
 42
7.0
 43
7.0
  0
TEXT
  8
0
  40
10
  5
678
  62
40
  72
0
  71
0
 10
761.523
 20
870.324
 30
0.000000
  1
16 3#4''
  0
POINT
  5
616
  8
DEFPOINTS
 62
     0
 10
549.0227542887946584
 20
804.8310798142107387
 30
0.0
  0
POINT
  5
617
  8
DEFPOINTS
 62
     0
 10
974.0227542887949994
 20
799.765355843127054
 30
0.0
  0
POINT
  5
618
  8
DEFPOINTS
 62
     0
 10
974.0227542887949994
 20
870.3237425667482512
 30
0.0
  0
ENDBLK
  5
112
  8
0
  0
BLOCK
  8
0
  2
*D3
 70
     1
 10
0.0
 20
0.0
 30
0.0
  3
*D3
  1

  0
LINE
  5
619
  8
0
 62
     0
 10
635.6111619744514201
 20
595.6197786450911735
 30
0.0
 11
555.4458079112187079
 21
516.4535371927262304
 31
0.0
  0
TEXT
  8
0
  40
10
  5
679
  62
40
  72
0
  71
0
 10
601.810
 20
567.511
 30
0.000000
  1
4xR 3#16''
  0
INSERT
  5
61B
  8
0
 62
     0
  2
_DOT
 10
550.4651202327338524
 20
511.5349245581118112
 30
0.0
 41
7.0
 42
7.0
 43
7.0
 50
224.6407229502522966
  0
POINT
  5
61C
  8
DEFPOINTS
 62
     0
 10
550.4651202327338524
 20
511.5349245581118112
 30
0.0
  0
POINT
  5
61D
  8
DEFPOINTS
 62
     0
 10
554.0227542887945447
 20
515.048219297122273
 30
0.0
  0
ENDBLK
  5
40A
  8
0
  0
BLOCK
  8
0
  2
_DOT
 70
     0
 10
0.0
 20
0.0
 30
0.0
  3
_DOT
  1

  0
POLYLINE
  5
435
  8
0
  6
BYBLOCK
 62
     0
 66
     1
 10
0.0
 20
0.0
 30
0.0
 70
     1
 40
0.5
 41
0.5
  0
VERTEX
  5
61E
  8
0
  6
BYBLOCK
 62
     0
 10
-0.25
 20
0.0
 30
0.0
 42
1.0
  0
VERTEX
  5
61F
  8
0
  6
BYBLOCK
 62
     0
 10
0.25
 20
0.0
 30
0.0
 42
1.0
  0
SEQEND
  5
620
  8
0
  6
BYBLOCK
 62
     0
  0
LINE
  5
436
  8
0
  6
BYBLOCK
 62
     0
 10
-0.5
 20
0.0
 30
0.0
 11
-1.0
 21
0.0
 31
0.0
  0
ENDBLK
  5
437
  8
0
  0
BLOCK
  8
0
  2
*U5
 70
     1
 10
0.0
 20
0.0
 30
0.0
  3
*U5
  1

  0
TEXT
  5
622
  8
0
 62
     3
 10
1066.005633043735088
 20
511.7395863984174866
 30
0.0
 40
12.0
  1
UNIT: INCH
  0
ENDBLK
  5
624
  8
0
  0
BLOCK
  8
0
  2
*U6
 70
     1
 10
0.0
 20
0.0
 30
0.0
  3
*U6
  1

  0
TEXT
  5
626
  8
0
 62
     4
 10
1054.8253106932759238
 20
882.4794970022421694
 30
0.0
 40
12.0
  1
Notes:
  0
TEXT
  5
627
  8
0
 62
     4
 10
1054.8253106932759238
 20
864.4794970022421694
 30
0.0
 40
12.0
  1
1. WELLS recommends that
  0
TEXT
  5
628
  8
0
 62
     4
 10
1054.8253106932759238
 20
846.4794970022421694
 30
0.0
 40
12.0
  1
Wells Sinkware under-mount
  0
TEXT
  5
629
  8
0
 62
     4
 10
1054.8253106932759238
 20
828.4794970022422831
 30
0.0
 40
12.0
  1
sinks be installed by
  0
TEXT
  5
62A
  8
0
 62
     4
 10
1054.8253106932759238
 20
810.4794970022422831
 30
0.0
 40
12.0
  1
professional countertop
  0
TEXT
  5
62B
  8
0
 62
     4
 10
1054.8253106932759238
 20
792.4794970022421694
 30
0.0
 40
12.0
  1
fabricators/installers.
  0
TEXT
  5
62C
  8
0
 62
     4
 10
1054.8253106932759238
 20
774.4794970022422831
 30
0.0
 40
12.0
  1
2. The template is only a
  0
TEXT
  5
62D
  8
0
 62
     4
 10
1054.8253106932759238
 20
756.4794970022422831
 30
0.0
 40
12.0
  1
guide. It's important that you
  0
TEXT
  5
62E
  8
0
 62
     4
 10
1054.8253106932759238
 20
738.4794970022421694
 30
0.0
 40
12.0
  1
check the template provided
  0
TEXT
  5
62F
  8
0
 62
     4
 10
1054.8253106932759238
 20
720.4794970022421694
 30
0.0
 40
12.0
  1
with your sink against the
  0
TEXT
  5
630
  8
0
 62
     4
 10
1054.8253106932759238
 20
702.4794970022422831
 30
0.0
 40
12.0
  1
sink (to assure that template
  0
TEXT
  5
631
  8
0
 62
     4
 10
1054.8253106932759238
 20
684.4794970022421694
 30
0.0
 40
12.0
  1
agrees with sink) before
  0
TEXT
  5
632
  8
0
 62
     4
 10
1054.8253106932759238
 20
666.4794970022421694
 30
0.0
 40
12.0
  1
cutting the counter top.
  0
ENDBLK
  5
634
  8
0
  0
BLOCK
  8
0
  2
*U7
 70
     1
 10
0.0
 20
0.0
 30
0.0
  3
*U7
  1

  0
TEXT
  5
636
  8
0
 62
     3
 10
1059.9584695960888894
 20
605.336151974342215
 30
0.0
 40
12.0
  1
WELLS SINKWARE
  0
TEXT
  5
637
  8
0
 62
     3
 10
1059.9584695960888894
 20
585.336151974342215
 30
0.0
 40
12.0
  1
RTU2016-5
  0
TEXT
  5
638
  8
0
 62
     3
 10
1059.9584695960888894
 20
565.3361519743421013
 30
0.0
 40
12.0
  1
CUTOUT TEMPLATE
  0
ENDBLK
  5
63A
  8
0
  0
BLOCK
  8
0
  2
*U8
 70
     1
 10
0.0
 20
0.0
 30
0.0
  3
*U8
  1

  0
TEXT
  5
63C
  8
0
 62
     1
 10
745.9190131981291643
 20
645.8219024981693792
 30
0.0
 40
18.0
  1
(0,0)
  0
ENDBLK
  5
63E
  8
0
  0
ENDSEC
  0
SECTION
  2
ENTITIES
  0
LINE
  5
87
  8
0
 10
554.0227542887951131
 20
831.0482192971226141
 30
0.0
 11
969.0227542887953405
 21
831.0482192971226141
 31
0.0
  0
LINE
  5
88
  8
0
 10
974.0227542887949994
 20
826.0482192971226141
 30
0.0
 11
974.0227542887949994
 21
515.0482192971225004
 31
0.0
  0
LINE
  5
89
  8
0
 10
969.0227542887953405
 20
510.0482192971226141
 30
0.0
 11
554.0227542887949994
 21
510.048219297122273
 31
0.0
  0
LINE
  5
8A
  8
0
 10
549.0227542887946584
 20
515.0482192971223867
 30
0.0
 11
549.0227542887951131
 21
826.0482192971226141
 31
0.0
  0
ARC
  5
8B
  8
0
 10
554.0227542887951131
 20
826.0482192971226141
 30
0.0
 40
5.0
 50
90.0
 51
180.0
  0
ARC
  5
8C
  8
0
 10
969.0227542887953405
 20
826.0482192971226141
 30
0.0
 40
5.0
 50
0.0
 51
90.0
  0
ARC
  5
8D
  8
0
 10
969.0227542887953405
 20
515.0482192971225004
 30
0.0
 40
5.0
 50
270.0000000000001137
 51
0.0
  0
ARC
  5
8E
  8
0
 10
554.0227542887949994
 20
515.0482192971223867
 30
0.0
 40
5.0
 50
180.0
 51
270.0000000000001137
  0
DIMENSION
  5
ED
  8
0
 62
   102
  2
*D1
 10
1020.7761737665570081
 20
510.0482192971226141
 30
0.0
 11
1020.7761737665570081
 21
670.5482192971221593
 31
0.0
 70
   128
 13
934.6327926694250436
 23
831.0482192971226141
 33
0.0
 14
935.6467914727446669
 24
510.0482192971225004
 34
0.0
 50
90.0
1001
ACAD
1000
DSTYLE
1002
{
1070
   270
1070
     5
1070
     3
1000
''
1070
    41
1040
7.0
1070
    44
1040
5.0
1070
   140
1040
10.0
1070
   144
1040
0.03937
1070
   147
1040
3.0
1070
   173
1070
     1
1070
   178
1070
    40
1070
   271
1070
     4
1070
   276
1070
     1
1070
   277
1070
     5
1070
   278
1070
    46
1070
     6
1000
DOT
1070
     7
1000
DOT
1002
}
  0
DIMENSION
  5
106
  8
0
 62
   102
  2
*D2
 10
974.0227542887949994
 20
870.3237425667482512
 30
0.0
 11
761.522754288794772
 21
883.3237425667482512
 31
0.0
 70
     0
 13
549.0227542887946584
 23
804.8310798142107387
 33
0.0
 14
974.0227542887949994
 24
799.765355843127054
 34
0.0
1001
ACAD
1000
DSTYLE
1002
{
1070
   270
1070
     5
1070
     3
1000
''
1070
    41
1040
7.0
1070
    44
1040
5.0
1070
   140
1040
10.0
1070
   144
1040
0.03937
1070
   147
1040
3.0
1070
   173
1070
     1
1070
   178
1070
    40
1070
   271
1070
     4
1070
   276
1070
     1
1070
   277
1070
     5
1070
   278
1070
    46
1070
     6
1000
DOT
1070
     7
1000
DOT
1002
}
  0
DIMENSION
  5
402
  8
0
 62
   102
  2
*D3
 10
554.0227542887945447
 20
515.048219297122273
 30
0.0
 11
610.9448991857642568
 21
571.2609351212865931
 31
0.0
 70
   132
  1
4x<>
 15
550.4651202327338524
 25
511.5349245581118112
 35
0.0
 40
0.0
1001
ACAD
1000
DSTYLE
1002
{
1070
   270
1070
     5
1070
     3
1000
''
1070
    41
1040
7.0
1070
    44
1040
5.0
1070
   140
1040
10.0
1070
   144
1040
0.03937
1070
   147
1040
3.0
1070
   173
1070
     1
1070
   178
1070
    40
1070
   271
1070
     4
1070
   276
1070
     1
1070
   277
1070
     5
1070
   278
1070
    46
1070
     6
1000
DOT
1070
     7
1000
DOT
1002
}
  0
INSERT
  5
4E7
  8
0
  2
*U5
 10
0.0
 20
0.0
 30
0.0
  0
INSERT
  5
4E8
  8
0
  2
*U6
 10
0.0
 20
0.0
 30
0.0
  0
INSERT
  5
4E9
  8
0
  2
*U7
 10
0.0
 20
0.0
 30
0.0
  0
LINE
  5
572
  8
0
 62
     1
 10
761.5227542887953405
 20
849.0329939986352201
 30
0.0
 11
761.5227542887953405
 21
831.0482192971226141
 31
0.0
  0
LINE
  5
573
  8
0
 62
     1
 10
998.2212710331759808
 20
670.5482192971226141
 30
0.0
 11
974.0227542887949994
 21
670.5482192971226141
 31
0.0
  0
POINT
  5
574
  8
0
 62
     1
 10
761.5227542887951131
 20
670.5482192971226141
 30
0.0
  0
LINE
  5
575
  8
0
 62
     1
 10
549.0227542887946584
 20
670.5482192971227278
 30
0.0
 11
519.3618829532806558
 21
670.5482192971226141
 31
0.0
  0
LINE
  5
578
  8
0
 62
     1
 10
761.5227542887951131
 20
510.0482192971226141
 30
0.0
 11
761.5227542887951131
 21
487.8713652612843816
 31
0.0
  0
INSERT
  5
586
  8
0
  2
*U8
 10
0.0
 20
0.0
 30
0.0
  0
ENDSEC
  0
EOF
