  0
SECTION
  2
HEADER
  9
$ACADVER
  1
AC1015
  9
$ACADMAINTVER
 70
    20
  9
$DWGCODEPAGE
  3
ANSI_936
  9
$INSBASE
 10
0.0
 20
0.0
 30
0.0
  9
$EXTMIN
 10
652.6440054043332
 20
355.1234090737659
 30
0.0
  9
$EXTMAX
 10
1611.408826836687
 20
788.3046280767804
 30
0.0
  9
$LIMMIN
 10
0.0
 20
0.0
  9
$LIMMAX
 10
420.0
 20
297.0
  9
$ORTHOMODE
 70
     1
  9
$REGENMODE
 70
     1
  9
$FILLMODE
 70
     1
  9
$QTEXTMODE
 70
     0
  9
$MIRRTEXT
 70
     0
  9
$LTSCALE
 40
1.0
  9
$ATTMODE
 70
     1
  9
$TEXTSIZE
 40
2.5
  9
$TRACEWID
 40
1.0
  9
$TEXTSTYLE
  7
Standard
  9
$CLAYER
  8
0
  9
$CELTYPE
  6
ByLayer
  9
$CECOLOR
 62
   256
  9
$CELTSCALE
 40
1.0
  9
$DISPSILH
 70
     0
  9
$DIMSCALE
 40
1.0
  9
$DIMASZ
 40
2.5
  9
$DIMEXO
 40
0.625
  9
$DIMDLI
 40
3.75
  9
$DIMRND
 40
0.0
  9
$DIMDLE
 40
0.0
  9
$DIMEXE
 40
1.25
  9
$DIMTP
 40
0.0
  9
$DIMTM
 40
0.0
  9
$DIMTXT
 40
2.5
  9
$DIMCEN
 40
2.5
  9
$DIMTSZ
 40
0.0
  9
$DIMTOL
 70
     0
  9
$DIMLIM
 70
     0
  9
$DIMTIH
 70
     0
  9
$DIMTOH
 70
     0
  9
$DIMSE1
 70
     0
  9
$DIMSE2
 70
     0
  9
$DIMTAD
 70
     1
  9
$DIMZIN
 70
     8
  9
$DIMBLK
  1

  9
$DIMASO
 70
     1
  9
$DIMSHO
 70
     1
  9
$DIMPOST
  1

  9
$DIMAPOST
  1

  9
$DIMALT
 70
     0
  9
$DIMALTD
 70
     3
  9
$DIMALTF
 40
0.03937007874016
  9
$DIMLFAC
 40
1.0
  9
$DIMTOFL
 70
     1
  9
$DIMTVP
 40
0.0
  9
$DIMTIX
 70
     0
  9
$DIMSOXD
 70
     0
  9
$DIMSAH
 70
     0
  9
$DIMBLK1
  1

  9
$DIMBLK2
  1

  9
$DIMSTYLE
  2
ISO-25
  9
$DIMCLRD
 70
     0
  9
$DIMCLRE
 70
     0
  9
$DIMCLRT
 70
     0
  9
$DIMTFAC
 40
1.0
  9
$DIMGAP
 40
0.625
  9
$DIMJUST
 70
     0
  9
$DIMSD1
 70
     0
  9
$DIMSD2
 70
     0
  9
$DIMTOLJ
 70
     0
  9
$DIMTZIN
 70
     8
  9
$DIMALTZ
 70
     0
  9
$DIMALTTZ
 70
     0
  9
$DIMUPT
 70
     0
  9
$DIMDEC
 70
     2
  9
$DIMTDEC
 70
     2
  9
$DIMALTU
 70
     2
  9
$DIMALTTD
 70
     3
  9
$DIMTXSTY
  7
Standard
  9
$DIMAUNIT
 70
     0
  9
$DIMADEC
 70
     0
  9
$DIMALTRND
 40
0.0
  9
$DIMAZIN
 70
     0
  9
$DIMDSEP
 70
    44
  9
$DIMATFIT
 70
     3
  9
$DIMFRAC
 70
     0
  9
$DIMLDRBLK
  1

  9
$DIMLUNIT
 70
     2
  9
$DIMLWD
 70
    -2
  9
$DIMLWE
 70
    -2
  9
$DIMTMOVE
 70
     0
  9
$LUNITS
 70
     2
  9
$LUPREC
 70
     4
  9
$SKETCHINC
 40
1.0
  9
$FILLETRAD
 40
0.0
  9
$AUNITS
 70
     0
  9
$AUPREC
 70
     0
  9
$MENU
  1
.
  9
$ELEVATION
 40
0.0
  9
$PELEVATION
 40
0.0
  9
$THICKNESS
 40
0.0
  9
$LIMCHECK
 70
     0
  9
$CHAMFERA
 40
0.0
  9
$CHAMFERB
 40
0.0
  9
$CHAMFERC
 40
0.0
  9
$CHAMFERD
 40
0.0
  9
$SKPOLY
 70
     0
  9
$TDCREATE
 40
2454147.121615012
  9
$TDUCREATE
 40
2454147.329948345
  9
$TDUPDATE
 40
2454265.483868808
  9
$TDUUPDATE
 40
2454265.692202141
  9
$TDINDWG
 40
0.0092422106
  9
$TDUSRTIMER
 40
0.0092394792
  9
$USRTIMER
 70
     1
  9
$ANGBASE
 50
0.0
  9
$ANGDIR
 70
     0
  9
$PDMODE
 70
     0
  9
$PDSIZE
 40
0.0
  9
$PLINEWID
 40
0.0
  9
$SPLFRAME
 70
     0
  9
$SPLINETYPE
 70
     6
  9
$SPLINESEGS
 70
     8
  9
$HANDSEED
  5
2C8
  9
$SURFTAB1
 70
     6
  9
$SURFTAB2
 70
     6
  9
$SURFTYPE
 70
     6
  9
$SURFU
 70
     6
  9
$SURFV
 70
     6
  9
$UCSBASE
  2

  9
$UCSNAME
  2

  9
$UCSORG
 10
0.0
 20
0.0
 30
0.0
  9
$UCSXDIR
 10
1.0
 20
0.0
 30
0.0
  9
$UCSYDIR
 10
0.0
 20
1.0
 30
0.0
  9
$UCSORTHOREF
  2

  9
$UCSORTHOVIEW
 70
     0
  9
$UCSORGTOP
 10
0.0
 20
0.0
 30
0.0
  9
$UCSORGBOTTOM
 10
0.0
 20
0.0
 30
0.0
  9
$UCSORGLEFT
 10
0.0
 20
0.0
 30
0.0
  9
$UCSORGRIGHT
 10
0.0
 20
0.0
 30
0.0
  9
$UCSORGFRONT
 10
0.0
 20
0.0
 30
0.0
  9
$UCSORGBACK
 10
0.0
 20
0.0
 30
0.0
  9
$PUCSBASE
  2

  9
$PUCSNAME
  2

  9
$PUCSORG
 10
0.0
 20
0.0
 30
0.0
  9
$PUCSXDIR
 10
1.0
 20
0.0
 30
0.0
  9
$PUCSYDIR
 10
0.0
 20
1.0
 30
0.0
  9
$PUCSORTHOREF
  2

  9
$PUCSORTHOVIEW
 70
     0
  9
$PUCSORGTOP
 10
0.0
 20
0.0
 30
0.0
  9
$PUCSORGBOTTOM
 10
0.0
 20
0.0
 30
0.0
  9
$PUCSORGLEFT
 10
0.0
 20
0.0
 30
0.0
  9
$PUCSORGRIGHT
 10
0.0
 20
0.0
 30
0.0
  9
$PUCSORGFRONT
 10
0.0
 20
0.0
 30
0.0
  9
$PUCSORGBACK
 10
0.0
 20
0.0
 30
0.0
  9
$USERI1
 70
     0
  9
$USERI2
 70
     0
  9
$USERI3
 70
     0
  9
$USERI4
 70
     0
  9
$USERI5
 70
     0
  9
$USERR1
 40
0.0
  9
$USERR2
 40
0.0
  9
$USERR3
 40
0.0
  9
$USERR4
 40
0.0
  9
$USERR5
 40
0.0
  9
$WORLDVIEW
 70
     1
  9
$SHADEDGE
 70
     3
  9
$SHADEDIF
 70
    70
  9
$TILEMODE
 70
     1
  9
$MAXACTVP
 70
    64
  9
$PINSBASE
 10
0.0
 20
0.0
 30
0.0
  9
$PLIMCHECK
 70
     0
  9
$PEXTMIN
 10
0.0
 20
0.0
 30
0.0
  9
$PEXTMAX
 10
0.0
 20
0.0
 30
0.0
  9
$PLIMMIN
 10
0.0
 20
0.0
  9
$PLIMMAX
 10
12.0
 20
9.0
  9
$UNITMODE
 70
     0
  9
$VISRETAIN
 70
     1
  9
$PLINEGEN
 70
     0
  9
$PSLTSCALE
 70
     1
  9
$TREEDEPTH
 70
  3020
  9
$CMLSTYLE
  2
Standard
  9
$CMLJUST
 70
     0
  9
$CMLSCALE
 40
20.0
  9
$PROXYGRAPHICS
 70
     1
  9
$MEASUREMENT
 70
     1
  9
$CELWEIGHT
370
    -1
  9
$ENDCAPS
280
     0
  9
$JOINSTYLE
280
     0
  9
$LWDISPLAY
290
     1
  9
$INSUNITS
 70
     4
  9
$HYPERLINKBASE
  1

  9
$STYLESHEET
  1

  9
$XEDIT
290
     1
  9
$CEPSNTYPE
380
     0
  9
$PSTYLEMODE
290
     1
  9
$FINGERPRINTGUID
  2
{FDEAD578-A652-11D2-9A35-0060089B3A3F}
  9
$VERSIONGUID
  2
{8D1F450C-C89B-4B93-B1C9-6940A4D190A8}
  9
$EXTNAMES
290
     1
  9
$PSVPSCALE
 40
0.0
  9
$OLESTARTUP
290
     0
  0
ENDSEC
  0
SECTION
  2
CLASSES
  0
CLASS
  1
ACDBDICTIONARYWDFLT
  2
AcDbDictionaryWithDefault
  3
ObjectDBX Classes
 90
        0
280
     0
281
     0
  0
CLASS
  1
ACDBPLACEHOLDER
  2
AcDbPlaceHolder
  3
ObjectDBX Classes
 90
        0
280
     0
281
     0
  0
CLASS
  1
LAYOUT
  2
AcDbLayout
  3
ObjectDBX Classes
 90
        0
280
     0
281
     0
  0
CLASS
  1
DICTIONARYVAR
  2
AcDbDictionaryVar
  3
ObjectDBX Classes
 90
        0
280
     0
281
     0
  0
CLASS
  1
TABLESTYLE
  2
AcDbTableStyle
  3
ObjectDBX Classes
 90
     2047
280
     0
281
     0
  0
CLASS
  1
DIMASSOC
  2
AcDbDimAssoc
  3
"AcDbDimAssoc|Product Desc:     AcDim ARX App For Dimension|Company:          Autodesk, Inc.|WEB Address:      www.autodesk.com"
 90
        0
280
     0
281
     0
  0
CLASS
  1
SORTENTSTABLE
  2
AcDbSortentsTable
  3
ObjectDBX Classes
 90
        0
280
     0
281
     0
  0
ENDSEC
  0
SECTION
  2
TABLES
  0
TABLE
  2
VPORT
  5
8
330
0
100
AcDbSymbolTable
 70
     2
  0
VPORT
  5
2C0
330
8
100
AcDbSymbolTableRecord
100
AcDbViewportTableRecord
  2
*Active
 70
     0
 10
0.0
 20
0.0
 11
1.0
 21
1.0
 12
1149.704440218382
 22
605.583551441186
 13
0.0
 23
0.0
 14
10.0
 24
10.0
 15
10.0
 25
10.0
 16
0.0
 26
0.0
 36
1.0
 17
0.0
 27
0.0
 37
0.0
 40
611.0342238898774
 41
1.699463327370304
 42
50.0
 43
0.0
 44
0.0
 50
0.0
 51
0.0
 71
     0
 72
  1000
 73
     1
 74
     3
 75
     0
 76
     0
 77
     0
 78
     0
281
     0
 65
     1
110
0.0
120
0.0
130
0.0
111
1.0
121
0.0
131
0.0
112
0.0
122
1.0
132
0.0
 79
     0
146
0.0
  0
ENDTAB
  0
TABLE
  2
LTYPE
  5
5
330
0
100
AcDbSymbolTable
 70
     2
  0
LTYPE
  5
14
330
5
100
AcDbSymbolTableRecord
100
AcDbLinetypeTableRecord
  2
ByBlock
 70
     0
  3

 72
    65
 73
     0
 40
0.0
  0
LTYPE
  5
15
330
5
100
AcDbSymbolTableRecord
100
AcDbLinetypeTableRecord
  2
ByLayer
 70
     0
  3

 72
    65
 73
     0
 40
0.0
  0
LTYPE
  5
16
330
5
100
AcDbSymbolTableRecord
100
AcDbLinetypeTableRecord
  2
Continuous
 70
     0
  3
Solid line
 72
    65
 73
     0
 40
0.0
  0
LTYPE
  5
87
330
5
100
AcDbSymbolTableRecord
100
AcDbLinetypeTableRecord
  2
ACAD_ISO03W100
 70
     0
  3
ISO dash space __    __    __    __    __    __
 72
    65
 73
     2
 40
30.0
 49
12.0
 74
     0
 49
-18.0
 74
     0
  0
ENDTAB
  0
TABLE
  2
LAYER
  5
2
330
0
100
AcDbSymbolTable
 70
     2
  0
LAYER
  5
10
330
2
100
AcDbSymbolTableRecord
100
AcDbLayerTableRecord
  2
0
 70
     0
 62
     7
  6
Continuous
370
    -3
390
F
  0
LAYER
  5
CD
330
2
100
AcDbSymbolTableRecord
100
AcDbLayerTableRecord
  2
Defpoints
 70
     0
 62
     7
  6
Continuous
290
     0
370
    -3
390
F
  0
ENDTAB
  0
TABLE
  2
STYLE
  5
3
330
0
100
AcDbSymbolTable
 70
     1
  0
STYLE
  5
11
330
3
100
AcDbSymbolTableRecord
100
AcDbTextStyleTableRecord
  2
Standard
 70
     0
 40
0.0
 41
1.0
 50
0.0
 71
     0
 42
2.5
  3
txt
  4

  0
ENDTAB
  0
TABLE
  2
VIEW
  5
6
330
0
100
AcDbSymbolTable
 70
     0
  0
ENDTAB
  0
TABLE
  2
UCS
  5
7
330
0
100
AcDbSymbolTable
 70
     0
  0
ENDTAB
  0
TABLE
  2
APPID
  5
9
330
0
100
AcDbSymbolTable
 70
     2
  0
APPID
  5
12
330
9
100
AcDbSymbolTableRecord
100
AcDbRegAppTableRecord
  2
ACAD
 70
     0
  0
APPID
  5
AC
330
9
100
AcDbSymbolTableRecord
100
AcDbRegAppTableRecord
  2
DCO15
 70
     0
  0
ENDTAB
  0
TABLE
  2
DIMSTYLE
  5
A
330
0
100
AcDbSymbolTable
 70
     2
100
AcDbDimStyleTable
 71
     2
340
27
340
110
  0
DIMSTYLE
105
27
102
{ACAD_REACTORS
330
F5
330
DD
330
CC
102
}
330
A
100
AcDbSymbolTableRecord
100
AcDbDimStyleTableRecord
  2
ISO-25
 70
     0
 41
2.5
 42
0.625
 43
3.75
 44
1.25
 73
     0
 74
     0
 77
     1
 78
     8
140
2.5
141
2.5
143
0.03937007874016
147
0.625
171
     3
172
     1
271
     2
272
     2
274
     3
278
    44
283
     0
284
     8
340
11
  0
DIMSTYLE
105
110
330
A
100
AcDbSymbolTableRecord
100
AcDbDimStyleTableRecord
  2
STANDARD
 70
     0
340
11
  0
ENDTAB
  0
TABLE
  2
BLOCK_RECORD
  5
1
330
0
100
AcDbSymbolTable
 70
     6
  0
BLOCK_RECORD
  5
1F
102
{ACAD_XDICTIONARY
360
2A4
102
}
330
1
100
AcDbSymbolTableRecord
100
AcDbBlockTableRecord
  2
*Model_Space
340
22
  0
BLOCK_RECORD
  5
50
330
1
100
AcDbSymbolTableRecord
100
AcDbBlockTableRecord
  2
*Paper_Space
340
51
  0
BLOCK_RECORD
  5
55
330
1
100
AcDbSymbolTableRecord
100
AcDbBlockTableRecord
  2
*Paper_Space0
340
56
  0
BLOCK_RECORD
  5
CE
330
1
100
AcDbSymbolTableRecord
100
AcDbBlockTableRecord
  2
*D1
340
0
  0
BLOCK_RECORD
  5
DE
330
1
100
AcDbSymbolTableRecord
100
AcDbBlockTableRecord
  2
*D2
340
0
  0
BLOCK_RECORD
  5
F6
330
1
100
AcDbSymbolTableRecord
100
AcDbBlockTableRecord
  2
*D3
340
0
  0
BLOCK_RECORD
  5
173
330
1
100
AcDbSymbolTableRecord
100
AcDbBlockTableRecord
  2
_Dot
340
0
102
{BLKREFS
331
24E
331
24F
331
264
331
265
331
290
102
}
  0
BLOCK_RECORD
  5
210
330
1
100
AcDbSymbolTableRecord
100
AcDbBlockTableRecord
  2
_Open30
340
0
  0
ENDTAB
  0
ENDSEC
  0
SECTION
  2
BLOCKS
  0
BLOCK
  5
20
330
1F
100
AcDbEntity
  8
0
100
AcDbBlockBegin
  2
*Model_Space
 70
     0
 10
0.0
 20
0.0
 30
0.0
  3
*Model_Space
  1

  0
ENDBLK
  5
21
330
1F
100
AcDbEntity
  8
0
100
AcDbBlockEnd
  0
BLOCK
  5
52
330
50
100
AcDbEntity
 67
     1
  8
0
100
AcDbBlockBegin
  2
*Paper_Space
 70
     0
 10
0.0
 20
0.0
 30
0.0
  3
*Paper_Space
  1

  0
ENDBLK
  5
53
330
50
100
AcDbEntity
 67
     1
  8
0
100
AcDbBlockEnd
  0
BLOCK
  5
57
330
55
100
AcDbEntity
  8
0
100
AcDbBlockBegin
  2
*Paper_Space0
 70
     0
 10
0.0
 20
0.0
 30
0.0
  3
*Paper_Space0
  1

  0
ENDBLK
  5
58
330
55
100
AcDbEntity
  8
0
100
AcDbBlockEnd
  0
BLOCK
  5
D4
330
CE
100
AcDbEntity
  8
0
100
AcDbBlockBegin
  2
*D1
 70
     1
 10
0.0
 20
0.0
 30
0.0
  3
*D1
  1

  0
LINE
  5
28E
330
CE
100
AcDbEntity
  8
0
 62
     0
370
    -2
100
AcDbLine
 10
767.1095506171042
 20
462.113904449414
 30
0.0
 11
678.3342699943013
 21
392.7400813738445
 31
0.0
  0
MTEXT
  5
28F
330
CE
100
AcDbEntity
  8
0
 62
    40
100
AcDbMText
 10
731.7894077629071
 20
451.0114143441779
 30
0.0
 40
10.0
 41
0.0
 71
     5
 72
     1
  1
4XR{\H1.000000x;\S3#16;}''
 11
0.7879462777171856
 21
0.6157439917949925
 31
0.0
 73
     1
 44
1.0
1001
ACAD
1000
MTEXTBEGIN
1070
    73
1070
     1
1070
    44
1040
1.0
1070
    74
1070
     1
1000
MTEXTEND
  0
INSERT
  5
290
330
CE
100
AcDbEntity
  8
0
 62
     0
370
    -2
100
AcDbBlockReference
  2
_Dot
 10
672.8186460502808
 20
388.4298734312796
 30
0.0
 41
7.0
 42
7.0
 43
7.0
 50
218.0059999674291
  0
POINT
  5
291
330
CE
100
AcDbEntity
  8
Defpoints
 62
     0
100
AcDbPoint
 10
672.8186460502808
 20
388.4298734312796
 30
0.0
  0
POINT
  5
292
330
CE
100
AcDbEntity
  8
Defpoints
 62
     0
100
AcDbPoint
 10
676.7583774388667
 20
391.5085933902545
 30
0.0
  0
ENDBLK
  5
D5
330
CE
100
AcDbEntity
  8
0
100
AcDbBlockEnd
  0
BLOCK
  5
E8
330
DE
100
AcDbEntity
  8
0
100
AcDbBlockBegin
  2
*D2
 70
     1
 10
0.0
 20
0.0
 30
0.0
  3
*D2
  1

  0
LINE
  5
261
330
DE
100
AcDbEntity
  8
0
 62
     0
370
    -2
100
AcDbLine
 10
910.8833774388667
 20
708.5085933902548
 30
0.0
 11
1208.901741959199
 21
708.5085933902548
 31
0.0
  0
LINE
  5
262
330
DE
100
AcDbEntity
  8
0
 62
     0
370
    -2
100
AcDbLine
 10
910.8833774388667
 20
386.5085933902546
 30
0.0
 11
1208.901741959199
 21
386.5085933902546
 31
0.0
  0
LINE
  5
263
330
DE
100
AcDbEntity
  8
0
 62
     0
370
    -2
100
AcDbLine
 10
1203.901741959199
 20
701.5085933902549
 30
0.0
 11
1203.901741959199
 21
393.5085933902545
 31
0.0
  0
INSERT
  5
264
330
DE
100
AcDbEntity
  8
0
 62
     0
370
    -2
100
AcDbBlockReference
  2
_Dot
 10
1203.901741959199
 20
708.5085933902548
 30
0.0
 41
7.0
 42
7.0
 43
7.0
 50
90.0
  0
INSERT
  5
265
330
DE
100
AcDbEntity
  8
0
 62
     0
370
    -2
100
AcDbBlockReference
  2
_Dot
 10
1203.901741959199
 20
386.5085933902546
 30
0.0
 41
7.0
 42
7.0
 43
7.0
 50
270.0
  0
MTEXT
  5
266
330
DE
100
AcDbEntity
  8
0
 62
    40
100
AcDbMText
 10
1190.901741959199
 20
547.5085933902546
 30
0.0
 40
10.0
 41
0.0
 71
     5
 72
     1
  1
12{\H1.000000x;\S11#16;}''
 11
0.0000000000000001
 21
1.0
 31
0.0
 73
     1
 44
1.0
1001
ACAD
1000
MTEXTBEGIN
1070
    73
1070
     1
1070
    44
1040
1.0
1070
    74
1070
     1
1000
MTEXTEND
  0
POINT
  5
267
330
DE
100
AcDbEntity
  8
Defpoints
 62
     0
100
AcDbPoint
 10
910.2583774388667
 20
708.5085933902548
 30
0.0
  0
POINT
  5
268
330
DE
100
AcDbEntity
  8
Defpoints
 62
     0
100
AcDbPoint
 10
910.2583774388667
 20
386.5085933902546
 30
0.0
  0
POINT
  5
269
330
DE
100
AcDbEntity
  8
Defpoints
 62
     0
100
AcDbPoint
 10
1203.901741959199
 20
386.5085933902546
 30
0.0
  0
ENDBLK
  5
E9
330
DE
100
AcDbEntity
  8
0
100
AcDbBlockEnd
  0
BLOCK
  5
100
330
F6
100
AcDbEntity
  8
0
100
AcDbBlockBegin
  2
*D3
 70
     1
 10
0.0
 20
0.0
 30
0.0
  3
*D3
  1

  0
LINE
  5
24B
330
F6
100
AcDbEntity
  8
0
 62
     0
370
    -2
100
AcDbLine
 10
671.7583774388668
 20
548.1335933902546
 30
0.0
 11
671.7583774388668
 21
770.3046280767804
 31
0.0
  0
LINE
  5
24C
330
F6
100
AcDbEntity
  8
0
 62
     0
370
    -2
100
AcDbLine
 10
1148.758377438867
 20
548.1335933902546
 30
0.0
 11
1148.758377438867
 21
770.3046280767804
 31
0.0
  0
LINE
  5
24D
330
F6
100
AcDbEntity
  8
0
 62
     0
370
    -2
100
AcDbLine
 10
678.7583774388667
 20
765.3046280767804
 30
0.0
 11
1141.758377438867
 21
765.3046280767804
 31
0.0
  0
INSERT
  5
24E
330
F6
100
AcDbEntity
  8
0
 62
     0
370
    -2
100
AcDbBlockReference
  2
_Dot
 10
671.7583774388668
 20
765.3046280767804
 30
0.0
 41
7.0
 42
7.0
 43
7.0
 50
180.0
  0
INSERT
  5
24F
330
F6
100
AcDbEntity
  8
0
 62
     0
370
    -2
100
AcDbBlockReference
  2
_Dot
 10
1148.758377438867
 20
765.3046280767804
 30
0.0
 41
7.0
 42
7.0
 43
7.0
  0
MTEXT
  5
250
330
F6
100
AcDbEntity
  8
0
 62
    40
100
AcDbMText
 10
910.2583774388667
 20
778.3046280767804
 30
0.0
 40
10.0
 41
0.0
 71
     5
 72
     1
  1
18{\H1.000000x;\S3#4;}''
 73
     1
 44
1.0
1001
ACAD
1000
MTEXTBEGIN
1070
    73
1070
     1
1070
    44
1040
1.0
1070
    74
1070
     1
1000
MTEXTEND
  0
POINT
  5
251
330
F6
100
AcDbEntity
  8
Defpoints
 62
     0
100
AcDbPoint
 10
671.7583774388668
 20
547.5085933902546
 30
0.0
  0
POINT
  5
252
330
F6
100
AcDbEntity
  8
Defpoints
 62
     0
100
AcDbPoint
 10
1148.758377438867
 20
547.5085933902546
 30
0.0
  0
POINT
  5
253
330
F6
100
AcDbEntity
  8
Defpoints
 62
     0
100
AcDbPoint
 10
1148.758377438867
 20
765.3046280767804
 30
0.0
  0
ENDBLK
  5
101
330
F6
100
AcDbEntity
  8
0
100
AcDbBlockEnd
  0
BLOCK
  5
174
330
173
100
AcDbEntity
  8
0
100
AcDbBlockBegin
  2
_Dot
 70
     0
 10
0.0
 20
0.0
 30
0.0
  3
_Dot
  1

  0
LWPOLYLINE
  5
175
330
173
100
AcDbEntity
  8
0
  6
ByBlock
 62
     0
100
AcDbPolyline
 90
        2
 70
     1
 43
0.5
 10
-0.25
 20
0.0
 42
1.0
 10
0.25
 20
0.0
 42
1.0
  0
LINE
  5
176
330
173
100
AcDbEntity
  8
0
  6
ByBlock
 62
     0
370
    -2
100
AcDbLine
 10
-0.5
 20
0.0
 30
0.0
 11
-1.0
 21
0.0
 31
0.0
  0
ENDBLK
  5
177
330
173
100
AcDbEntity
  8
0
100
AcDbBlockEnd
  0
BLOCK
  5
211
330
210
100
AcDbEntity
  8
0
100
AcDbBlockBegin
  2
_Open30
 70
     0
 10
0.0
 20
0.0
 30
0.0
  3
_Open30
  1

  0
LINE
  5
212
330
210
100
AcDbEntity
  8
0
  6
ByBlock
 62
     0
370
    -2
100
AcDbLine
 10
-1.0
 20
0.26794919
 30
0.0
 11
0.0
 21
0.0
 31
0.0
  0
LINE
  5
213
330
210
100
AcDbEntity
  8
0
  6
ByBlock
 62
     0
370
    -2
100
AcDbLine
 10
0.0
 20
0.0
 30
0.0
 11
-1.0
 21
-0.26794919
 31
0.0
  0
LINE
  5
214
330
210
100
AcDbEntity
  8
0
  6
ByBlock
 62
     0
370
    -2
100
AcDbLine
 10
0.0
 20
0.0
 30
0.0
 11
-1.0
 21
0.0
 31
0.0
  0
ENDBLK
  5
215
330
210
100
AcDbEntity
  8
0
100
AcDbBlockEnd
  0
ENDSEC
  0
SECTION
  2
ENTITIES
  0
ARC
  5
A2
330
1F
100
AcDbEntity
  8
0
370
    30
100
AcDbCircle
 10
1143.758377438867
 20
391.5085933902546
 30
0.0
 40
5.0
100
AcDbArc
 50
270.0
 51
0.0
  0
ARC
  5
A3
330
1F
100
AcDbEntity
  8
0
370
    30
100
AcDbCircle
 10
1143.758377438867
 20
703.5085933902548
 30
0.0
 40
5.0
100
AcDbArc
 50
0.0
 51
90.0
  0
ARC
  5
A4
102
{ACAD_REACTORS
330
DC
102
}
330
1F
100
AcDbEntity
  8
0
370
    30
100
AcDbCircle
 10
676.7583774388667
 20
391.5085933902546
 30
0.0
 40
5.0
100
AcDbArc
 50
180.0
 51
270.0
  0
ARC
  5
A5
330
1F
100
AcDbEntity
  8
0
370
    30
100
AcDbCircle
 10
676.7583774388667
 20
703.5085933902546
 30
0.0
 40
5.0
100
AcDbArc
 50
90.0
 51
180.0
  0
LINE
  5
A6
102
{ACAD_REACTORS
330
10C
102
}
330
1F
100
AcDbEntity
  8
0
370
    30
100
AcDbLine
 10
671.7583774388668
 20
703.5085933902546
 30
0.0
 11
671.7583774388668
 21
391.5085933902546
 31
0.0
  0
LINE
  5
A7
102
{ACAD_REACTORS
330
F4
102
}
330
1F
100
AcDbEntity
  8
0
370
    30
100
AcDbLine
 10
1143.758377438867
 20
708.5085933902548
 30
0.0
 11
676.7583774388667
 21
708.5085933902546
 31
0.0
  0
LINE
  5
A8
102
{ACAD_REACTORS
330
10C
102
}
330
1F
100
AcDbEntity
  8
0
370
    30
100
AcDbLine
 10
1148.758377438867
 20
391.5085933902546
 30
0.0
 11
1148.758377438867
 21
703.5085933902548
 31
0.0
  0
LINE
  5
A9
102
{ACAD_REACTORS
330
F4
102
}
330
1F
100
AcDbEntity
  8
0
370
    30
100
AcDbLine
 10
676.7583774388667
 20
386.5085933902546
 30
0.0
 11
1143.758377438867
 21
386.5085933902546
 31
0.0
  0
DIMENSION
  5
CC
102
{ACAD_XDICTIONARY
360
D6
102
}
102
{ACAD_REACTORS
330
DC
102
}
330
1F
100
AcDbEntity
  8
0
 62
   102
100
AcDbDimension
  2
*D1
 10
676.7583774388667
 20
391.5085933902545
 30
0.0
 11
739.794079656242
 21
440.7681127338545
 31
0.0
 70
   164
  1
4X<>
 71
     5
 42
0.19685
  3
ISO-25
100
AcDbRadialDimension
 15
672.8186460502808
 25
388.4298734312796
 35
0.0
 40
0.0
1001
ACAD
1000
DSTYLE
1002
{
1070
     3
1000
''
1070
    41
1040
7.0
1070
    44
1040
5.0
1070
   140
1040
10.0
1070
   144
1040
0.03937
1070
   147
1040
3.0
1070
   173
1070
     1
1070
   178
1070
    40
1070
   271
1070
     4
1070
   276
1070
     1
1070
   277
1070
     5
1070
   278
1070
    46
1070
   343
1005
173
1070
   344
1005
173
1002
}
  0
DIMENSION
  5
DD
102
{ACAD_XDICTIONARY
360
EA
102
}
102
{ACAD_REACTORS
330
F4
102
}
330
1F
100
AcDbEntity
  8
0
 62
   102
100
AcDbDimension
  2
*D2
 10
1203.901741959199
 20
386.5085933902546
 30
0.0
 11
1190.901741959199
 21
547.5085933902546
 31
0.0
 70
    32
 71
     5
 42
12.67714000000001
  3
ISO-25
100
AcDbAlignedDimension
 13
910.2583774388667
 23
708.5085933902548
 33
0.0
 14
910.2583774388667
 24
386.5085933902546
 34
0.0
 50
90.0
100
AcDbRotatedDimension
1001
ACAD
1000
DSTYLE
1002
{
1070
     3
1000
''
1070
    41
1040
7.0
1070
    44
1040
5.0
1070
   140
1040
10.0
1070
   144
1040
0.03937
1070
   147
1040
3.0
1070
   173
1070
     1
1070
   178
1070
    40
1070
   271
1070
     4
1070
   276
1070
     1
1070
   277
1070
     5
1070
   278
1070
    46
1070
   343
1005
173
1070
   344
1005
173
1002
}
  0
DIMENSION
  5
F5
102
{ACAD_XDICTIONARY
360
102
102
}
102
{ACAD_REACTORS
330
10C
102
}
330
1F
100
AcDbEntity
  8
0
 62
   102
100
AcDbDimension
  2
*D3
 10
1148.758377438867
 20
765.3046280767804
 30
0.0
 11
910.2583774388667
 21
778.3046280767804
 31
0.0
 70
    32
 71
     5
 42
18.77949000000001
  3
ISO-25
100
AcDbAlignedDimension
 13
671.7583774388668
 23
547.5085933902546
 33
0.0
 14
1148.758377438867
 24
547.5085933902546
 34
0.0
100
AcDbRotatedDimension
1001
ACAD
1000
DSTYLE
1002
{
1070
     3
1000
''
1070
    41
1040
7.0
1070
    44
1040
5.0
1070
   140
1040
10.0
1070
   144
1040
0.03937
1070
   147
1040
3.0
1070
   173
1070
     1
1070
   178
1070
    40
1070
   271
1070
     4
1070
   276
1070
     1
1070
   277
1070
     5
1070
   278
1070
    46
1070
   343
1005
173
1070
   344
1005
173
1002
}
  0
MTEXT
  5
16F
330
1F
100
AcDbEntity
  8
0
 62
     7
100
AcDbMText
 10
1296.589149187146
 20
389.8657684949677
 30
0.0
 40
12.0
 41
130.2341902346481
 71
     1
 72
     5
  1
{\C3;UNIT: INCH}
 73
     1
 44
1.0
1001
ACAD
1000
MTEXTBEGIN
1070
    73
1070
     1
1070
    44
1040
1.0
1070
    74
1070
     0
1000
MTEXTEND
  0
MTEXT
  5
170
330
1F
100
AcDbEntity
  8
0
 62
     0
100
AcDbMText
 10
1285.408826836687
 20
760.6056790987922
 30
0.0
 40
6.0
 41
328.9613009778151
 71
     1
 72
     5
  3
{\H2x;\C4;Notes: \P1. WELLS recommends that Wells Sinkware under-mount sinks be installed by professional countertop fabricators/installers. \P2. The template is only a guide. It's important that you check the template provided with your sink against
  1
 the sink (to assure that template agrees with sink) before cutting the counter top.}
 73
     1
 44
1.0
1001
ACAD
1000
MTEXTBEGIN
1070
    73
1070
     1
1070
    44
1040
1.0
1070
    74
1070
     0
1000
MTEXTEND
  0
MTEXT
  5
171
330
1F
100
AcDbEntity
  8
0
 62
     7
100
AcDbMText
 10
1290.5419857395
 20
483.4623340708922
 30
0.0
 40
12.0
 41
281.7
 71
     1
 72
     5
  1
{\C3;WELLS SINKWARE\PRTU2216-6 (U404)\PCUTOUT TEMPLATE}
 73
     1
 44
1.0
1001
ACAD
1000
MTEXTBEGIN
1070
    73
1070
     1
1070
    44
1040
1.0
1070
    74
1070
     0
1000
MTEXTEND
  0
LINE
  5
2A0
330
1F
100
AcDbEntity
  8
0
 62
     1
100
AcDbLine
 10
910.2583774388667
 20
735.41382282339
 30
0.0
 11
910.2583774388667
 21
708.5085933902548
 31
0.0
  0
LINE
  5
2A1
330
1F
100
AcDbEntity
  8
0
 62
     1
100
AcDbLine
 10
652.6440054043332
 20
547.5085933902546
 30
0.0
 11
671.7583774388668
 21
547.5085933902545
 31
0.0
  0
POINT
  5
2A2
330
1F
100
AcDbEntity
  8
0
 62
     1
100
AcDbPoint
 10
910.2583774388667
 20
547.5085933902546
 30
0.0
  0
LINE
  5
2A3
330
1F
100
AcDbEntity
  8
0
 62
     1
100
AcDbLine
 10
1148.758377438867
 20
547.5085933902549
 30
0.0
 11
1167.314580442238
 21
547.5085933902546
 31
0.0
  0
LINE
  5
2A6
330
1F
100
AcDbEntity
  8
0
 62
     1
100
AcDbLine
 10
910.2583774388667
 20
386.5085933902546
 30
0.0
 11
910.2583774388667
 21
355.1234090737659
 31
0.0
  0
MTEXT
  5
2B3
330
1F
100
AcDbEntity
  8
0
100
AcDbMText
 10
886.6884607447772
 20
537.8898462178361
 30
0.0
 40
24.0
 41
112.4776765242841
 71
     1
 72
     5
  1
{\C1;(0,0)}
 73
     1
 44
1.0
1001
ACAD
1000
MTEXTBEGIN
1070
    73
1070
     1
1070
    44
1040
1.0
1070
    74
1070
     0
1000
MTEXTEND
  0
ENDSEC
  0
SECTION
  2
OBJECTS
  0
DICTIONARY
  5
C
330
0
100
AcDbDictionary
281
     1
  3
ACAD_COLOR
350
6B
  3
ACAD_GROUP
350
D
  3
ACAD_LAYOUT
350
1A
  3
ACAD_MATERIAL
350
6A
  3
ACAD_MLINESTYLE
350
17
  3
ACAD_PLOTSETTINGS
350
19
  3
ACAD_PLOTSTYLENAME
350
E
  3
ACAD_TABLESTYLE
350
BC
  3
ACDBHEADERROUNDTRIPXREC
350
2C1
  3
AcDbVariableDictionary
350
5E
  3
ASE_INDEX_DICTIONARY
350
AB
  0
DICTIONARY
  5
2A4
330
1F
100
AcDbDictionary
280
     1
281
     1
  3
ACAD_SORTENTS
360
2A5
  0
DICTIONARY
  5
D6
330
CC
100
AcDbDictionary
280
     1
281
     1
  3
ACAD_DIMASSOC
360
DC
  0
DICTIONARY
  5
EA
330
DD
100
AcDbDictionary
280
     1
281
     1
  3
ACAD_DIMASSOC
360
F4
  0
DICTIONARY
  5
102
330
F5
100
AcDbDictionary
280
     1
281
     1
  3
ACAD_DIMASSOC
360
10C
  0
DICTIONARY
  5
6B
102
{ACAD_REACTORS
330
C
102
}
330
C
100
AcDbDictionary
281
     1
  0
DICTIONARY
  5
D
102
{ACAD_REACTORS
330
C
102
}
330
C
100
AcDbDictionary
281
     1
  0
DICTIONARY
  5
1A
102
{ACAD_REACTORS
330
C
102
}
330
C
100
AcDbDictionary
281
     1
  3
Model
350
22
  3
布局1
350
51
  3
布局2
350
56
  0
DICTIONARY
  5
6A
102
{ACAD_REACTORS
330
C
102
}
330
C
100
AcDbDictionary
281
     1
  0
DICTIONARY
  5
17
102
{ACAD_REACTORS
330
C
102
}
330
C
100
AcDbDictionary
281
     1
  3
Standard
350
18
  0
DICTIONARY
  5
19
102
{ACAD_REACTORS
330
C
102
}
330
C
100
AcDbDictionary
281
     1
  0
ACDBDICTIONARYWDFLT
  5
E
102
{ACAD_REACTORS
330
C
102
}
330
C
100
AcDbDictionary
281
     1
  3
Normal
350
F
100
AcDbDictionaryWithDefault
340
F
  0
DICTIONARY
  5
BC
102
{ACAD_REACTORS
330
C
102
}
330
C
100
AcDbDictionary
281
     1
  3
Standard
350
BD
  0
DICTIONARY
  5
2C1
102
{ACAD_REACTORS
330
C
102
}
330
C
100
AcDbDictionary
281
     1
  0
DICTIONARY
  5
5E
102
{ACAD_REACTORS
330
C
102
}
330
C
100
AcDbDictionary
281
     1
  3
CTABLESTYLE
350
157
  3
DIMASSOC
350
5F
  3
HIDETEXT
350
63
  3
PROJECTNAME
350
AF
  0
DICTIONARY
  5
AB
102
{ACAD_REACTORS
330
C
102
}
330
C
100
AcDbDictionary
281
     1
  3
ASEBlockHierarchyIndexRecord
350
AD
1001
DCO15
1040
1584960645.688
  0
SORTENTSTABLE
  5
2A5
102
{ACAD_REACTORS
330
2A4
102
}
330
2A4
100
AcDbSortentsTable
330
1F
331
2A2
  5
2A6
331
A2
  5
A2
331
16F
  5
16F
331
2A0
  5
2A0
331
171
  5
171
331
F5
  5
F5
331
A7
  5
A7
331
A8
  5
A8
331
A5
  5
A5
331
CC
  5
CC
331
A3
  5
A3
331
2A1
  5
2A2
331
170
  5
170
331
DD
  5
DD
331
2A6
  5
2A1
331
A6
  5
A6
331
A9
  5
A9
331
A4
  5
A4
  0
DIMASSOC
  5
DC
102
{ACAD_REACTORS
330
D6
102
}
330
D6
100
AcDbDimAssoc
330
CC
 90
        2
 70
     0
 71
     0
  1
AcDbOsnapPointRef
 72
     3
331
A4
 73
     2
 91
        0
 40
0.0
 10
0.0
 20
0.0
 30
0.0
 75
     0
  0
DIMASSOC
  5
F4
102
{ACAD_REACTORS
330
EA
102
}
330
EA
100
AcDbDimAssoc
330
DD
 90
        3
 70
     0
 71
     0
  1
AcDbOsnapPointRef
 72
     2
331
A7
 73
     2
 91
        0
 40
0.5
 10
0.0
 20
0.0
 30
0.0
 75
     0
  1
AcDbOsnapPointRef
 72
     2
331
A9
 73
     2
 91
        0
 40
0.5
 10
0.0
 20
0.0
 30
0.0
 75
     0
  0
DIMASSOC
  5
10C
102
{ACAD_REACTORS
330
102
102
}
330
102
100
AcDbDimAssoc
330
F5
 90
        3
 70
     0
 71
     0
  1
AcDbOsnapPointRef
 72
     2
331
A6
 73
     2
 91
        0
 40
0.5
 10
0.0
 20
0.0
 30
0.0
 75
     0
  1
AcDbOsnapPointRef
 72
     2
331
A8
 73
     2
 91
        0
 40
0.5000000000000001
 10
0.0
 20
0.0
 30
0.0
 75
     0
  0
LAYOUT
  5
22
102
{ACAD_XDICTIONARY
360
2C2
102
}
102
{ACAD_REACTORS
330
1A
102
}
330
1A
100
AcDbPlotSettings
  1

  2
none_device
  4
ANSI_A_(8.50_x_11.00_Inches)
  6

 40
6.349999904632567
 41
19.04999923706055
 42
6.350006103515625
 43
19.04998779296875
 44
215.8999938964844
 45
279.3999938964844
 46
0.0
 47
0.0
 48
0.0
 49
0.0
140
0.0
141
0.0
142
1.0
143
78.436453180766
 70
 11952
 72
     0
 73
     1
 74
     0
  7

 75
     0
147
0.0127491741332998
148
0.0
149
0.0
100
AcDbLayout
  1
Model
 70
     1
 71
     0
 10
0.0
 20
0.0
 11
12.0
 21
9.0
 12
0.0
 22
0.0
 32
0.0
 14
0.0
 24
0.0
 34
0.0
 15
0.0
 25
0.0
 35
0.0
146
0.0
 13
0.0
 23
0.0
 33
0.0
 16
1.0
 26
0.0
 36
0.0
 17
0.0
 27
1.0
 37
0.0
 76
     0
330
1F
  0
LAYOUT
  5
51
102
{ACAD_XDICTIONARY
360
2C4
102
}
102
{ACAD_REACTORS
330
1A
102
}
330
1A
100
AcDbPlotSettings
  1

  2
None
  4

  6

 40
0.0
 41
0.0
 42
0.0
 43
0.0
 44
0.0
 45
0.0
 46
0.0
 47
0.0
 48
0.0
 49
0.0
140
0.0
141
0.0
142
1.0
143
1.0
 70
   688
 72
     0
 73
     0
 74
     5
  7

 75
    16
147
1.0
148
0.0
149
0.0
100
AcDbLayout
  1
布局1
 70
     1
 71
     1
 10
0.0
 20
0.0
 11
12.0
 21
9.0
 12
0.0
 22
0.0
 32
0.0
 14
0.0
 24
0.0
 34
0.0
 15
0.0
 25
0.0
 35
0.0
146
0.0
 13
0.0
 23
0.0
 33
0.0
 16
1.0
 26
0.0
 36
0.0
 17
0.0
 27
1.0
 37
0.0
 76
     0
330
50
  0
LAYOUT
  5
56
102
{ACAD_XDICTIONARY
360
2C6
102
}
102
{ACAD_REACTORS
330
1A
102
}
330
1A
100
AcDbPlotSettings
  1

  2
None
  4

  6

 40
0.0
 41
0.0
 42
0.0
 43
0.0
 44
0.0
 45
0.0
 46
0.0
 47
0.0
 48
0.0
 49
0.0
140
0.0
141
0.0
142
1.0
143
1.0
 70
   688
 72
     0
 73
     0
 74
     5
  7

 75
    16
147
1.0
148
0.0
149
0.0
100
AcDbLayout
  1
布局2
 70
     1
 71
     2
 10
0.0
 20
0.0
 11
12.0
 21
9.0
 12
0.0
 22
0.0
 32
0.0
 14
0.0
 24
0.0
 34
0.0
 15
0.0
 25
0.0
 35
0.0
146
0.0
 13
0.0
 23
0.0
 33
0.0
 16
1.0
 26
0.0
 36
0.0
 17
0.0
 27
1.0
 37
0.0
 76
     0
330
55
  0
MLINESTYLE
  5
18
102
{ACAD_REACTORS
330
17
102
}
330
17
100
AcDbMlineStyle
  2
STANDARD
 70
     0
  3

 62
   256
 51
90.0
 52
90.0
 71
     2
 49
0.5
 62
   256
  6
BYLAYER
 49
-0.5
 62
   256
  6
BYLAYER
  0
ACDBPLACEHOLDER
  5
F
102
{ACAD_REACTORS
330
E
102
}
330
E
  0
TABLESTYLE
  5
BD
102
{ACAD_REACTORS
330
BC
102
}
330
BC
100
AcDbTableStyle
  3
Standard
 70
     0
 71
     0
 40
1.5
 41
1.5
280
     0
281
     0
  7
Standard
140
4.5
170
     2
 62
     0
 63
     7
283
     0
274
    -2
284
     1
 64
     0
275
    -2
285
     1
 65
     0
276
    -2
286
     1
 66
     0
277
    -2
287
     1
 67
     0
278
    -2
288
     1
 68
     0
279
    -2
289
     1
 69
     0
  7
Standard
140
6.0
170
     5
 62
     0
 63
     7
283
     0
274
    -2
284
     1
 64
     0
275
    -2
285
     1
 65
     0
276
    -2
286
     1
 66
     0
277
    -2
287
     1
 67
     0
278
    -2
288
     1
 68
     0
279
    -2
289
     1
 69
     0
  7
Standard
140
4.5
170
     5
 62
     0
 63
     7
283
     0
274
    -2
284
     1
 64
     0
275
    -2
285
     1
 65
     0
276
    -2
286
     1
 66
     0
277
    -2
287
     1
 67
     0
278
    -2
288
     1
 68
     0
279
    -2
289
     1
 69
     0
  0
DICTIONARYVAR
  5
157
102
{ACAD_REACTORS
330
5E
102
}
330
5E
100
DictionaryVariables
280
     0
  1
STANDARD
  0
DICTIONARYVAR
  5
5F
102
{ACAD_REACTORS
330
5E
102
}
330
5E
100
DictionaryVariables
280
     0
  1
2
  0
DICTIONARYVAR
  5
63
102
{ACAD_REACTORS
330
5E
102
}
330
5E
100
DictionaryVariables
280
     0
  1
1
  0
DICTIONARYVAR
  5
AF
102
{ACAD_REACTORS
330
5E
102
}
330
5E
100
DictionaryVariables
280
     0
  1

  0
XRECORD
  5
AD
102
{ACAD_REACTORS
330
AB
102
}
330
AB
100
AcDbXrecord
280
     1
  0
DICTIONARY
  5
2C2
330
22
100
AcDbDictionary
280
     1
281
     1
  3
ACAD_XREC_ROUNDTRIP
360
2C3
  0
DICTIONARY
  5
2C4
330
51
100
AcDbDictionary
280
     1
281
     1
  3
ACAD_XREC_ROUNDTRIP
360
2C5
  0
DICTIONARY
  5
2C6
330
56
100
AcDbDictionary
280
     1
281
     1
  3
ACAD_XREC_ROUNDTRIP
360
2C7
  0
XRECORD
  5
2C3
102
{ACAD_REACTORS
330
2C2
102
}
330
2C2
100
AcDbXrecord
280
     1
102
SHADEPLOT
 70
     0
102
SHADEPLOTRESLEVEL
 70
     2
102
SHADEPLOTCUSTOMDPI
 70
   300
  0
XRECORD
  5
2C5
102
{ACAD_REACTORS
330
2C4
102
}
330
2C4
100
AcDbXrecord
280
     1
102
SHADEPLOT
 70
     0
102
SHADEPLOTRESLEVEL
 70
     2
102
SHADEPLOTCUSTOMDPI
 70
   300
  0
XRECORD
  5
2C7
102
{ACAD_REACTORS
330
2C6
102
}
330
2C6
100
AcDbXrecord
280
     1
102
SHADEPLOT
 70
     0
102
SHADEPLOTRESLEVEL
 70
     2
102
SHADEPLOTCUSTOMDPI
 70
   300
  0
ENDSEC
  0
EOF
